<svg id="Grupo_1003856" data-name="Grupo 1003856" xmlns="http://www.w3.org/2000/svg" xmlns:xlink="http://www.w3.org/1999/xlink" width="168.787" height="216.387" viewBox="0 0 168.787 216.387">
  <defs>
    <clipPath id="clip-path">
      <rect id="Rectángulo_353875" data-name="Rectángulo 353875" width="168.787" height="216.387" fill="none"/>
    </clipPath>
  </defs>
  <g id="Grupo_1003855" data-name="Grupo 1003855" clip-path="url(#clip-path)">
    <path id="Trazado_716633" data-name="Trazado 716633" d="M85.845,4.744S5.638,76.812,4.811,130.246s45.492,84.866,87.4,84.866,79.681-47.364,74.995-89.991S85.845,4.744,85.845,4.744" transform="translate(-1.553 -1.535)" fill="#06d1d1"/>
    <path id="Trazado_716634" data-name="Trazado 716634" d="M164.576,182.709s12.918,0,12.958,12.24S150.355,254.778,123,245.956s-3.115-25.161-3.115-25.161,22.357-6.162,30.628-28.824c0,0,9.209-9.9,14.061-9.262" transform="translate(-35.594 -59.123)" fill="#83f361"/>
    <path id="Trazado_716635" data-name="Trazado 716635" d="M177.318,159.939c-1.632,38.917-28.916,69.46-61.741,77.981-33.729,8.755-62.623-.179-86.352-25.72-.535-.576-.96-1.252-1.488-1.836-1.465-1.622-2.044-3.473-.3-5.058,1.9-1.727,3.719-.841,5.189.951a77.911,77.911,0,0,0,25.113,20.135c45.633,23.3,102-4.342,111.557-54.479,3.8-19.938-.664-38.284-10.022-55.543-6.251-11.531-13.907-22.3-20.848-33.459-.765-1.23-1.533-2.927-1.288-4.217.464-2.45,3.926-2.832,5.612-.56,15.589,21,29.41,42.9,33.792,69.347.677,4.082.536,8.3.774,12.456" transform="translate(-8.532 -24.8)" fill="#161615"/>
    <path id="Trazado_716636" data-name="Trazado 716636" d="M83.9,7.218C74.774,16.883,65.675,26.1,57.057,35.746c-15.342,17.175-29.142,35.5-39.471,56.205-6.943,13.913-11.944,28.365-11.05,44.277a78.518,78.518,0,0,0,7.8,30.118c.343.708.659,1.433,1.052,2.112,1.186,2.051.791,3.695-1.324,4.758s-3.424-.154-4.349-1.889a85.038,85.038,0,0,1-8.574-25.422c-3.824-21.621,2.4-41.173,12.279-59.946C25.79,62.446,42.245,41.912,60.3,22.609c6.691-7.152,13.841-13.875,20.72-20.854,2.308-2.342,4.381-2.348,6.617.026q18.188,19.3,36.4,38.572c1.649,1.751,2.383,3.685.085,5.5s-3.681.062-5.09-1.45q-16-17.179-32.011-34.35c-.758-.812-1.648-1.5-3.124-2.833" transform="translate(0 0)" fill="#161615"/>
    <path id="Trazado_716637" data-name="Trazado 716637" d="M173.837,212.59c2.108,2.022,6.675,2.592,4.462,6.482-2.177,3.825-5.04.352-7.763-.446l-6.227,8.4c.925,2.562,6.1,4.292,2.507,7.722-3.176,3.034-4.914-1.316-7.275-2.612l-9.161,7.493c.549,2.551,3.817,5.495-.3,7.5-3.426,1.666-4.111-1.936-5.544-3.955l-8.615,3.967c.306,1.672,1.017,3.445.819,5.111-.167,1.4-1.387,2.683-2.141,4.017-1.3-.812-2.926-1.374-3.82-2.509-.819-1.04-.853-2.7-1.285-4.275-9.769,1.648-17.451-1.052-21.207-10.647-3.054-7.8-.244-15.039,7.6-21.227.018-2.776-4.3-6.438.522-8.277,4.323-1.648,4.005,3.405,6.193,6l11.064-6.587c-1.614-1.688-3.232-2.783-3.931-4.3a5.044,5.044,0,0,1,.22-4.337c.494-.676,2.952-.61,4.026,0,1.377.787,2.247,2.461,4.1,4.659,2.536-4.589,4.648-8.307,6.61-12.1.225-.434-.23-1.432-.647-1.94-.926-1.125-2.049-2.087-3.054-3.15-1.378-1.458-1.5-2.992-.051-4.465a2.882,2.882,0,0,1,4.471-.074c.735.69,1.286,1.573,1.861,1.261,3.984-2.036,7.843-4.406,12.006-5.963,2.014-.752,4.691-.321,6.887.259,1.059.28,2.59,2.45,2.325,3.219-.419,1.217-2.074,2.152-3.393,2.856-.678.363-1.761-.074-2.661-.077-4.768-.02-8.627,2.4-10.16,6.881-5.318,15.541-15.8,25.79-31.222,31.224a10.825,10.825,0,0,0-6.634,13.682c1.683,5.312,7.05,8.122,13.023,6.333,23.541-7.048,38.644-22.419,44.974-46.237a9.083,9.083,0,0,0-.039-3.6c-.367-2.375.326-4.126,2.79-4.551a3.134,3.134,0,0,1,3.865,3.226c-.047,3.156,1.034,4.562,4.137,5.217.926.2,2.047,2.586,1.876,3.8-.122.87-2.507,2.3-3.435,2.02-3.157-.963-4.194.371-4.975,3.071a69.474,69.474,0,0,1-2.8,6.933" transform="translate(-34.655 -57.586)" fill="#161615"/>
    <path id="Trazado_716638" data-name="Trazado 716638" d="M88.706,136.73c-.062,3.478.335,6.243-2.914,6.331-3.65.1-3.314-2.9-3.416-6.256-1.316.63-2.534.85-3.135,1.578-1.31,1.588-2.526,3.073-4.745,1.783-2.117-1.232-1.9-3.007-.958-4.968a6.9,6.9,0,0,0,.2-2.382,7.058,7.058,0,0,0-2.6.061c-1.99.873-3.765,1.057-4.954-1.06-1.134-2.02.086-3.324,1.619-4.551a8.7,8.7,0,0,0,1.46-2.165c-.776-.423-1.548-1.2-2.33-1.205-2.178-.028-3.566-.856-3.581-3.082-.015-2.183,1.291-3.136,3.489-3.205.813-.026,1.605-.72,2.407-1.109a7.51,7.51,0,0,0-1.382-2.176c-1.711-1.3-3.085-2.952-1.464-4.725.856-.937,3.036-.717,4.632-.9a17.317,17.317,0,0,1,2.655.085,9.558,9.558,0,0,0-.294-2.668c-.772-1.877-.91-3.563,1.039-4.7,1.966-1.146,3.353-.165,4.584,1.451a10.048,10.048,0,0,0,2.1,1.621c.45-.868,1.22-1.713,1.286-2.609.164-2.21,1.217-3.426,3.352-3.368,2.014.055,2.861,1.324,2.957,3.37.041.882.849,1.727,1.308,2.589a10,10,0,0,0,2.134-1.572c1.241-1.557,2.6-2.675,4.579-1.495,2.086,1.242,1.9,3.019.928,4.975a6.731,6.731,0,0,0-.231,2.324c.877.014,1.886.317,2.608-.012,1.986-.9,3.762-1.112,4.966,1,1.257,2.208-.193,3.461-1.827,4.732-.729.566-1.036,1.675-1.777,2.957,3.227.463,6.636-.3,6.5,3.569-.118,3.447-3.158,2.782-6.156,3.031.433,1.181.5,2.475,1.175,2.992,1.713,1.318,3.476,2.541,2.047,4.908-1.621,2.684-3.8,1.6-5.854.442-.193-.11-.411-.177-1.493-.633,0,1.414-.32,2.6.065,3.472.88,1.995,1.119,3.731-.96,4.988-2.234,1.351-3.422-.25-4.768-1.743-.657-.73-1.846-.981-3.259-1.678m7-16.018c-.041-5.193-5.168-10.282-10.252-10.174-5.275.112-10.162,5.1-10.1,10.311.057,5.088,5.364,10.206,10.415,10.044,5-.16,9.98-5.264,9.942-10.181" transform="translate(-20.504 -31.881)" fill="#161615"/>
    <path id="Trazado_716639" data-name="Trazado 716639" d="M108.6,60.319a10.724,10.724,0,0,1,10.758-11.033,10.948,10.948,0,1,1-.143,21.9A10.8,10.8,0,0,1,108.6,60.319m11-4.391c-2.634.076-4.893,2.229-4.586,4.394.343,2.421,1.662,4.249,4.426,4.148,2.691-.1,4.1-1.664,4.069-4.346a3.891,3.891,0,0,0-3.909-4.2" transform="translate(-35.148 -15.951)" fill="#161615"/>
    <path id="Trazado_716640" data-name="Trazado 716640" d="M39.671,180.6A10.534,10.534,0,0,1,50.65,191.285,10.949,10.949,0,0,1,39.8,202.3a11.323,11.323,0,0,1-10.982-11.047A10.952,10.952,0,0,1,39.671,180.6m.017,14.835a4.471,4.471,0,0,0,4.335-4.136c-.045-2.1-2.478-4.469-4.463-4.1-2.309.43-3.917,1.883-3.769,4.359a3.855,3.855,0,0,0,3.9,3.876" transform="translate(-9.328 -58.449)" fill="#161615"/>
    <path id="Trazado_716641" data-name="Trazado 716641" d="M177.476,129.178a10.751,10.751,0,0,1-11.042,10.743,10.939,10.939,0,0,1,.329-21.875,10.891,10.891,0,0,1,10.713,11.132m-10.786,4.183c2.331-.367,4.19-1.607,4.262-4.176a3.923,3.923,0,0,0-4.062-4.319c-2.593-.092-4.2,1.253-4.325,3.978-.126,2.749,1.5,3.983,4.124,4.518" transform="translate(-50.382 -38.204)" fill="#161615"/>
    <path id="Trazado_716642" data-name="Trazado 716642" d="M95.4,186.733a10.667,10.667,0,0,1,10.944,10.785,10.864,10.864,0,1,1-21.727.148A10.634,10.634,0,0,1,95.4,186.733m4.263,11.125c.007-3-1.549-4.427-4.067-4.737-2.158-.264-4.354,1.951-4.439,4.191a4.225,4.225,0,0,0,4.164,4.343c2.767.059,4.064-1.46,4.342-3.8" transform="translate(-27.385 -60.435)" fill="#161615"/>
    <path id="Trazado_716643" data-name="Trazado 716643" d="M101.438,126.469c.039,4.916-4.946,10.02-9.942,10.181-5.051.162-10.358-4.956-10.415-10.044-.057-5.212,4.829-10.2,10.1-10.311,5.084-.108,10.212,4.981,10.252,10.174" transform="translate(-26.241 -37.637)" fill="#ffc403"/>
    <path id="Trazado_716644" data-name="Trazado 716644" d="M122.653,59.106a3.891,3.891,0,0,1,3.909,4.2c.029,2.682-1.378,4.248-4.069,4.346-2.764.1-4.083-1.727-4.426-4.148-.307-2.164,1.952-4.318,4.586-4.394" transform="translate(-38.202 -19.129)" fill="#b20d0d"/>
    <path id="Trazado_716645" data-name="Trazado 716645" d="M43.019,198.574a3.855,3.855,0,0,1-3.9-3.876c-.149-2.476,1.46-3.929,3.769-4.359,1.985-.369,4.418,2,4.463,4.1a4.471,4.471,0,0,1-4.335,4.136" transform="translate(-12.659 -61.589)" fill="#b20d0d"/>
    <path id="Trazado_716646" data-name="Trazado 716646" d="M169.986,136.622c-2.622-.535-4.25-1.769-4.124-4.518.125-2.725,1.731-4.07,4.325-3.978a3.923,3.923,0,0,1,4.062,4.319c-.072,2.569-1.93,3.809-4.262,4.176" transform="translate(-53.678 -41.465)" fill="#b20d0d"/>
    <path id="Trazado_716647" data-name="Trazado 716647" d="M102.79,200.9c-.277,2.338-1.575,3.857-4.342,3.8a4.225,4.225,0,0,1-4.164-4.343c.085-2.241,2.281-4.456,4.439-4.191,2.518.309,4.074,1.736,4.067,4.737" transform="translate(-30.513 -63.481)" fill="#b20d0d"/>
  </g>
</svg>
