<svg xmlns="http://www.w3.org/2000/svg" xmlns:xlink="http://www.w3.org/1999/xlink" width="106.734" height="106.734" viewBox="0 0 106.734 106.734">
  <defs>
    <clipPath id="clip-path">
      <rect id="Rectángulo_353831" data-name="Rectángulo 353831" width="102.896" height="82.857" fill="none"/>
    </clipPath>
    <clipPath id="clip-path-2">
      <rect id="Rectángulo_353814" data-name="Rectángulo 353814" width="21.494" height="24.004" fill="#ffdbdb"/>
    </clipPath>
    <clipPath id="clip-path-3">
      <rect id="Rectángulo_353816" data-name="Rectángulo 353816" width="7.495" height="24.004" fill="#e5b0b0"/>
    </clipPath>
    <clipPath id="clip-path-4">
      <rect id="Rectángulo_353818" data-name="Rectángulo 353818" width="21.494" height="36.349" fill="#b20d0d"/>
    </clipPath>
    <clipPath id="clip-path-5">
      <rect id="Rectángulo_353820" data-name="Rectángulo 353820" width="7.495" height="36.234" fill="#8d0a0a"/>
    </clipPath>
    <clipPath id="clip-path-6">
      <rect id="Rectángulo_353822" data-name="Rectángulo 353822" width="21.494" height="49.722" fill="#abffff"/>
    </clipPath>
    <clipPath id="clip-path-7">
      <rect id="Rectángulo_353824" data-name="Rectángulo 353824" width="7.495" height="49.722" fill="#03a4a4"/>
    </clipPath>
    <clipPath id="clip-path-8">
      <rect id="Rectángulo_353826" data-name="Rectángulo 353826" width="21.494" height="68.24" fill="none"/>
    </clipPath>
    <clipPath id="clip-path-9">
      <rect id="Rectángulo_353828" data-name="Rectángulo 353828" width="7.495" height="68.125" fill="none"/>
    </clipPath>
    <clipPath id="clip-path-10">
      <rect id="Rectángulo_353830" data-name="Rectángulo 353830" width="102.014" height="1.772" fill="none"/>
    </clipPath>
  </defs>
  <g id="Grupo_1003759" data-name="Grupo 1003759" transform="translate(-1096 -4059)">
    <path id="Trazado_705812" data-name="Trazado 705812" d="M106.734,78.256A53.367,53.367,0,1,1,53.367,24.889a53.367,53.367,0,0,1,53.367,53.367" transform="translate(1096 4034.111)" fill="#06d1d1"/>
    <g id="Grupo_1003758" data-name="Grupo 1003758" transform="translate(1098.294 4070.938)">
      <rect id="Rectángulo_353811" data-name="Rectángulo 353811" width="28.889" height="19.111" transform="translate(0 49.879)" fill="#8a3d02"/>
      <rect id="Rectángulo_353812" data-name="Rectángulo 353812" width="10.074" height="19.111" transform="translate(18.852 49.905)" fill="#4393a0"/>
      <g id="Grupo_1003757" data-name="Grupo 1003757">
        <g id="Grupo_1003756" data-name="Grupo 1003756" clip-path="url(#clip-path)">
          <g id="Grupo_1003731" data-name="Grupo 1003731" transform="translate(18.298 44.15)" style="isolation: isolate">
            <g id="Grupo_1003730" data-name="Grupo 1003730">
              <g id="Grupo_1003729" data-name="Grupo 1003729" clip-path="url(#clip-path-2)">
                <rect id="Rectángulo_353813" data-name="Rectángulo 353813" width="21.494" height="24.004" transform="translate(0 0)" fill="#ffdbdb"/>
              </g>
            </g>
          </g>
          <g id="Grupo_1003734" data-name="Grupo 1003734" transform="translate(32.186 44.15)" style="isolation: isolate">
            <g id="Grupo_1003733" data-name="Grupo 1003733">
              <g id="Grupo_1003732" data-name="Grupo 1003732" clip-path="url(#clip-path-3)">
                <rect id="Rectángulo_353815" data-name="Rectángulo 353815" width="7.495" height="24.004" transform="translate(0 0)" fill="#e5b0b0"/>
              </g>
            </g>
          </g>
          <g id="Grupo_1003737" data-name="Grupo 1003737" transform="translate(38.469 31.948)" style="isolation: isolate">
            <g id="Grupo_1003736" data-name="Grupo 1003736">
              <g id="Grupo_1003735" data-name="Grupo 1003735" clip-path="url(#clip-path-4)">
                <rect id="Rectángulo_353817" data-name="Rectángulo 353817" width="21.494" height="36.349" transform="translate(0 0)" fill="#b20d0d"/>
              </g>
            </g>
          </g>
          <g id="Grupo_1003740" data-name="Grupo 1003740" transform="translate(52.247 31.948)" style="isolation: isolate">
            <g id="Grupo_1003739" data-name="Grupo 1003739">
              <g id="Grupo_1003738" data-name="Grupo 1003738" clip-path="url(#clip-path-5)">
                <rect id="Rectángulo_353819" data-name="Rectángulo 353819" width="7.495" height="36.234" transform="translate(0 0)" fill="#8d0a0a"/>
              </g>
            </g>
          </g>
          <g id="Grupo_1003743" data-name="Grupo 1003743" transform="translate(59.192 18.46)" style="isolation: isolate">
            <g id="Grupo_1003742" data-name="Grupo 1003742">
              <g id="Grupo_1003741" data-name="Grupo 1003741" clip-path="url(#clip-path-6)">
                <rect id="Rectángulo_353821" data-name="Rectángulo 353821" width="21.494" height="49.722" transform="translate(0 0.001)" fill="#abffff"/>
              </g>
            </g>
          </g>
          <g id="Grupo_1003746" data-name="Grupo 1003746" transform="translate(73.08 18.46)" style="isolation: isolate">
            <g id="Grupo_1003745" data-name="Grupo 1003745">
              <g id="Grupo_1003744" data-name="Grupo 1003744" clip-path="url(#clip-path-7)">
                <rect id="Rectángulo_353823" data-name="Rectángulo 353823" width="7.495" height="49.722" transform="translate(0 0.001)" fill="#03a4a4"/>
              </g>
            </g>
          </g>
          <g id="Grupo_1003749" data-name="Grupo 1003749" transform="translate(79.583 0.029)" style="isolation: isolate">
            <g id="Grupo_1003748" data-name="Grupo 1003748">
              <g id="Grupo_1003747" data-name="Grupo 1003747" clip-path="url(#clip-path-8)">
                <rect id="Rectángulo_353825" data-name="Rectángulo 353825" width="21.494" height="68.239" transform="translate(0 0.001)" fill="#171e59"/>
              </g>
            </g>
          </g>
          <g id="Grupo_1003752" data-name="Grupo 1003752" transform="translate(93.472)" style="isolation: isolate">
            <g id="Grupo_1003751" data-name="Grupo 1003751">
              <g id="Grupo_1003750" data-name="Grupo 1003750" clip-path="url(#clip-path-9)">
                <rect id="Rectángulo_353827" data-name="Rectángulo 353827" width="7.495" height="68.125" transform="translate(0 0.001)" fill="#161a3c"/>
              </g>
            </g>
          </g>
          <g id="Grupo_1003755" data-name="Grupo 1003755" transform="translate(0.882 68.182)" style="isolation: isolate">
            <g id="Grupo_1003754" data-name="Grupo 1003754">
              <g id="Grupo_1003753" data-name="Grupo 1003753" clip-path="url(#clip-path-10)">
                <rect id="Rectángulo_353829" data-name="Rectángulo 353829" width="102.014" height="1.771" transform="translate(0 0)" fill="#161a3c"/>
              </g>
            </g>
          </g>
          <path id="Trazado_716564" data-name="Trazado 716564" d="M104.781,62.111a14.43,14.43,0,0,0-11.364-16.73A14.01,14.01,0,0,0,77.285,57.165a14.43,14.43,0,0,0,11.364,16.73,13.482,13.482,0,0,0,7.089-.634l2.635,3.87a4.769,4.769,0,0,0,.81,3.412l7.684,10.76a4.843,4.843,0,0,0,6.964.741,5.264,5.264,0,0,0,1.349-7.123L107.5,74.159a4.477,4.477,0,0,0-3.279-1.852l-2.392-3.516a14.6,14.6,0,0,0,2.953-6.681M89.305,70.13a10.6,10.6,0,0,1-8.361-12.278,10.291,10.291,0,0,1,11.84-8.67,10.6,10.6,0,0,1,8.361,12.278A10.3,10.3,0,0,1,89.3,70.13Z" transform="translate(-19.73 -10.318)" fill="#ffc403"/>
        </g>
      </g>
    </g>
  </g>
</svg>
