<svg xmlns="http://www.w3.org/2000/svg" xmlns:xlink="http://www.w3.org/1999/xlink" width="106.734" height="119.602" viewBox="0 0 106.734 119.602">
  <defs>
    <clipPath id="clip-path">
      <rect id="Rectángulo_353810" data-name="Rectángulo 353810" width="102.56" height="119.602" fill="none"/>
    </clipPath>
  </defs>
  <g id="Grupo_1003587" data-name="Grupo 1003587" transform="translate(-746.633 -7187.132)">
    <path id="Trazado_705812" data-name="Trazado 705812" d="M106.734,78.256A53.367,53.367,0,1,1,53.367,24.889a53.367,53.367,0,0,1,53.367,53.367" transform="translate(746.633 7175.111)" fill="#06d1d1"/>
    <g id="Grupo_1003728" data-name="Grupo 1003728" transform="translate(748.807 7187.132)">
      <g id="Grupo_1003727" data-name="Grupo 1003727" clip-path="url(#clip-path)">
        <path id="Trazado_716556" data-name="Trazado 716556" d="M63.245,108.994c-.548,5.189-3.952,8.277-9.11,8.317-3.446.027-6.892.035-10.338-.009a8.205,8.205,0,0,1-8.457-7.316c-.13-.836-.442-1.018-1.208-1.129a8.44,8.44,0,0,1-7.494-8.222c-.136-3.14-.092-6.292-.014-9.437a8.246,8.246,0,0,1,3.244-6.328,2.167,2.167,0,0,0,.764-2.338A36.273,36.273,0,0,0,24.207,66.9c-11.348-16.032-1.86-37.981,14.6-43.85,19.637-7,37.671,6.511,40.005,24.425,1.015,7.788-1.174,14.618-5.418,20.936a34.535,34.535,0,0,0-5.618,14.2,2.1,2.1,0,0,0,.822,2.307,7.507,7.507,0,0,1,3.058,5.622,91.249,91.249,0,0,1,.056,10.627c-.323,4.489-3.521,7.275-8.468,7.829M59.394,82.976c.053-.2.1-.389.149-.574.985-3.7,1.642-7.522,3.05-11.05a67.068,67.068,0,0,1,5.253-9.542A20.2,20.2,0,0,0,69.469,43.7,21.738,21.738,0,0,0,49.046,29.473,21.426,21.426,0,0,0,29.162,42.909a20.484,20.484,0,0,0,2.1,19.967,43.567,43.567,0,0,1,7.394,18.6c.162,1.176.654,1.624,1.857,1.487a15.683,15.683,0,0,1,3.142-.021c1.1.1,1.454-.225,1.447-1.388-.042-7.342.025-14.684-.034-22.024a2.607,2.607,0,0,0-1.056-1.858c-2.437-1.556-4.993-2.921-7.463-4.428-2.386-1.458-3.059-3.619-1.879-5.689,1.212-2.129,3.484-2.647,5.937-1.281s4.867,2.744,7.252,4.2a2.182,2.182,0,0,0,2.585-.047q3.775-2.28,7.671-4.362a3.909,3.909,0,0,1,4.956.588,3.858,3.858,0,0,1-.7,6.27c-2.449,1.626-4.989,3.126-7.559,4.555a2.282,2.282,0,0,0-1.3,2.374c.061,6.842.037,13.685.041,20.528v2.6Zm4.03,8.559c-.266-.12-.354-.194-.443-.194-9.033-.024-18.065-.052-27.1-.02a1.349,1.349,0,0,0-.916.942Q34.8,96,34.863,99.745c.006.313.585.846.94.884,1.282.138,2.594.016,3.875.163a3.917,3.917,0,0,1,3.7,3.679c.132,1.133-.006,2.3.125,3.428.043.38.534,1.006.829,1.012,3.427.072,6.855.047,10.42.047,0-1.163-.006-2.149,0-3.137.022-3.566,1.639-5.185,5.238-5.232,1.125-.016,2.25,0,3.437,0Z" transform="translate(2.063 2.269)" fill="#161615"/>
        <path id="Trazado_716557" data-name="Trazado 716557" d="M42.6,8.289c0-1.447-.059-2.9.013-4.34A3.89,3.89,0,0,1,46.2.031a4.207,4.207,0,0,1,4.542,3.087,2.147,2.147,0,0,1,.135.582c-.014,3.183.082,6.374-.113,9.547a3.5,3.5,0,0,1-2.952,3.194,3.853,3.853,0,0,1-4.3-1.346,4.586,4.586,0,0,1-.83-2.171c-.126-1.536-.038-3.089-.038-4.636H42.6" transform="translate(4.565 0)" fill="#161615"/>
        <path id="Trazado_716558" data-name="Trazado 716558" d="M30.346,17.954a3.833,3.833,0,0,1-2.52,3.825c-1.679.649-3.6.438-4.489-.989-1.871-2.991-3.571-6.1-5.141-9.264-.683-1.377.237-3.212,1.635-4.144,1.46-.973,3.646-1.177,4.546.143,2.173,3.187,3.986,6.619,5.928,9.96a.938.938,0,0,1,.04.468" transform="translate(1.926 0.707)" fill="#161615"/>
        <path id="Trazado_716559" data-name="Trazado 716559" d="M11.218,37.047a5.15,5.15,0,0,1-1.349-.385C7.1,35.1,4.3,33.558,1.618,31.851A3.562,3.562,0,0,1,.18,27.622a3.727,3.727,0,0,1,3.268-2.879A3.442,3.442,0,0,1,5.474,25c2.793,1.53,5.589,3.072,8.259,4.8a3.647,3.647,0,0,1,1.38,4.629,4.058,4.058,0,0,1-3.894,2.615" transform="translate(0 2.648)" fill="#161615"/>
        <path id="Trazado_716560" data-name="Trazado 716560" d="M83.036,36.936a4.119,4.119,0,0,1-3.982-2.678,3.65,3.65,0,0,1,1.263-4.407c2.724-1.729,5.525-3.358,8.395-4.832a3.627,3.627,0,0,1,4.668,1.539c1.067,1.621,1.034,3.953-.534,5-2.878,1.927-5.974,3.526-9,5.235a2,2,0,0,1-.815.142" transform="translate(8.447 2.644)" fill="#161615"/>
        <path id="Trazado_716561" data-name="Trazado 716561" d="M63.449,17.83a7.86,7.86,0,0,1,.517-1.619c1.465-2.6,2.854-5.255,4.513-7.727a3.837,3.837,0,0,1,6.8.489,4.1,4.1,0,0,1,.135,3.11A88.311,88.311,0,0,1,70.7,20.371a3.538,3.538,0,0,1-3.945,1.485,3.909,3.909,0,0,1-3.088-2.908,10.667,10.667,0,0,1-.219-1.118" transform="translate(6.802 0.713)" fill="#161615"/>
        <path id="Trazado_716562" data-name="Trazado 716562" d="M58.6,82.171H52.75c0-.934,0-1.768,0-2.6,0-6.842.021-13.685-.04-20.528a2.282,2.282,0,0,1,1.3-2.374c2.57-1.429,5.11-2.929,7.558-4.555a3.857,3.857,0,0,0,.7-6.27,3.907,3.907,0,0,0-4.955-.588q-3.891,2.079-7.671,4.362a2.18,2.18,0,0,1-2.585.045c-2.385-1.452-4.813-2.838-7.253-4.2s-4.723-.847-5.937,1.282c-1.179,2.069-.506,4.231,1.88,5.688,2.469,1.508,5.026,2.873,7.463,4.429a2.606,2.606,0,0,1,1.055,1.858c.061,7.341-.007,14.683.035,22.024.007,1.164-.343,1.487-1.448,1.388a15.672,15.672,0,0,0-3.141.021c-1.2.137-1.7-.311-1.858-1.487a43.565,43.565,0,0,0-7.393-18.6,20.482,20.482,0,0,1-2.1-19.967A21.424,21.424,0,0,1,48.247,28.669,21.736,21.736,0,0,1,68.669,42.9a20.189,20.189,0,0,1-1.621,18.107,67.147,67.147,0,0,0-5.254,9.543c-1.407,3.528-2.065,7.354-3.049,11.05-.05.185-.1.37-.149.574" transform="translate(2.862 3.073)" fill="#ffc403"/>
        <path id="Trazado_716563" data-name="Trazado 716563" d="M61.914,84.743V93.8c-1.187,0-2.312-.013-3.437,0-3.6.047-5.216,1.665-5.238,5.232-.006.988,0,1.974,0,3.137-3.565,0-6.993.025-10.42-.047-.3-.006-.786-.632-.829-1.012-.131-1.133.007-2.3-.125-3.428A3.917,3.917,0,0,0,38.168,94c-1.281-.147-2.593-.024-3.875-.163-.355-.038-.934-.57-.94-.884q-.063-3.74.106-7.482a1.349,1.349,0,0,1,.916-.942c9.031-.032,18.064,0,27.1.02.089,0,.177.074.443.194" transform="translate(3.574 9.06)" fill="#afafaf"/>
      </g>
    </g>
  </g>
</svg>
