<svg xmlns="http://www.w3.org/2000/svg" width="69.436" height="69.486" viewBox="0 0 69.436 69.486">
  <g id="Grupo_992001" data-name="Grupo 992001" transform="translate(0)">
    <circle id="Elipse_4817" data-name="Elipse 4817" cx="34.5" cy="34.5" r="34.5" transform="translate(0.436 0.486)" fill="#fff"/>
    <g id="dominio" transform="translate(0 0)">
      <path id="Trazado_636884" data-name="Trazado 636884" d="M69.127,34.564A34.564,34.564,0,1,1,34.564,0,34.563,34.563,0,0,1,69.127,34.564Zm0,0" transform="translate(0 0)" fill="#a1f1fc"/>
      <path id="Trazado_636885" data-name="Trazado 636885" d="M95.1,351.73A34.466,34.466,0,0,0,69.98,362.55a34.69,34.69,0,0,0,2.518,2.409q.306-.324.622-.641a31.079,31.079,0,0,1,43.951,0q.316.316.622.641a34.7,34.7,0,0,0,2.518-2.409A34.466,34.466,0,0,0,95.1,351.73Zm0,0" transform="translate(-60.532 -304.242)" fill="#5fd4e3"/>
      <path id="Trazado_636886" data-name="Trazado 636886" d="M69.116,35.438q.011-.436.011-.874t-.011-.874A34.565,34.565,0,0,0,35.438.011Q35,0,34.564,0T33.69.011A34.565,34.565,0,0,0,.011,33.69Q0,34.126,0,34.564t.011.874A34.565,34.565,0,0,0,33.69,69.116q.436.011.874.011t.874-.011A34.564,34.564,0,0,0,69.116,35.438ZM51.1,32.821a65.3,65.3,0,0,0-1.9-14.427,34.6,34.6,0,0,0,7.962-5.167,30.83,30.83,0,0,1,8.433,19.593Zm-47.564,0a30.83,30.83,0,0,1,8.433-19.593,34.613,34.613,0,0,0,7.961,5.167,65.332,65.332,0,0,0-1.9,14.427ZM32.821,18.1a31.016,31.016,0,0,1-8.691-1.738A38.255,38.255,0,0,1,26,11.629c2-4.168,4.409-6.9,6.821-7.81ZM42.81,4.586a30.8,30.8,0,0,1,11.806,6.233,30.931,30.931,0,0,1-6.4,4.19A32.084,32.084,0,0,0,42.81,4.586ZM45,16.366A30.99,30.99,0,0,1,36.306,18.1V3.819c2.411.908,4.824,3.642,6.821,7.81A38.221,38.221,0,0,1,45,16.366ZM20.911,15.01a30.985,30.985,0,0,1-6.4-4.19A30.789,30.789,0,0,1,26.318,4.586,32.072,32.072,0,0,0,20.911,15.01Zm2.274,4.711a34.432,34.432,0,0,0,9.636,1.874V32.821H21.516A62.042,62.042,0,0,1,23.185,19.721Zm9.636,16.586v29C30.409,64.4,28,61.666,26,57.5c-2.712-5.662-4.286-13.132-4.484-21.192Zm3.486,29v-29h11.3c-.2,8.06-1.773,15.53-4.484,21.192C41.13,61.666,38.718,64.4,36.307,65.309Zm0-32.487V21.594a34.432,34.432,0,0,0,9.636-1.874,62.009,62.009,0,0,1,1.669,13.1ZM3.535,36.306H18.029c.287,12.087,3.549,22.541,8.289,28.235A31.115,31.115,0,0,1,3.535,36.306ZM42.81,64.541c4.74-5.695,8-16.147,8.289-28.235H65.593A31.115,31.115,0,0,1,42.81,64.541Zm0,0" transform="translate(0 0)" fill="#5fd4e3"/>
      <path id="Trazado_636887" data-name="Trazado 636887" d="M.032,36.016A34.564,34.564,0,0,1,33.69,2.915q.436-.011.874-.011t.874.011A34.564,34.564,0,0,1,69.1,36.016c.007-.193.016-.385.021-.579q.011-.436.011-.874t-.011-.874A34.565,34.565,0,0,0,35.438.011Q35,0,34.564,0T33.69.011A34.565,34.565,0,0,0,.011,33.69Q0,34.126,0,34.564t.011.874c0,.194.014.386.021.579Zm0,0" transform="translate(0 0)" fill="#a1f1fc"/>
      <path id="Trazado_636888" data-name="Trazado 636888" d="M69.1,245.242a34.564,34.564,0,0,1-33.657,33.1q-.436.011-.874.011t-.874-.011a34.564,34.564,0,0,1-33.658-33.1c-.007.193-.016.385-.021.579q-.011.436-.011.874t.011.874A34.564,34.564,0,0,0,33.69,281.247q.436.011.874.011t.874-.011a34.564,34.564,0,0,0,33.679-33.679q.011-.436.011-.874t-.011-.874C69.112,245.627,69.1,245.435,69.1,245.242Zm0,0" transform="translate(0 -212.131)" fill="#53bac7"/>
      <path id="Trazado_636889" data-name="Trazado 636889" d="M75.329,205.643H30.567a9.314,9.314,0,0,1,0-18.628H75.329a9.314,9.314,0,1,1,0,18.628Zm0,0" transform="translate(-18.384 -161.766)" fill="#ffefe4"/>
      <path id="Trazado_636890" data-name="Trazado 636890" d="M75.329,187.016H30.567a9.314,9.314,0,0,0-9.313,9.314c0,.245.012.486.031.726a9.312,9.312,0,0,1,9.283-8.588H75.329a9.312,9.312,0,0,1,9.283,8.588c.019-.24.031-.482.031-.726A9.314,9.314,0,0,0,75.329,187.016Zm0,0" transform="translate(-18.384 -161.766)" fill="#fff7f2"/>
      <path id="Trazado_636891" data-name="Trazado 636891" d="M30.567,260.661H75.329a9.314,9.314,0,0,0,9.314-9.314c0-.245-.013-.486-.031-.726a9.312,9.312,0,0,1-9.283,8.588H30.567a9.312,9.312,0,0,1-9.283-8.588c-.018.24-.031.482-.031.726A9.313,9.313,0,0,0,30.567,260.661Zm0,0" transform="translate(-18.384 -216.784)" fill="#edd4c2"/>
      <g id="Grupo_894593" data-name="Grupo 894593" transform="translate(8.436 29.198)">
        <path id="Trazado_636892" data-name="Trazado 636892" d="M63.967,216.258h.047a1.481,1.481,0,0,1,1.433,1.1l1.483,5.62h.153l1.678-5.312a2.021,2.021,0,0,1,3.852-.005l1.7,5.318h.153l1.464-5.616a1.482,1.482,0,1,1,2.845.826L76.4,225.585a2.02,2.02,0,0,1-1.924,1.4h-.135a2.021,2.021,0,0,1-1.927-1.41l-1.7-5.358h-.153l-1.7,5.358a2.02,2.02,0,0,1-1.926,1.41h-.091a2.02,2.02,0,0,1-1.924-1.4l-2.369-7.394A1.481,1.481,0,0,1,63.967,216.258Zm0,0" transform="translate(-62.484 -216.258)" fill="#6770e6"/>
        <path id="Trazado_636893" data-name="Trazado 636893" d="M196.9,216.258h.048a1.481,1.481,0,0,1,1.432,1.1l1.483,5.62h.153l1.679-5.312a2.02,2.02,0,0,1,3.851-.005l1.7,5.318h.153l1.464-5.616a1.482,1.482,0,1,1,2.845.826l-2.369,7.394a2.021,2.021,0,0,1-1.925,1.4h-.135a2.02,2.02,0,0,1-1.926-1.41l-1.7-5.358H203.5l-1.7,5.358a2.021,2.021,0,0,1-1.926,1.41h-.091a2.021,2.021,0,0,1-1.924-1.4l-2.369-7.394A1.481,1.481,0,0,1,196.9,216.258Zm0,0" transform="translate(-177.467 -216.258)" fill="#6770e6"/>
        <path id="Trazado_636894" data-name="Trazado 636894" d="M329.827,216.258h.047a1.481,1.481,0,0,1,1.432,1.1l1.483,5.62h.153l1.679-5.312a2.02,2.02,0,0,1,3.851-.005l1.7,5.318h.153l1.464-5.616a1.481,1.481,0,1,1,2.844.826l-2.369,7.394a2.021,2.021,0,0,1-1.924,1.4H340.2a2.021,2.021,0,0,1-1.926-1.41l-1.7-5.358h-.154l-1.7,5.358a2.021,2.021,0,0,1-1.926,1.41h-.091a2.02,2.02,0,0,1-1.924-1.4l-2.369-7.394A1.481,1.481,0,0,1,329.827,216.258Zm0,0" transform="translate(-292.449 -216.258)" fill="#6770e6"/>
      </g>
      <path id="Trazado_636895" data-name="Trazado 636895" d="M26.463,329.231A13.231,13.231,0,1,1,13.231,316,13.231,13.231,0,0,1,26.463,329.231Zm0,0" transform="translate(0 -273.335)" fill="#ffc403"/>
      <path id="Trazado_636896" data-name="Trazado 636896" d="M13.255,421.536A13.232,13.232,0,0,1,.017,408.977c-.012.233-.018.466-.017.7a13.231,13.231,0,0,0,26.463-.047c0-.217-.007-.433-.017-.648A13.232,13.232,0,0,1,13.255,421.536Zm0,0" transform="translate(0 -353.759)" fill="#b665c2"/>
      <path id="Trazado_636897" data-name="Trazado 636897" d="M44.187,375.491a2.517,2.517,0,0,1-1.568-.546l-3.656-2.891a2.531,2.531,0,1,1,3.14-3.971l1.7,1.344,5.907-7.25a2.531,2.531,0,1,1,3.924,3.2l-7.482,9.183A2.529,2.529,0,0,1,44.187,375.491Zm0,0" transform="translate(-32.87 -312.472)" fill="#fff7f2"/>
    </g>
  </g>
</svg>
