<svg xmlns="http://www.w3.org/2000/svg" width="149" height="147.721" viewBox="0 0 149 147.721">
  <g id="Grupo_1018018" data-name="Grupo 1018018" transform="translate(-463 -1364.264)">
    <path id="Trazado_715529" data-name="Trazado 715529" d="M149,98.75c0,40.792-33.355,73.861-74.5,73.861S0,139.541,0,98.75,33.355,24.889,74.5,24.889,149,57.958,149,98.75" transform="translate(463 1339.375)" fill="#f6ad4c"/>
    <g id="Grupo_1018015" data-name="Grupo 1018015" transform="translate(-178.588 -75.661)">
      <path id="Trazado_717338" data-name="Trazado 717338" d="M863.878,460.359c-1.809,4.181-3.606,8.372-5.446,12.544a.877.877,0,0,0,.238,1.174c.879.835,1.726,1.7,2.671,2.644.645-1.535,1.232-2.949,1.834-4.356q1.5-3.5,3.031-7c.072-.163.377-.389.479-.349,1.145.457,2.272.96,3.457,1.474-.881,2.106-1.721,4.148-2.589,6.177q-1.425,3.326-2.9,6.628a.686.686,0,0,0,.164.909c.969.939,1.918,1.9,2.858,2.866.3.31.5.356.838.01,2.291-2.325,4.662-4.575,6.9-6.947a6.086,6.086,0,0,1,9.983,1.432c.712,1.341,1.294,2.751,1.968,4.112a4.36,4.36,0,0,0,.668.8c.255-.238.6-.431.75-.724.6-1.176,1.133-2.383,1.725-3.649-3.241-.852-4.976-2.922-5.052-6.11-.082-3.423,1.921-5.383,5.158-6.284l-1.755-4.5a14.549,14.549,0,0,1-4.99,2.069,12.019,12.019,0,0,1-8.133-1.344c-1.27-.667-2.551-1.311-3.82-1.979-1.384-.73-1.743-1.529-1.265-3a32.214,32.214,0,0,1,14.2-18.214,15.828,15.828,0,0,1,15-.983c.14.058.279.122.423.169a.976.976,0,0,0,.246,0,1.284,1.284,0,0,0,0-.3,20.038,20.038,0,0,0-11.243-13.754,5.169,5.169,0,0,1-1.109-.671,1.789,1.789,0,0,1-.45-2.3,3.8,3.8,0,0,1,.407-.666c2.626-3.36,5.245-6.725,7.893-10.067a2.017,2.017,0,0,1,3.235-.244,27.745,27.745,0,0,1,5.074,6.186,28.753,28.753,0,0,1,4.035,11.678c.016.127.047.251.082.433a1.857,1.857,0,0,0,.352-.175,18.733,18.733,0,0,1,12.074-4.2c2.35-.027,4.7-.016,7.052,0a2.282,2.282,0,0,1,2.508,2.588,19.413,19.413,0,0,1-4.684,11.847c-.432.487-.849.988-1.326,1.545a4.375,4.375,0,0,0,.518.439,32.577,32.577,0,0,1,12.071,16.875,1.981,1.981,0,0,1-1.108,2.719,54.63,54.63,0,0,1-6.533,3.075c-3.715,1.289-7.239.486-10.592-1.718l-1.75,4.5c3.294.872,5.143,2.974,5.128,6.279-.015,3.166-1.862,5.168-4.907,6.11a13.843,13.843,0,0,0,1.8,4.033c.094.149.415.195.637.216a11.374,11.374,0,0,1,4.473,1.06c.8.434,1.548.956,2.3,1.467,1.08.733,2.168,1.457,3.2,2.25a1.8,1.8,0,0,1,.575,2.684c-2.644,4.242-5.183,8.563-8.054,12.648a11.765,11.765,0,0,1-10.421,4.935,12.643,12.643,0,0,1-7.586-2.971c-.116-.092-.23-.189-.378-.31a12.94,12.94,0,0,1-9.961,3.2c-3.8-.407-6.608-2.446-8.948-5.506a15.247,15.247,0,0,1-1.037,1.154,16.611,16.611,0,0,1-12.31,4.419,26.5,26.5,0,0,1-12.4-3.833,6.055,6.055,0,0,1-1.355-9.729c2.329-2.44,4.761-4.781,7.15-7.162a1.877,1.877,0,0,1,.366-.206c-.467-.49-.83-.882-1.205-1.263-.718-.728-1.455-1.439-2.159-2.181a.625.625,0,0,0-.842-.146c-4.242,1.839-8.494,3.653-12.833,5.513-.353-.815-.7-1.6-1.035-2.4-.183-.436-.566-.966-.443-1.3.117-.318.768-.454,1.2-.639,3.432-1.473,6.868-2.938,10.365-4.432a2.074,2.074,0,0,0-.247-.392c-.835-.857-1.668-1.718-2.535-2.542a.747.747,0,0,0-.66-.089q-6.358,2.7-12.7,5.44a1.336,1.336,0,0,1-.228.03c-.331-.76-.681-1.547-1.015-2.339-.559-1.33-.57-1.367.71-1.919,3.371-1.453,6.757-2.873,10.137-4.306l.324-.135a7.085,7.085,0,0,0-.446-.561c-.761-.778-1.544-1.535-2.29-2.326a.62.62,0,0,0-.841-.145q-6.272,2.737-12.562,5.431a2.243,2.243,0,0,1-.278.068c-.324-.74-.66-1.485-.975-2.237-.2-.476-.612-1.056-.478-1.424.128-.35.833-.509,1.3-.71,3.392-1.457,6.789-2.9,10.246-4.379a2.107,2.107,0,0,0-.245-.39c-.835-.858-1.666-1.72-2.533-2.545a.757.757,0,0,0-.666-.082q-6.359,2.7-12.7,5.433a1.344,1.344,0,0,1-.226.032c-.35-.8-.717-1.628-1.072-2.46-.51-1.2-.517-1.222.654-1.732,3.483-1.518,6.976-3.014,10.543-4.552a5.434,5.434,0,0,0-.409-.517c-2.32-2.328-4.637-4.659-6.978-6.966a1.924,1.924,0,0,0-.952-.483q-8.978-1.646-17.963-3.253c-1.133-.2-2.263-.43-3.4-.636a2.313,2.313,0,0,1-2.139-2.025c-.045-.983.661-1.786,1.927-2.149,4.113-1.18,8.225-2.361,12.346-3.513a1.251,1.251,0,0,0,.992-1.006c1.143-4.1,2.324-8.191,3.5-12.282.386-1.339,1.181-2.046,2.167-1.972,1.1.082,1.764.8,2.02,2.2,1.268,6.993,2.523,13.989,3.809,20.979a2.543,2.543,0,0,0,.594,1.266c2.357,2.413,4.754,4.788,7.141,7.171a2.3,2.3,0,0,0,.349.22c.6-1.416,1.177-2.808,1.771-4.193,1.009-2.356,2.021-4.711,3.054-7.056.072-.164.376-.392.477-.352,1.148.451,2.277.949,3.459,1.454-.224.56-.411,1.061-.622,1.552q-2.419,5.629-4.854,11.251a.728.728,0,0,0,.177.96c.894.883,1.745,1.81,2.73,2.842.687-1.63,1.273-3.044,1.876-4.45q1.5-3.5,3.031-7c.071-.162.379-.383.484-.341,1.145.453,2.272.954,3.463,1.466-1.048,2.486-2.057,4.906-3.088,7.315-.8,1.858-1.622,3.7-2.42,5.558-.075.175-.133.487-.04.584.952,1.005,1.938,1.979,3,3.052.658-1.574,1.247-3.011,1.859-4.44q1.488-3.475,3.012-6.933c.07-.159.381-.374.488-.331,1.108.44,2.2.928,3.291,1.406.035.015.055.065.158.193M893.7,440.565c-3.214,0-4.613.352-7.045,1.911a29.484,29.484,0,0,0-11.514,13.973c-.165.4-.05.6.306.767,1.018.49,1.995,1.085,3.046,1.48a8.16,8.16,0,0,0,8.734-1.367,24.746,24.746,0,0,1,18.472-6.193,23.685,23.685,0,0,1,11.98,4.165c1.091.752,2.1,1.617,3.181,2.392a7.87,7.87,0,0,0,6.674,1.424,34.12,34.12,0,0,0,4.622-1.887c.442-.183.479-.427.31-.867a29.182,29.182,0,0,0-11.281-13.755.814.814,0,0,0-.95-.038,17.463,17.463,0,0,1-7.287,2.051c-2.651.095-5.308.052-7.96.141a4.685,4.685,0,0,1-3.155-1c-.31-.239-.646-.443-.962-.673-2.238-1.623-4.641-2.751-7.172-2.527m21.292,42.786c-.081-.174-.131-.293-.19-.407a23.435,23.435,0,0,1-1.56-18.822c.549-1.668,1.273-3.278,1.929-4.91.138-.342.158-.553-.219-.8a20.8,20.8,0,0,0-15.013-2.885,20.034,20.034,0,0,0-7.285,2.889c-.348.211-.358.414-.221.745.4.963.76,1.942,1.159,2.9a23.514,23.514,0,0,1,.806,17.182c-.484,1.405-1.134,2.753-1.725,4.169a10.174,10.174,0,0,1,4.1,3.369c.47.677.866,1.405,1.3,2.11a3.555,3.555,0,0,0,3.242,1.826c1.523-.005,3.048-.044,4.569.015a3.874,3.874,0,0,0,3.925-2.248,11.141,11.141,0,0,1,4.822-4.893,4.406,4.406,0,0,0,.364-.249m-26.219,3.162c.04.387.051.665.1.936a16.271,16.271,0,0,1-.986,9.588,2.109,2.109,0,0,0,.289,2.344,8.729,8.729,0,0,0,9.425,3.611,8.854,8.854,0,0,0,3.831-2.263,3.248,3.248,0,0,1,4.543-.182c.308.241.6.5.9.756a8.34,8.34,0,0,0,12.26-1.5c2.258-3.271,4.284-6.7,6.391-10.077a.637.637,0,0,0-.129-.607c-.872-.609-1.753-1.216-2.678-1.739a6.433,6.433,0,0,0-6.361-.074,7.381,7.381,0,0,0-3.112,3.322,7.464,7.464,0,0,1-6.109,4.133,56.155,56.155,0,0,1-6.19.1,6.947,6.947,0,0,1-5.368-2.555,18.949,18.949,0,0,1-1.556-2.323,7.227,7.227,0,0,0-5.249-3.468M871.98,503.321c1.034-.106,2.082-.141,3.1-.329a12.22,12.22,0,0,0,9.8-10.25c.622-4.9-.809-9.37-3.252-13.562a1.912,1.912,0,0,0-1.527-.878c-1.041-.13-1.638.57-2.265,1.2q-8.247,8.28-16.485,16.568a11.141,11.141,0,0,0-.857.9,1.9,1.9,0,0,0,.053,2.562,3.967,3.967,0,0,0,1.048.755,23.924,23.924,0,0,0,10.385,3.039m54.13-75.294c-2.086,0-4.062-.017-6.037.009a13.436,13.436,0,0,0-2.074.2,14.044,14.044,0,0,0-9.085,5.5,14.248,14.248,0,0,0-2.9,6.832h.742c1.632,0,3.263.012,4.895,0a14.345,14.345,0,0,0,11.922-6.156,13.831,13.831,0,0,0,2.534-6.379m-28.161-13.642a2.4,2.4,0,0,0-.261.231c-1.572,2-3.137,4.008-4.718,6-.267.336-.111.466.169.65,1,.656,2.036,1.27,2.965,2.016a24.8,24.8,0,0,1,7.446,10.372c.06.148.142.287.307.618a4.867,4.867,0,0,0,.453-1.3,30.975,30.975,0,0,0-.426-7.4,28.152,28.152,0,0,0-2.146-5.787,21.319,21.319,0,0,0-3.79-5.4m-67.719,34.081L828.2,437.28a1.265,1.265,0,0,0-.286.552c-.479,1.668-.972,3.333-1.429,5.007a2.513,2.513,0,0,1-1.87,1.886c-1.649.465-3.293.945-4.94,1.418-.184.053-.37.1-.554.154l.019.149,11.089,2.021m61.081,25.474a11.688,11.688,0,0,0,.03-4.029,1.889,1.889,0,0,0-1.815,1.9,2,2,0,0,0,1.785,2.133m24.926-4.023c0,1.251-.01,2.5.024,3.742,0,.077.383.246.535.2a2,2,0,0,0,1.264-2.248,1.906,1.906,0,0,0-1.823-1.694" transform="translate(-157.545 1073.846)" fill="#161615"/>
      <path id="Trazado_717339" data-name="Trazado 717339" d="M828.583,349.421a11.194,11.194,0,0,1,4.819,1.234.934.934,0,0,0,.755.022,10.271,10.271,0,0,1,13.054,2.825.784.784,0,0,0,.631.263,9.786,9.786,0,0,1,9.268,3.324,2.206,2.206,0,0,0,1.615.776,10.159,10.159,0,0,1,4.582,1.556,4.042,4.042,0,0,0,1.646.524,9.991,9.991,0,0,1,8.465,5.8.592.592,0,0,0,.633.384c7.944,0,15.888.018,23.832-.019a7.526,7.526,0,0,0,5.36-2.354,13.4,13.4,0,0,1,8.745-3.881,5.935,5.935,0,0,1,3.731,10.847c-.253.17-.518.32-.772.488a1.283,1.283,0,0,0-.012,2.348,7.144,7.144,0,0,1,2.6,2.41,5.615,5.615,0,0,1-.156,6.226,5.848,5.848,0,0,1-5.783,2.686,13.278,13.278,0,0,1-8.329-3.758,8.669,8.669,0,0,0-6.335-2.459q-11.328.005-22.657-.006a.919.919,0,0,0-.99.571,9.957,9.957,0,0,1-8.193,5.586,4.385,4.385,0,0,0-2.006.654,11.013,11.013,0,0,1-4.99,1.564.937.937,0,0,0-.6.264,9.793,9.793,0,0,1-6.9,3.763c-.895.113-1.819-.016-2.728.014a1.234,1.234,0,0,0-.684.317c-.261.222-.438.54-.693.772a1.891,1.891,0,0,1-2.184.326,1.951,1.951,0,0,1-1.231-1.843,5.491,5.491,0,0,1,.083-.973,4.286,4.286,0,0,0-3.862-4.754,2.235,2.235,0,0,1-2.38-2.4,4.149,4.149,0,0,0-4.15-3.878,4.1,4.1,0,0,0-4.21,3.873,2.226,2.226,0,0,1-2.3,2.4,4.256,4.256,0,0,0-4,4.06,2.2,2.2,0,0,1-2.513,2.223,10.359,10.359,0,0,1-9.706-8.441,26.092,26.092,0,0,1-.111-3.561,1.252,1.252,0,0,0-.17-.645,10.2,10.2,0,0,1-.19-12.08,1.883,1.883,0,0,0,.3-1.195,10.288,10.288,0,0,1,6.838-11.072,29.329,29.329,0,0,1,3.248-.635,1.145,1.145,0,0,0,.634-.34,10.684,10.684,0,0,1,7.987-3.812m-8.039,8.315c-.53.031-.992.02-1.44.09a6.216,6.216,0,0,0-4.963,7.7,2.6,2.6,0,0,1-.706,2.735,6.193,6.193,0,0,0-.034,8.315,2.845,2.845,0,0,1,.729,2.75,6.277,6.277,0,0,0,3.635,7.25c.528.265.731.2.945-.351a8.292,8.292,0,0,1,5.369-5.049.913.913,0,0,0,.706-.71,8.474,8.474,0,0,1,8.274-5.97,8.2,8.2,0,0,1,7.653,5.974,1.029,1.029,0,0,0,.545.623,8.2,8.2,0,0,1,5.523,5.051,1.145,1.145,0,0,0,.624.569,6.079,6.079,0,0,0,7.211-2.442,2.77,2.77,0,0,1,2.878-1.45,5.175,5.175,0,0,0,3.973-1.143,4.435,4.435,0,0,1,2.868-.966,6.061,6.061,0,0,0,5.952-7.068,9.6,9.6,0,0,1,.022-2.467,6.2,6.2,0,0,0-6.285-7.126,3.33,3.33,0,0,1-2.337-.766,5.682,5.682,0,0,0-4.441-1.317,2.469,2.469,0,0,1-2.518-1.249,6.1,6.1,0,0,0-7.253-2.669c-1.482.415-2.159.143-2.918-1.169a6.269,6.269,0,0,0-9.208-2.123c-1.338.914-1.863.911-3.181-.015a6.1,6.1,0,0,0-8.723,1.548c-.745,1.092-1.579,1.8-2.9,1.448m53.918,16.745h.908c7.158,0,14.315-.01,21.473.006a11.789,11.789,0,0,1,6.035,1.383,33.161,33.161,0,0,1,3.837,2.785,9.291,9.291,0,0,0,5.512,2.073,1.815,1.815,0,0,0,2.011-2.015,1.883,1.883,0,0,0-1.141-1.476,5.406,5.406,0,0,1-3.019-4.577,5.155,5.155,0,0,1,2.957-5.1c1.024-.534,1.347-1.186,1.1-2.092a1.9,1.9,0,0,0-2.055-1.436,8.562,8.562,0,0,0-5.994,2.632,12.977,12.977,0,0,1-9.357,3.633q-10.7.016-21.407,0h-.862Z" transform="translate(-157.526 1102.313)" fill="#161615"/>
      <path id="Trazado_717340" data-name="Trazado 717340" d="M822.626,556.847l-2.557-3.885,3.353-2.233c.64.954,1.268,1.886,1.891,2.82.435.651.883,1.294,1.285,1.964a1.044,1.044,0,0,0,.9.478,2.105,2.105,0,0,0,2.379-1.272c.685-1.231,1.537-2.369,2.32-3.545.094-.142.21-.268.349-.445l3.34,2.229L833.3,556.85c.4.362.807.7,1.18,1.085a5.922,5.922,0,0,1,1.45,6.372,5.489,5.489,0,0,1-4.78,4,26.2,26.2,0,0,1-6.684-.04,5.568,5.568,0,0,1-4.7-4.662,5.879,5.879,0,0,1,2.333-6.279c.153-.12.311-.233.466-.352.015-.012.018-.037.059-.125m5.287,7.486v0h1.11c.392,0,.784.015,1.175,0a2.091,2.091,0,0,0-.065-4.176q-2.154-.015-4.309,0a2.089,2.089,0,0,0-.065,4.175c.717.021,1.436,0,2.154,0" transform="translate(-163.194 1006.507)" fill="#161615"/>
      <path id="Trazado_717341" data-name="Trazado 717341" d="M1035.892,399.157l3.364,2.25-2.583,3.905c.356.317.7.606,1.028.919a5.92,5.92,0,0,1,1.57,6.627,5.639,5.639,0,0,1-5.109,3.954,33.519,33.519,0,0,1-6.045-.03,6.04,6.04,0,0,1-5-4.846,5.944,5.944,0,0,1,2.622-6.338c.07-.05.136-.106.2-.162a.823.823,0,0,0,.072-.118l-2.569-3.9,3.342-2.23c.152.216.3.419.442.629.928,1.393,1.838,2.8,2.794,4.171a1.325,1.325,0,0,0,.773.423,2.092,2.092,0,0,0,2.49-1.273c.749-1.364,1.7-2.616,2.61-3.978m-4.566,13.629c.718,0,1.437.012,2.155,0a2.09,2.09,0,0,0-.016-4.18q-2.122-.011-4.244,0a2.089,2.089,0,0,0-.049,4.178c.717.017,1.436,0,2.154.005" transform="translate(-259.992 1078.641)" fill="#161615"/>
      <path id="Trazado_717342" data-name="Trazado 717342" d="M918.39,437.29l-2.607-3.947,3.33-2.224c.115.145.242.284.345.439.962,1.448,1.93,2.893,2.872,4.354a1.029,1.029,0,0,0,.847.453,2.125,2.125,0,0,0,2.435-1.291c.675-1.235,1.534-2.37,2.318-3.546a5.271,5.271,0,0,1,.344-.419l3.329,2.23-2.586,3.89c.393.359.789.691,1.152,1.055a5.91,5.91,0,0,1,1.432,6.545,5.59,5.59,0,0,1-5.013,3.895,34.947,34.947,0,0,1-6.24-.021,6.039,6.039,0,0,1-4.874-4.76,5.952,5.952,0,0,1,2.59-6.412c.087-.062.172-.127.326-.242m5.289,7.419c.74,0,1.48.017,2.219,0a2.091,2.091,0,0,0-.033-4.176q-2.187-.016-4.374,0a2.089,2.089,0,0,0-.032,4.173c.74.022,1.479,0,2.22.005" transform="translate(-208.756 1063.436)" fill="#161615"/>
      <path id="Trazado_717343" data-name="Trazado 717343" d="M954.846,468.99c2.529-.225,4.933.9,7.171,2.527.317.23.653.435.962.674a4.688,4.688,0,0,0,3.156,1c2.652-.088,5.308-.046,7.96-.14a17.462,17.462,0,0,0,7.287-2.051.814.814,0,0,1,.95.038,29.182,29.182,0,0,1,11.281,13.755c.17.441.133.684-.309.867a34.1,34.1,0,0,1-4.622,1.887,7.87,7.87,0,0,1-6.674-1.424c-1.076-.775-2.09-1.64-3.181-2.392a23.686,23.686,0,0,0-11.98-4.165,24.747,24.747,0,0,0-18.473,6.193,8.158,8.158,0,0,1-8.733,1.367c-1.052-.4-2.029-.991-3.047-1.48-.357-.171-.471-.369-.306-.767A29.485,29.485,0,0,1,947.8,470.9c2.432-1.559,3.83-1.911,7.045-1.911" transform="translate(-218.695 1045.422)" fill="#b20d0d"/>
      <path id="Trazado_717344" data-name="Trazado 717344" d="M991.833,525.1a4.4,4.4,0,0,1-.364.248,11.143,11.143,0,0,0-4.822,4.893,3.875,3.875,0,0,1-3.925,2.249c-1.521-.06-3.046-.02-4.57-.015a3.555,3.555,0,0,1-3.242-1.826c-.429-.7-.825-1.434-1.3-2.11a10.166,10.166,0,0,0-4.1-3.369c.591-1.416,1.242-2.764,1.725-4.17a23.516,23.516,0,0,0-.8-17.182c-.4-.963-.761-1.941-1.16-2.9-.137-.331-.128-.534.221-.745a20.044,20.044,0,0,1,7.285-2.889,20.806,20.806,0,0,1,15.014,2.886c.377.243.356.455.219.8-.656,1.632-1.381,3.243-1.929,4.91a23.436,23.436,0,0,0,1.56,18.821c.059.114.109.233.19.407m-15.355-12.709a5.847,5.847,0,0,0,1.819,4.462,3.324,3.324,0,0,0,4.354.263,5.81,5.81,0,0,0,.709-8.381,3.551,3.551,0,0,0-5.649.241,6.079,6.079,0,0,0-1.233,3.415" transform="translate(-234.39 1032.095)" fill="#fff0c0"/>
      <path id="Trazado_717345" data-name="Trazado 717345" d="M961.35,556.676a7.227,7.227,0,0,1,5.249,3.468,18.9,18.9,0,0,0,1.556,2.323,6.949,6.949,0,0,0,5.368,2.555,56.149,56.149,0,0,0,6.19-.1,7.465,7.465,0,0,0,6.11-4.133,7.378,7.378,0,0,1,3.111-3.322,6.432,6.432,0,0,1,6.361.074c.925.524,1.805,1.13,2.678,1.74a.637.637,0,0,1,.129.607c-2.107,3.375-4.133,6.806-6.391,10.078a8.341,8.341,0,0,1-12.26,1.5c-.3-.252-.591-.515-.9-.755a3.247,3.247,0,0,0-4.543.182,8.851,8.851,0,0,1-3.831,2.263,8.73,8.73,0,0,1-9.425-3.611,2.11,2.11,0,0,1-.289-2.344,16.27,16.27,0,0,0,.986-9.588c-.049-.271-.059-.548-.1-.936" transform="translate(-230.126 1003.683)" fill="#b20d0d"/>
      <path id="Trazado_717346" data-name="Trazado 717346" d="M919.474,566.026a23.919,23.919,0,0,1-10.385-3.039,3.967,3.967,0,0,1-1.048-.755,1.9,1.9,0,0,1-.053-2.562,11.052,11.052,0,0,1,.856-.9q8.24-8.286,16.485-16.568c.627-.629,1.224-1.329,2.265-1.2a1.913,1.913,0,0,1,1.527.878c2.444,4.192,3.875,8.659,3.253,13.562a12.22,12.22,0,0,1-9.8,10.25c-1.02.187-2.067.223-3.1.329m2.575-13.62a3.233,3.233,0,0,0,3.146,3.111,3.128,3.128,0,1,0-.12-6.254,3.148,3.148,0,0,0-3.025,3.143" transform="translate(-205.039 1011.142)" fill="#e8e8e8"/>
      <path id="Trazado_717347" data-name="Trazado 717347" d="M1015.371,445.088a13.831,13.831,0,0,1-2.534,6.379,14.345,14.345,0,0,1-11.922,6.156c-1.632.014-3.263,0-4.895,0h-.742a14.248,14.248,0,0,1,2.9-6.832,14.041,14.041,0,0,1,9.085-5.5,13.516,13.516,0,0,1,2.074-.2c1.975-.026,3.952-.009,6.037-.009" transform="translate(-246.806 1056.785)" fill="#4cf658"/>
      <path id="Trazado_717348" data-name="Trazado 717348" d="M975.236,419.064a21.318,21.318,0,0,1,3.79,5.4,28.167,28.167,0,0,1,2.146,5.786,30.98,30.98,0,0,1,.425,7.4,4.873,4.873,0,0,1-.453,1.3c-.165-.331-.247-.47-.307-.618a24.8,24.8,0,0,0-7.446-10.372c-.929-.746-1.965-1.359-2.965-2.015-.28-.184-.436-.313-.169-.65,1.581-1.994,3.146-4,4.718-6a2.381,2.381,0,0,1,.261-.231" transform="translate(-234.832 1069.168)" fill="#4cf658"/>
      <path id="Trazado_717349" data-name="Trazado 717349" d="M840.584,473.934l-11.089-2.022-.019-.148c.185-.051.37-.1.554-.154,1.647-.473,3.291-.952,4.94-1.418a2.513,2.513,0,0,0,1.87-1.886c.457-1.674.95-3.339,1.429-5.007a1.261,1.261,0,0,1,.286-.552l2.029,11.187" transform="translate(-167.898 1048.379)" fill="#e8e8e8"/>
      <path id="Trazado_717350" data-name="Trazado 717350" d="M965.593,529.04a2,2,0,0,1-1.785-2.132,1.889,1.889,0,0,1,1.815-1.9,11.685,11.685,0,0,1-.03,4.029" transform="translate(-231.827 1018.746)" fill="#fff"/>
      <path id="Trazado_717351" data-name="Trazado 717351" d="M1014.776,525.021a1.905,1.905,0,0,1,1.823,1.694,2,2,0,0,1-1.264,2.248c-.153.046-.533-.123-.535-.2-.034-1.245-.024-2.491-.024-3.742" transform="translate(-256.084 1018.743)" fill="#fff"/>
      <path id="Trazado_717352" data-name="Trazado 717352" d="M824.3,361.483c1.322.349,2.156-.356,2.9-1.448a6.1,6.1,0,0,1,8.723-1.549c1.319.927,1.843.929,3.182.015a6.269,6.269,0,0,1,9.207,2.123c.759,1.312,1.437,1.583,2.918,1.169a6.1,6.1,0,0,1,7.252,2.668A2.469,2.469,0,0,0,861,365.711a5.681,5.681,0,0,1,4.44,1.317,3.331,3.331,0,0,0,2.337.766,6.2,6.2,0,0,1,6.285,7.126,9.607,9.607,0,0,0-.022,2.467,6.061,6.061,0,0,1-5.952,7.068,4.432,4.432,0,0,0-2.868.966,5.175,5.175,0,0,1-3.973,1.143,2.769,2.769,0,0,0-2.877,1.45,6.08,6.08,0,0,1-7.212,2.442,1.144,1.144,0,0,1-.624-.569,8.2,8.2,0,0,0-5.524-5.051,1.029,1.029,0,0,1-.545-.623,8.2,8.2,0,0,0-7.652-5.974,8.475,8.475,0,0,0-8.275,5.97.913.913,0,0,1-.705.71,8.293,8.293,0,0,0-5.369,5.048c-.214.555-.417.616-.945.351a6.277,6.277,0,0,1-3.635-7.249,2.844,2.844,0,0,0-.729-2.75,6.192,6.192,0,0,1,.034-8.315,2.6,2.6,0,0,0,.706-2.735,6.216,6.216,0,0,1,4.963-7.7c.449-.07.91-.059,1.44-.09" transform="translate(-161.279 1098.564)" fill="#8a3d02"/>
      <path id="Trazado_717353" data-name="Trazado 717353" d="M935.1,387.75v-4.179h.862q10.7,0,21.407,0a12.977,12.977,0,0,0,9.357-3.633,8.563,8.563,0,0,1,5.994-2.633,1.9,1.9,0,0,1,2.055,1.436c.245.906-.078,1.558-1.1,2.092a5.154,5.154,0,0,0-2.957,5.1,5.405,5.405,0,0,0,3.019,4.577,1.884,1.884,0,0,1,1.14,1.476A1.815,1.815,0,0,1,972.867,394a9.292,9.292,0,0,1-5.512-2.073,33.132,33.132,0,0,0-3.837-2.785,11.787,11.787,0,0,0-6.035-1.383c-7.157-.016-14.315-.006-21.472-.006Z" transform="translate(-218.167 1089.043)" fill="#f3d67a"/>
      <path id="Trazado_717354" data-name="Trazado 717354" d="M831.7,572.884c-.718,0-1.436.017-2.154,0a2.089,2.089,0,0,1,.065-4.175q2.154-.014,4.309,0a2.091,2.091,0,0,1,.065,4.177c-.391.015-.784,0-1.175,0H831.7Z" transform="translate(-166.985 997.957)" fill="#636363"/>
      <path id="Trazado_717355" data-name="Trazado 717355" d="M1035.094,421.356c-.719,0-1.437.014-2.154,0a2.089,2.089,0,0,1,.049-4.177q2.122-.012,4.244,0a2.091,2.091,0,0,1,.016,4.181c-.718.014-1.436,0-2.154,0" transform="translate(-263.759 1070.068)" fill="#636363"/>
      <path id="Trazado_717356" data-name="Trazado 717356" d="M927.448,453.254c-.741,0-1.48.018-2.22,0a2.089,2.089,0,0,1,.032-4.173q2.186-.02,4.374,0a2.091,2.091,0,0,1,.033,4.176c-.739.021-1.479,0-2.219,0" transform="translate(-212.526 1054.889)" fill="#636363"/>
      <path id="Trazado_717357" data-name="Trazado 717357" d="M983.094,521.921a6.08,6.08,0,0,1,1.232-3.415,3.551,3.551,0,0,1,5.65-.241,5.81,5.81,0,0,1-.709,8.381,3.324,3.324,0,0,1-4.354-.263,5.846,5.846,0,0,1-1.819-4.462" transform="translate(-241.006 1022.569)" fill="#161615"/>
      <path id="Trazado_717358" data-name="Trazado 717358" d="M935.245,559.916a3.148,3.148,0,0,1,3.026-3.143,3.128,3.128,0,1,1-3.026,3.143" transform="translate(-218.235 1003.63)" fill="#161615"/>
    </g>
  </g>
</svg>
