<svg id="Grupo_1018125" data-name="Grupo 1018125" xmlns="http://www.w3.org/2000/svg" xmlns:xlink="http://www.w3.org/1999/xlink" width="172.869" height="172.86" viewBox="0 0 172.869 172.86">
  <defs>
    <clipPath id="clip-path">
      <rect id="Rectángulo_354515" data-name="Rectángulo 354515" width="172.869" height="172.86" fill="none"/>
    </clipPath>
  </defs>
  <g id="Grupo_1018124" data-name="Grupo 1018124" clip-path="url(#clip-path)">
    <path id="Trazado_717472" data-name="Trazado 717472" d="M162.614,178.391a16.643,16.643,0,0,0-.558,16.906,16.926,16.926,0,0,0,26.852,3.957q.491-.491.932-1.012l14.352-16.489L182.518,160.08l-16.472,14.369a17.909,17.909,0,0,0-3.433,3.942" transform="translate(-156.639 -34.715)" fill="#80421f"/>
    <path id="Trazado_717473" data-name="Trazado 717473" d="M148.666,157.61l21.673,21.673,8.888-10.217-.06-.054-20.285-20.285-.009-.009Z" transform="translate(-122.785 -32.251)" fill="#45444b"/>
    <path id="Trazado_717474" data-name="Trazado 717474" d="M80.455,35.926a10.127,10.127,0,1,0,14.32,14.324L123.424,21.6A10.128,10.128,0,0,0,109.1,7.281Z" transform="translate(-14.204 -0.936)" fill="#80421f"/>
    <path id="Trazado_717475" data-name="Trazado 717475" d="M23.357,56.763,35.231,68.637c.023.02.043.042.065.061l19.1,19.1c.02.02.041.041.06.064L66.329,99.735l2.388-2.387L97.354,68.7l2.388-2.387L56.772,23.34l-2.388,2.388L25.736,54.376Z" transform="translate(54.835 -5.061)" fill="#fca543"/>
    <path id="Trazado_717476" data-name="Trazado 717476" d="M125.584,92.637,123.2,90.25a6.753,6.753,0,0,1,9.487-9.612l19.223,19.224a6.752,6.752,0,1,1-9.611,9.487l-2.387-2.387-40.85,46.92-.06-.055L78.713,133.542l-.009-.01Z" transform="translate(-42.622 -17.065)" fill="#80421f"/>
    <path id="Trazado_717477" data-name="Trazado 717477" d="M4.33,208.356v3.376H92.1v-3.376a13.5,13.5,0,0,0-13.5-13.5H17.827a13.5,13.5,0,0,0-13.5,13.5" transform="translate(77.378 -42.255)" fill="#80421f"/>
    <path id="Trazado_717478" data-name="Trazado 717478" d="M21.388,173.3a8.44,8.44,0,1,0-.024,16.879H78.779A8.44,8.44,0,1,0,78.8,173.3H21.388Z" transform="translate(75.507 -37.581)" fill="#80421f"/>
    <path id="Trazado_717479" data-name="Trazado 717479" d="M7.3,109.084A10.127,10.127,0,0,0,21.621,123.4L50.265,94.76a10.127,10.127,0,0,0-14.32-14.324Z" transform="translate(116.244 -16.8)" fill="#80421f"/>
    <path id="Trazado_717480" data-name="Trazado 717480" d="M49.195,74.886a3.376,3.376,0,1,1-4.775,0l0,0a3.372,3.372,0,0,1,4.769,0l0,0" transform="translate(88.671 -16.025)" fill="#040405"/>
    <path id="Trazado_717481" data-name="Trazado 717481" d="M9.057,187.8a11.82,11.82,0,0,1,9.522-18.817H75.973A11.808,11.808,0,0,1,85.489,187.8a16.891,16.891,0,0,1,9.052,14.956v3.376a3.376,3.376,0,0,1-3.376,3.376H3.4A3.376,3.376,0,0,1,.019,206.13v-3.376A16.892,16.892,0,0,1,9.057,187.8m70.5-10.582a5.028,5.028,0,0,0-3.581-1.482H18.581a5.071,5.071,0,0,0-.526,10.128,4.922,4.922,0,0,0,.526,0H75.973a5.071,5.071,0,0,0,3.581-8.647Zm8.235,25.534a10.142,10.142,0,0,0-10.127-10.142H16.893A10.143,10.143,0,0,0,6.771,202.754Z" transform="translate(78.313 -36.646)" fill="#040405"/>
    <path id="Trazado_717482" data-name="Trazado 717482" d="M3.139,141.839a21.256,21.256,0,0,1,4.067-4.669l15.775-13.758a3.353,3.353,0,0,1,1.344-1.17l9.539-8.321L78.02,75.4a10.109,10.109,0,0,1,2.965-16.124L76.9,55.2A13.5,13.5,0,0,1,63.855,32.605l0,0L92.508,3.959A13.5,13.5,0,0,1,115.1,17L155.86,57.759a13.506,13.506,0,0,1,13.053,22.594l-28.66,28.638a13.5,13.5,0,0,1-22.59-13.031l-4.077-4.076a10.13,10.13,0,0,1-16.13,2.96L50.425,148.872a3.358,3.358,0,0,1-.458.572,2.059,2.059,0,0,1-.2.17l-14,16.1c-.349.412-.722.815-1.108,1.2a20.087,20.087,0,0,1-14.271,5.935,20.786,20.786,0,0,1-2.842-.2A20.426,20.426,0,0,1,2.478,162.225a19.975,19.975,0,0,1,.661-20.386m48.687-4.858-15.9-15.9-5.1,4.449,16.557,16.56ZM92.668,90.057,82.8,80.19,41.024,116.636,56.269,131.88ZM106.833,8.723a6.751,6.751,0,0,0-9.546-.011l-.011.011L68.637,37.377a6.755,6.755,0,1,0,9.547,9.557L106.83,18.281a6.759,6.759,0,0,0,0-9.55Zm19.095,95.486a6.761,6.761,0,0,0,9.557,0l28.638-28.637a6.754,6.754,0,1,0-9.546-9.557L125.929,94.672a6.757,6.757,0,0,0,0,9.545ZM149.8,61.243l-38.2-38.19L82.959,51.7l9.457,9.457.094.09L111.6,80.338l.117.121,9.441,9.44ZM104.445,90.89a3.375,3.375,0,0,0,2.429-5.721L87.7,65.992A3.376,3.376,0,0,0,82.959,70.8l2.354,2.358.049.049L99.65,87.5l.02.02,2.378,2.378a3.355,3.355,0,0,0,2.4.993M8.364,158.927a13.735,13.735,0,0,0,10.1,7.055,13.416,13.416,0,0,0,11.414-3.826c.259-.259.509-.531.739-.8l.033-.039L42.944,147.2,25.729,129.984l-14.1,12.287-.033.027a14.542,14.542,0,0,0-2.79,3.2,13.331,13.331,0,0,0-.446,13.425" transform="translate(0 0)" fill="#040405"/>
    <path id="Trazado_717483" data-name="Trazado 717483" d="M56.618,44.405a3.376,3.376,0,0,1,4.775,0L75.716,58.729A3.376,3.376,0,0,1,70.941,63.5L56.618,49.18a3.376,3.376,0,0,1,0-4.775" transform="translate(52.604 -9.415)" fill="#040405"/>
  </g>
</svg>
