<svg xmlns="http://www.w3.org/2000/svg" width="149" height="147.721" viewBox="0 0 149 147.721">
  <g id="Grupo_1018189" data-name="Grupo 1018189" transform="translate(-988 -1357.264)">
    <path id="Trazado_715529" data-name="Trazado 715529" d="M149,98.75c0,40.792-33.355,73.861-74.5,73.861S0,139.541,0,98.75,33.355,24.889,74.5,24.889,149,57.958,149,98.75" transform="translate(988 1332.375)" fill="#f6ad4c"/>
    <g id="Grupo_1018014" data-name="Grupo 1018014" transform="translate(551.969 1.486)">
      <path id="Trazado_717337" data-name="Trazado 717337" d="M35.65,74.814,5.294,123.738S-2.747,154.69,25.2,156.1s40.41,0,40.41,0,24.021-5.026,19.955-26.833C83.33,117.294,54.345,74.814,54.345,74.814l3.385-27.089s-4.314-5.612-10.081,6.048l-4.517.2s-5.673-12.2-11.7-6.9Z" transform="translate(444.924 1334.857)" fill="#b4b0b0"/>
      <path id="Trazado_717403" data-name="Trazado 717403" d="M65.453,82.284c-.687.224-1.181.349-1.647.544-2.524,1.058-5.04,2.134-7.393,3.133.313,2.366.529,4.564.938,6.724a3.335,3.335,0,0,0,1.238,1.586,14.74,14.74,0,0,1,5.564,12.623,8.063,8.063,0,0,1-1.086,2.519,10.837,10.837,0,0,1-1.939-1.607,6.893,6.893,0,0,0-5.326-3.033,14.837,14.837,0,0,1-7.846,8.568,7.451,7.451,0,0,0,3.217,4.821,6.576,6.576,0,0,1,1.142,1.777c-.665.314-1.376.967-1.986.883-2.694-.373-5.358-1.349-8.035-1.355-2.609-.006-5.206,1.009-7.839,1.342-.741.094-1.585-.633-2.383-.984.5-.667.974-1.357,1.508-2,1.137-1.361,2.306-2.7,3.657-4.268a15.615,15.615,0,0,1-8.353-9.118,7.612,7.612,0,0,0-5.554,3.457,5.9,5.9,0,0,1-1.622,1.142c-.371-.627-1.02-1.233-1.069-1.885a14.364,14.364,0,0,1,5.506-12.809,3.307,3.307,0,0,0,1.361-2.762A14.166,14.166,0,0,1,32.839,80.84a6.7,6.7,0,0,1,2.236-.736c.113.718.285,1.433.326,2.155.094,1.7.124,3.4.194,5.538,4.744-1.947,8.941-2.123,13.656.163.134-2.159.218-3.989.377-5.813a12.616,12.616,0,0,1,.454-1.9,5.26,5.26,0,0,1,1.879.614A24.384,24.384,0,0,1,54.3,83.554c2.722-3.6,5.189-6.8,7.556-10.074a1.938,1.938,0,0,0-.118-1.7q-5.11-8.39-10.364-16.691a2.9,2.9,0,0,0-1.819-1.047,20.925,20.925,0,0,0-3.344-.046l3.756,15.48-2.394.457L43.644,54.208c-1.544-.59-2.15.007-2.516,1.344-1.068,3.9-2.235,7.769-3.387,11.734l-2.382-.6L39.013,54a33.132,33.132,0,0,0-3.846.044,2.529,2.529,0,0,0-1.676.952c-9.38,15.145-18.942,30.184-27.982,45.531-8.061,13.685.7,30.878,16.434,33a35.79,35.79,0,0,0,4.7.341q16.342.044,32.684.009a22.49,22.49,0,0,0,22.039-16.325,21.909,21.909,0,0,0-1.11-15.335c-.2-.474-.424-.939-.669-1.481.379-.254.686-.483,1.015-.672.276-.159.578-.274,1.053-.493a22.9,22.9,0,0,1,2.955,14.362c-1.384,11.144-8.364,18.954-19.269,21.72a21.942,21.942,0,0,1-5.254.589q-17.622.075-35.244.02C5.782,136.2-6.26,115.588,3.42,99.155,12.061,84.483,21.211,70.11,30.137,55.606c.274-.446.545-.893.546-.9-1.231-1.61-2.832-2.888-3.309-4.5-.963-3.245,1.544-6.024,5.1-6.059q8.171-.081,16.342.015c1.36.018,1.879-.327,2.179-1.755.979-4.669,2.214-9.283,3.3-13.929.538-2.291.018-2.756-2.3-2.2a6.839,6.839,0,0,0-5.508,5.711c-.47,2.422-.763,4.879-1.156,7.468l-2.379-.293c.237-1.921.452-3.66.684-5.536H41.2c.211,1.814.418,3.591.641,5.5l-2.362.372c-.3-2.126-.6-4.164-.867-6.208-.507-3.95-2.523-6.371-5.971-7.125-2.022-.442-2.609.085-2.166,2.081.752,3.383,1.421,6.8,2.414,10.109.607,2.025-.233,2.309-2.033,2.264-1.034-4.4-2.163-8.826-3.078-13.292a3.268,3.268,0,0,1,3.192-3.7,9.354,9.354,0,0,1,9.122,5.6c.513,1.152.965,1.756,2.366,1.727,1.3-.027,1.7-.592,2.213-1.648,1.732-3.581,4.563-5.674,8.677-5.679,2.571,0,4.09,1.691,3.55,4.2-1.1,5.11-2.358,10.186-3.546,15.278-.058.249-.072.508-.1.741,5.779,3.466,6.017,7,.626,10.372l9.967,16.16.668.117a13.666,13.666,0,0,0,.907-3.387c.062-14.83.039-29.66.042-44.49,0-7.767,4.581-12.364,12.309-12.365q18.212,0,36.425,0c7.294,0,11.9,4.608,11.9,11.9q.006,31.2,0,62.4c0,7.179-4.743,11.9-11.973,11.913q-18.113.02-36.226,0c-7.717,0-12.388-4.635-12.439-12.322,0-.572,0-1.144,0-1.881m-6.747-.42.28.276c2.169-.9,4.327-1.82,6.509-2.685,1.914-.759,2.479-.361,2.534,1.724.027,1.049,0,2.1.007,3.148.033,6.189,3.407,9.568,9.62,9.576,12.07.015,24.141-.128,36.207.058,6.428.1,9.9-4.412,9.879-9.9-.09-20.462-.033-40.924-.037-61.386,0-6.414-3.585-10.022-9.955-10.025q-17.416-.008-34.831,0c-7.828,0-10.885,3.079-10.885,10.964,0,14.56.037,29.12-.061,43.678a7.68,7.68,0,0,1-1.381,4.079c-2.5,3.584-5.24,7.008-7.886,10.493m-26.645,2.9c-.676,1.855-1.974,3.74-1.89,5.56.147,3.2-1.108,5.106-3.516,6.958a7.819,7.819,0,0,0-3.085,6.506q7.75-4.073,12.844.848c3.514,3.387,3.8,7.476.639,14.056,3.563-2.128,6.838-2.251,10.143-.487-2.815-5.517-2.511-9.888.9-13.276,3.6-3.58,7.629-3.823,13.436-.714a11.148,11.148,0,0,0-4.861-8.247,3.857,3.857,0,0,1-1.878-3.878,10.655,10.655,0,0,0-2.342-7.134c-1.756,5.788-5.107,8.723-9.772,8.8-4.859.076-7.992-2.641-10.617-8.987M42.346,51.608c3.274,0,6.549-.011,9.823,0,1.666.008,2.827-.641,2.992-2.4.135-1.442-1.044-2.466-2.876-2.475-6.548-.031-13.1,0-19.645-.021-1.668,0-2.839.615-2.995,2.384-.133,1.506,1.109,2.489,3.075,2.5,3.209.024,6.417.007,9.626.006m4.5,38.051a10.748,10.748,0,0,0-8.676-.072c2.434,2.272,5.81,2.35,8.676.072m1.05,20.867a10.116,10.116,0,0,0,4.729-5.311,6.62,6.62,0,0,0-4.729,5.311m-11.733-.112.417-.378A5.679,5.679,0,0,0,31.4,105.1l4.767,5.317" transform="translate(447.484 1356.365)" fill="#161615"/>
      <path id="Trazado_717404" data-name="Trazado 717404" d="M149.119,85.539c2.646-3.485,5.381-6.908,7.886-10.492a7.688,7.688,0,0,0,1.381-4.079c.1-14.559.06-29.119.061-43.678,0-7.884,3.058-10.963,10.885-10.964q17.416,0,34.831,0c6.371,0,9.955,3.611,9.956,10.025,0,20.462-.053,40.925.037,61.386.024,5.487-3.451,10-9.88,9.9-12.067-.186-24.138-.043-36.207-.057-6.213-.008-9.587-3.387-9.621-9.576-.006-1.049.02-2.1-.007-3.148-.054-2.085-.62-2.483-2.533-1.724-2.181.866-4.34,1.788-6.509,2.685l-.28-.277m61.892-51.63a9.433,9.433,0,0,0-12.69-8.98c-10.227,3.595-20.4,7.332-30.568,11.1a9.612,9.612,0,1,0,6.656,18.033q15.115-5.433,30.181-11a9.375,9.375,0,0,0,6.421-9.155M193.6,65.9c-.716-1.013-1.151-1.669-1.627-2.294-1.076-1.414-2.065-1.4-3.322-.055-2.368,2.536-4.905,4.912-7.338,7.389-1.952,1.988-3.853,4.025-5.785,6.048l-2.005-1.766L171.633,77.2l3.776,3-5.446,5.121-1.356-1.093L166.85,85.6l8.261,8.393,1.676-1.516-1.252-1.665,5.3-5.366,2.951,4.088,1.98-2.057-1.629-1.958c3.954-3.945,7.81-7.776,11.646-11.626,3.768-3.781,3.442-2.912.115-6.415a3.928,3.928,0,0,1-.3-.771l9.826-9.521-1.667-1.712L193.6,65.9" transform="translate(357.071 1352.691)" fill="#b20d0d"/>
      <path id="Trazado_717405" data-name="Trazado 717405" d="M68.317,199.492c2.625,6.346,5.758,9.063,10.617,8.987,4.665-.072,8.016-3.007,9.772-8.8a10.655,10.655,0,0,1,2.342,7.134,3.857,3.857,0,0,0,1.878,3.878,11.147,11.147,0,0,1,4.861,8.247c-5.807-3.11-9.834-2.866-13.436.714-3.409,3.388-3.714,7.759-.9,13.276-3.306-1.764-6.58-1.641-10.143.487,3.165-6.58,2.875-10.669-.639-14.056q-5.107-4.922-12.844-.848a7.818,7.818,0,0,1,3.085-6.506c2.408-1.851,3.663-3.753,3.516-6.958-.083-1.821,1.215-3.7,1.89-5.56m10.4,20.013a4.41,4.41,0,1,0-4.564-4.454,4.57,4.57,0,0,0,4.564,4.454" transform="translate(411.228 1241.633)" fill="#ffc403"/>
      <path id="Trazado_717406" data-name="Trazado 717406" d="M87.988,107.747c-3.209,0-6.418.018-9.626-.006-1.966-.015-3.208-1-3.075-2.5.156-1.768,1.327-2.388,2.995-2.383,6.548.017,13.1-.011,19.645.021,1.832.009,3.011,1.033,2.876,2.475-.165,1.761-1.326,2.41-2.992,2.4-3.274-.015-6.549,0-9.823,0" transform="translate(401.842 1300.227)" fill="#665e5e"/>
      <path id="Trazado_717407" data-name="Trazado 717407" d="M105.631,210.473c-2.866,2.278-6.242,2.2-8.676-.072a10.748,10.748,0,0,1,8.676.072" transform="translate(388.699 1235.551)" fill="#8d0a0a"/>
      <path id="Trazado_717408" data-name="Trazado 717408" d="M121.66,256.763a6.62,6.62,0,0,1,4.729-5.311,10.116,10.116,0,0,1-4.729,5.311" transform="translate(373.719 1210.128)" fill="#8d0a0a"/>
      <path id="Trazado_717409" data-name="Trazado 717409" d="M84.515,256.469l-4.767-5.317a5.679,5.679,0,0,1,5.184,4.938l-.417.378" transform="translate(399.131 1210.31)" fill="#8d0a0a"/>
      <path id="Trazado_717410" data-name="Trazado 717410" d="M229.8,46.28a9.375,9.375,0,0,1-6.421,9.155q-15.068,5.559-30.18,11A9.612,9.612,0,1,1,186.544,48.4c10.164-3.77,20.342-7.508,30.568-11.1a9.433,9.433,0,0,1,12.69,8.98M194.651,63.171,189.835,50c-3.754.848-6.5,2.622-7.114,6.514a6.662,6.662,0,0,0,2.82,6.684c2.958,2.182,6,1.574,9.11-.028M220.19,53.84c3.714-.888,6.5-2.6,7.112-6.5a6.687,6.687,0,0,0-2.938-6.819c-2.925-2.068-5.895-1.488-8.959.156L220.19,53.84m-7.251-12.4L192.207,49l1.17,2.963L214,44.444l-1.063-3m3.8,10.442c-6.231,2.278-12.233,4.47-18.233,6.668-2.734,1-2.763,1.1-1.124,3.71l20.389-7.437-1.032-2.941m-22.582,2.446,1.068,2.739,20.649-7.522-1-2.748-20.717,7.532" transform="translate(338.279 1340.319)" fill="#161615"/>
      <path id="Trazado_717411" data-name="Trazado 717411" d="M220.905,126.194l10.157-10.422,1.666,1.712L222.9,127a3.92,3.92,0,0,0,.3.771c3.328,3.5,3.653,2.635-.114,6.415-3.837,3.85-7.693,7.681-11.646,11.626l1.629,1.958-1.98,2.057-2.951-4.088-5.3,5.366,1.252,1.665-1.676,1.516-8.261-8.393,1.756-1.375,1.356,1.093,5.446-5.121-3.776-3,1.889-1.977,2,1.766c1.932-2.024,3.833-4.061,5.785-6.048,2.433-2.476,4.97-4.853,7.338-7.389,1.257-1.346,2.246-1.359,3.322.055.476.625.911,1.281,1.627,2.294m-3.184-.031-12.714,12.684,4.388,4.875,12.9-12.792-4.57-4.768m-17.078,22.971,5.045-5.267-1.2-1.133-5,5.023,1.161,1.377" transform="translate(329.763 1292.393)" fill="#161615"/>
      <path id="Trazado_717412" data-name="Trazado 717412" d="M100.825,236.746a4.411,4.411,0,1,1,4.45-4.37,4.556,4.556,0,0,1-4.45,4.37m2.629-4.365c-1.157-.894-1.765-1.69-2.521-1.872a1.5,1.5,0,0,0-1.964,1.718,2.986,2.986,0,0,0,1.843,1.964c.556.133,1.392-.9,2.642-1.811" transform="translate(389.119 1224.392)" fill="#161615"/>
      <path id="Trazado_717413" data-name="Trazado 717413" d="M198.52,83.612c-3.106,1.6-6.152,2.209-9.11.028a6.663,6.663,0,0,1-2.82-6.684c.618-3.893,3.36-5.666,7.114-6.514l4.816,13.171" transform="translate(334.41 1319.878)" fill="#a03d3d"/>
      <path id="Trazado_717414" data-name="Trazado 717414" d="M274.546,57.639l-4.785-13.162c3.064-1.645,6.033-2.224,8.959-.156a6.686,6.686,0,0,1,2.938,6.819c-.61,3.9-3.4,5.612-7.112,6.5" transform="translate(283.923 1336.521)" fill="#a03d3d"/>
      <path id="Trazado_717415" data-name="Trazado 717415" d="M231.566,48.7l1.063,3L212,59.221l-1.17-2.963L231.566,48.7" transform="translate(319.652 1333.062)" fill="#abffff"/>
      <path id="Trazado_717416" data-name="Trazado 717416" d="M241.627,75.222l1.032,2.941L222.269,85.6c-1.639-2.613-1.611-2.709,1.124-3.71,6-2.2,12-4.389,18.233-6.667" transform="translate(313.39 1316.979)" fill="#abffff"/>
      <path id="Trazado_717417" data-name="Trazado 717417" d="M215.784,69.835,236.5,62.3l1,2.748-20.649,7.522-1.068-2.739" transform="translate(316.65 1324.813)" fill="#03a4a4"/>
      <path id="Trazado_717418" data-name="Trazado 717418" d="M234.431,142.165l4.57,4.768-12.9,12.792-4.388-4.875,12.714-12.684" transform="translate(313.053 1276.391)" fill="#abffff"/>
      <path id="Trazado_717419" data-name="Trazado 717419" d="M208.843,190.659l-1.161-1.377,5-5.023,1.2,1.133-5.045,5.267" transform="translate(321.563 1250.869)" fill="#06d1d1"/>
      <path id="Trazado_717420" data-name="Trazado 717420" d="M107.576,236.27c-1.25.906-2.086,1.943-2.642,1.811a2.986,2.986,0,0,1-1.843-1.964,1.5,1.5,0,0,1,1.964-1.718c.755.182,1.363.978,2.521,1.872" transform="translate(384.997 1220.504)" fill="#8d0a0a"/>
    </g>
  </g>
</svg>
