<svg xmlns="http://www.w3.org/2000/svg" xmlns:xlink="http://www.w3.org/1999/xlink" width="820" height="695.308" viewBox="0 0 820 695.308">
  <defs>
    <linearGradient id="linear-gradient" x1="0.061" y1="0.939" x2="0.085" y2="0.939" gradientUnits="objectBoundingBox">
      <stop offset="0" stop-color="#413684"/>
      <stop offset="1" stop-color="#0d7da8"/>
    </linearGradient>
    <linearGradient id="linear-gradient-2" x1="0.5" x2="0.5" y2="1" gradientUnits="objectBoundingBox">
      <stop offset="0" stop-color="#ffc403"/>
      <stop offset="1" stop-color="#eab200"/>
    </linearGradient>
    <linearGradient id="linear-gradient-3" x1="0.526" y1="0.126" x2="0.48" y2="0.893" gradientUnits="objectBoundingBox">
      <stop offset="0" stop-color="#fff0c0"/>
      <stop offset="0" stop-color="#5ac3a6"/>
      <stop offset="0" stop-color="#f7df93"/>
      <stop offset="1" stop-color="#ffe8a0"/>
    </linearGradient>
    <radialGradient id="radial-gradient" cx="0.5" cy="0.5" r="0.443" gradientTransform="translate(-0.085 0.102) rotate(-10.775)" gradientUnits="objectBoundingBox">
      <stop offset="0" stop-color="#fff0c0"/>
      <stop offset="1" stop-color="#fad86b"/>
    </radialGradient>
    <radialGradient id="radial-gradient-2" cx="0.5" cy="0.241" r="0.611" gradientTransform="matrix(0, 1, 1, 0, -3.134, 3.134)" gradientUnits="objectBoundingBox">
      <stop offset="0" stop-color="#5dc6a8"/>
      <stop offset="0" stop-color="#ffdbdb"/>
      <stop offset="1" stop-color="#ffacac"/>
    </radialGradient>
    <radialGradient id="radial-gradient-3" cx="0.5" cy="0.5" r="0.5" gradientUnits="objectBoundingBox">
      <stop offset="0" stop-color="#eea3a3"/>
      <stop offset="1" stop-color="#ffdbdb"/>
    </radialGradient>
    <radialGradient id="radial-gradient-4" cx="0.5" cy="0.241" r="0.611" gradientTransform="matrix(0, 1, 1, 0, -3.134, 3.134)" gradientUnits="objectBoundingBox">
      <stop offset="0" stop-color="#5dc6a8"/>
      <stop offset="0" stop-color="#abffff"/>
      <stop offset="1" stop-color="#06d1d1"/>
    </radialGradient>
    <radialGradient id="radial-gradient-5" cx="0.5" cy="0.5" r="0.5" gradientUnits="objectBoundingBox">
      <stop offset="0" stop-color="#abffff"/>
      <stop offset="1" stop-color="#06d1d1"/>
    </radialGradient>
    <radialGradient id="radial-gradient-6" cx="0.5" cy="0.5" r="0.5" gradientUnits="objectBoundingBox">
      <stop offset="0" stop-color="#d69c27"/>
      <stop offset="1" stop-color="#ffa800"/>
    </radialGradient>
    <radialGradient id="radial-gradient-7" cx="0.5" cy="0.5" r="0.5" gradientUnits="objectBoundingBox">
      <stop offset="0" stop-color="#ffcf8f"/>
      <stop offset="1" stop-color="#ff9100"/>
    </radialGradient>
    <radialGradient id="radial-gradient-8" cx="0.5" cy="0.5" r="0.5" gradientUnits="objectBoundingBox">
      <stop offset="0" stop-color="#a1ff25"/>
      <stop offset="1" stop-color="#518013"/>
    </radialGradient>
    <clipPath id="clip-path">
      <path id="Trazado_717443" data-name="Trazado 717443" d="M73.681,0a73.683,73.683,0,1,0,73.685,73.685A73.683,73.683,0,0,0,73.681,0Z" fill="none"/>
    </clipPath>
    <radialGradient id="radial-gradient-10" cx="0.486" cy="0.281" r="0.527" gradientTransform="matrix(0, 1, 1, 0, -0.753, 0.753)" gradientUnits="objectBoundingBox">
      <stop offset="0" stop-color="#0080b2"/>
      <stop offset="1" stop-color="#413684"/>
    </radialGradient>
    <clipPath id="clip-path-2">
      <path id="Trazado_717444" data-name="Trazado 717444" d="M2.875,64.871A61.995,61.995,0,1,0,64.87,2.876,62.065,62.065,0,0,0,2.875,64.871" transform="translate(-2.875 -2.876)" fill="url(#linear-gradient)"/>
    </clipPath>
    <clipPath id="clip-path-3">
      <path id="Trazado_717445" data-name="Trazado 717445" d="M135.643,0a75.787,75.787,0,1,0,75.789,75.789A75.787,75.787,0,0,0,135.643,0Z" transform="translate(-59.858)" fill="none"/>
    </clipPath>
    <radialGradient id="radial-gradient-11" cx="0.494" cy="0.268" r="0.562" gradientTransform="matrix(0, 1, 1, 0, -1.952, 1.952)" gradientUnits="objectBoundingBox">
      <stop offset="0" stop-color="#fff23a"/>
      <stop offset="0.281" stop-color="#facc3b"/>
      <stop offset="0.583" stop-color="#f5ab3d"/>
      <stop offset="0.833" stop-color="#f2963e"/>
      <stop offset="1" stop-color="#f28f3f"/>
    </radialGradient>
    <clipPath id="clip-path-4">
      <path id="Trazado_717446" data-name="Trazado 717446" d="M62.734,66.641A63.765,63.765,0,1,0,126.5,2.876,63.835,63.835,0,0,0,62.734,66.641" transform="translate(-62.734 -2.876)" fill="url(#linear-gradient-2)"/>
    </clipPath>
    <clipPath id="clip-path-5">
      <path id="Trazado_717447" data-name="Trazado 717447" d="M195.5,0A75.787,75.787,0,1,0,271.29,75.789,75.787,75.787,0,0,0,195.5,0Z" transform="translate(-119.716)" fill="url(#linear-gradient-3)"/>
    </clipPath>
    <clipPath id="clip-path-6">
      <path id="Trazado_717448" data-name="Trazado 717448" d="M122.591,66.641A63.765,63.765,0,1,0,186.356,2.876a63.84,63.84,0,0,0-63.765,63.765" transform="translate(-122.591 -2.876)" fill="url(#radial-gradient)"/>
    </clipPath>
    <clipPath id="clip-path-7">
      <path id="Trazado_717447-2" data-name="Trazado 717447" d="M201.572,0a81.859,81.859,0,1,0,81.861,81.861A81.859,81.859,0,0,0,201.572,0Z" transform="translate(-119.716)" fill="url(#radial-gradient-2)"/>
    </clipPath>
    <clipPath id="clip-path-8">
      <path id="Trazado_717448-2" data-name="Trazado 717448" d="M122.591,71.75A68.874,68.874,0,1,0,191.465,2.876,68.954,68.954,0,0,0,122.591,71.75" transform="translate(-122.591 -2.876)" fill="url(#radial-gradient-3)"/>
    </clipPath>
    <clipPath id="clip-path-15">
      <path id="Trazado_717447-6" data-name="Trazado 717447" d="M195.5,0A75.787,75.787,0,1,0,271.29,75.789,75.787,75.787,0,0,0,195.5,0Z" transform="translate(-119.716)" fill="none"/>
    </clipPath>
    <radialGradient id="radial-gradient-21" cx="0.5" cy="0.241" r="0.611" gradientTransform="matrix(0, 1, 1, 0, -3.134, 3.134)" gradientUnits="objectBoundingBox">
      <stop offset="0" stop-color="#5dc6a8"/>
      <stop offset="0.029" stop-color="#5dc6a8"/>
      <stop offset="1" stop-color="#008c84"/>
    </radialGradient>
    <clipPath id="clip-path-16">
      <path id="Trazado_717448-6" data-name="Trazado 717448" d="M122.591,66.641A63.765,63.765,0,1,0,186.356,2.876a63.84,63.84,0,0,0-63.765,63.765" transform="translate(-122.591 -2.876)" fill="none"/>
    </clipPath>
    <linearGradient id="linear-gradient-7" x1="-2.78" y1="0.931" x2="-2.756" y2="0.931" gradientUnits="objectBoundingBox">
      <stop offset="0" stop-color="#008c84"/>
      <stop offset="0.971" stop-color="#5dc6a8"/>
      <stop offset="1" stop-color="#5dc6a8"/>
    </linearGradient>
  </defs>
  <g id="Grupo_1018087" data-name="Grupo 1018087" transform="translate(-397 -4073)">
    <g id="Grupo_1018068" data-name="Grupo 1018068" transform="translate(969.353 4595.272)">
      <g id="Grupo_1018057" data-name="Grupo 1018057">
        <g id="Grupo_1018056" data-name="Grupo 1018056" clip-path="url(#clip-path)">
          <rect id="Rectángulo_354445" data-name="Rectángulo 354445" width="195.625" height="195.625" transform="matrix(0.908, -0.42, 0.42, 0.908, -56.161, 25.983)" fill="url(#radial-gradient-10)"/>
        </g>
      </g>
      <g id="Grupo_1018059" data-name="Grupo 1018059" transform="translate(11.686 11.69)">
        <g id="Grupo_1018058" data-name="Grupo 1018058" clip-path="url(#clip-path-2)">
          <rect id="Rectángulo_354446" data-name="Rectángulo 354446" width="167.722" height="167.722" transform="matrix(0.883, -0.47, 0.47, 0.883, -51.445, 27.398)" fill="url(#linear-gradient)"/>
        </g>
      </g>
    </g>
    <g id="Grupo_1018067" data-name="Grupo 1018067" transform="translate(1065.426 4391.883)">
      <g id="Grupo_1018061" data-name="Grupo 1018061" transform="translate(0)">
        <g id="Grupo_1018060" data-name="Grupo 1018060" clip-path="url(#clip-path-3)">
          <rect id="Rectángulo_354447" data-name="Rectángulo 354447" width="205.832" height="205.832" transform="translate(-63.97 35.147) rotate(-28.787)" fill="url(#radial-gradient-11)"/>
        </g>
      </g>
      <g id="Grupo_1018063" data-name="Grupo 1018063" transform="translate(12.024 12.024)">
        <g id="Grupo_1018062" data-name="Grupo 1018062" clip-path="url(#clip-path-4)">
          <rect id="Rectángulo_354448" data-name="Rectángulo 354448" width="173.026" height="173.026" transform="translate(-53.611 29.241) rotate(-28.611)" fill="url(#linear-gradient-2)"/>
        </g>
      </g>
    </g>
    <g id="Grupo_1018064" data-name="Grupo 1018064" transform="translate(974.463 4181.338)" clip-path="url(#clip-path-5)">
      <rect id="Rectángulo_354449" data-name="Rectángulo 354449" width="208.069" height="208.069" transform="translate(-67.024 40.41) rotate(-31.087)" fill="url(#linear-gradient-3)"/>
    </g>
    <g id="Grupo_1018066" data-name="Grupo 1018066" transform="translate(986.728 4193.603)" clip-path="url(#clip-path-6)">
      <rect id="Rectángulo_354450" data-name="Rectángulo 354450" width="175.7" height="175.7" transform="translate(-57.267 35.719) rotate(-31.954)" fill="url(#radial-gradient)"/>
    </g>
    <g id="Grupo_1018070" data-name="Grupo 1018070" transform="translate(754.72 4073)">
      <g id="Grupo_1018064-2" data-name="Grupo 1018064" clip-path="url(#clip-path-7)">
        <rect id="Rectángulo_354449-2" data-name="Rectángulo 354449" width="224.739" height="224.739" transform="translate(-72.394 43.647) rotate(-31.087)" fill="url(#radial-gradient-2)"/>
      </g>
      <g id="Grupo_1018066-2" data-name="Grupo 1018066" transform="translate(12.983 12.987)" clip-path="url(#clip-path-8)">
        <rect id="Rectángulo_354450-2" data-name="Rectángulo 354450" width="189.776" height="189.776" transform="translate(-61.855 38.581) rotate(-31.954)" fill="url(#radial-gradient-3)"/>
      </g>
    </g>
    <g id="Grupo_1018072" data-name="Grupo 1018072" transform="translate(458.323 4406.191)">
      <g id="Grupo_1018064-3" data-name="Grupo 1018064" transform="translate(0)" clip-path="url(#clip-path-5)">
        <rect id="Rectángulo_354449-3" data-name="Rectángulo 354449" width="208.069" height="208.069" transform="translate(-67.024 40.41) rotate(-31.087)" fill="url(#radial-gradient-4)"/>
      </g>
      <g id="Grupo_1018066-3" data-name="Grupo 1018066" transform="translate(12.02 12.024)" clip-path="url(#clip-path-6)">
        <rect id="Rectángulo_354450-3" data-name="Rectángulo 354450" width="175.7" height="175.7" transform="translate(-57.267 35.719) rotate(-31.954)" fill="url(#radial-gradient-5)"/>
      </g>
    </g>
    <g id="Grupo_1018073" data-name="Grupo 1018073" transform="translate(548.265 4616.734)">
      <g id="Grupo_1018064-4" data-name="Grupo 1018064" clip-path="url(#clip-path-5)">
        <rect id="Rectángulo_354449-4" data-name="Rectángulo 354449" width="208.069" height="208.069" transform="translate(-67.024 40.41) rotate(-31.087)" fill="url(#radial-gradient-6)"/>
      </g>
      <g id="Grupo_1018066-4" data-name="Grupo 1018066" transform="translate(12.02 12.024)" clip-path="url(#clip-path-6)">
        <rect id="Rectángulo_354450-4" data-name="Rectángulo 354450" width="175.7" height="175.7" transform="translate(-57.267 35.719) rotate(-31.954)" fill="url(#radial-gradient-7)"/>
      </g>
    </g>
    <g id="Grupo_1018074" data-name="Grupo 1018074" transform="translate(757.981 4462.487)">
      <g id="Grupo_1018064-5" data-name="Grupo 1018064" transform="translate(0)" clip-path="url(#clip-path-5)">
        <rect id="Rectángulo_354449-5" data-name="Rectángulo 354449" width="208.069" height="208.069" transform="translate(-67.024 40.41) rotate(-31.087)" fill="url(#radial-gradient-8)"/>
      </g>
      <g id="Grupo_1018066-5" data-name="Grupo 1018066" transform="translate(12.02 12.024)" clip-path="url(#clip-path-6)">
        <rect id="Rectángulo_354450-5" data-name="Rectángulo 354450" width="175.7" height="175.7" transform="translate(-57.267 35.719) rotate(-31.954)" fill="url(#radial-gradient-8)"/>
      </g>
    </g>
    <g id="Grupo_1018075" data-name="Grupo 1018075" transform="translate(545.198 4197.691)">
      <g id="Grupo_1018064-6" data-name="Grupo 1018064" transform="translate(0)" clip-path="url(#clip-path-15)">
        <rect id="Rectángulo_354449-6" data-name="Rectángulo 354449" width="208.069" height="208.069" transform="translate(-67.024 40.41) rotate(-31.087)" fill="url(#radial-gradient-21)"/>
      </g>
      <g id="Grupo_1018066-6" data-name="Grupo 1018066" transform="translate(12.02 12.024)" clip-path="url(#clip-path-16)">
        <rect id="Rectángulo_354450-6" data-name="Rectángulo 354450" width="175.7" height="175.7" transform="translate(-57.267 35.719) rotate(-31.954)" fill="url(#linear-gradient-7)"/>
      </g>
    </g>
    <g id="Grupo_1018077" data-name="Grupo 1018077" transform="translate(1137.889 4376.849) rotate(159)">
      <g id="Grupo_1018076" data-name="Grupo 1018076" transform="translate(0 0)">
        <path id="Trazado_717449" data-name="Trazado 717449" d="M27.252,0,0,31.1H15.544V54.516H38.961V31.1H54.5Z" fill="#b20d0d"/>
        <path id="Trazado_717450" data-name="Trazado 717450" d="M0,23.332H5.854V4.161L0,0Z" transform="translate(15.544 31.185)" fill="#8d0a0a"/>
        <path id="Trazado_717451" data-name="Trazado 717451" d="M27.252,0,0,31.185H5.86L30.178,3.351Z" fill="#8d0a0a"/>
      </g>
    </g>
    <g id="Grupo_1018078" data-name="Grupo 1018078" transform="translate(1109.436 4606.21) rotate(-156)">
      <g id="Grupo_1018076-2" data-name="Grupo 1018076" transform="translate(0 0)">
        <path id="Trazado_717449-2" data-name="Trazado 717449" d="M27.252,0,0,31.1H15.544V54.516H38.961V31.1H54.5Z" fill="#b20d0d"/>
        <path id="Trazado_717450-2" data-name="Trazado 717450" d="M0,23.332H5.854V4.161L0,0Z" transform="translate(15.544 31.185)" fill="#8d0a0a"/>
        <path id="Trazado_717451-2" data-name="Trazado 717451" d="M27.252,0,0,31.185H5.86L30.178,3.351Z" fill="#8d0a0a"/>
      </g>
    </g>
    <g id="Grupo_1018080" data-name="Grupo 1018080" transform="translate(985.169 4591.219) rotate(135)">
      <g id="Grupo_1018076-3" data-name="Grupo 1018076" transform="translate(0 0)">
        <path id="Trazado_717449-3" data-name="Trazado 717449" d="M27.252,0,0,36.578H15.544V64.124H38.961V36.578H54.5Z" fill="#b20d0d"/>
        <path id="Trazado_717450-3" data-name="Trazado 717450" d="M0,23.332H5.854V4.161L0,0Z" transform="translate(15.544 40.793)" fill="#8d0a0a"/>
        <path id="Trazado_717451-3" data-name="Trazado 717451" d="M27.252,0,0,31.185H5.86L30.178,3.351Z" fill="#8d0a0a"/>
      </g>
    </g>
    <g id="Grupo_1018082" data-name="Grupo 1018082" transform="translate(540.666 4554.328) rotate(-15)">
      <g id="Grupo_1018076-4" data-name="Grupo 1018076" transform="translate(0 0)">
        <path id="Trazado_717449-4" data-name="Trazado 717449" d="M27.252,0,0,36.578H15.544V64.124H38.961V36.578H54.5Z" fill="#b20d0d"/>
        <path id="Trazado_717450-4" data-name="Trazado 717450" d="M0,23.332H5.854V4.161L0,0Z" transform="translate(15.544 40.793)" fill="#8d0a0a"/>
        <path id="Trazado_717451-4" data-name="Trazado 717451" d="M27.252,0,0,31.185H5.86L30.178,3.351Z" fill="#8d0a0a"/>
      </g>
    </g>
    <g id="Grupo_1018083" data-name="Grupo 1018083" transform="matrix(0.961, 0.276, -0.276, 0.961, 543.989, 4333.056)">
      <g id="Grupo_1018076-5" data-name="Grupo 1018076" transform="translate(0 0)">
        <path id="Trazado_717449-5" data-name="Trazado 717449" d="M27.252,0,0,36.578H15.544V64.124H38.961V36.578H54.5Z" fill="#b20d0d"/>
        <path id="Trazado_717450-5" data-name="Trazado 717450" d="M0,23.332H5.854V4.161L0,0Z" transform="translate(15.544 40.793)" fill="#8d0a0a"/>
        <path id="Trazado_717451-5" data-name="Trazado 717451" d="M27.252,0,0,31.185H5.86L30.178,3.351Z" fill="#8d0a0a"/>
      </g>
    </g>
    <g id="Grupo_1018084" data-name="Grupo 1018084" transform="matrix(0.485, 0.875, -0.875, 0.485, 746.862, 4180.745)">
      <g id="Grupo_1018076-6" data-name="Grupo 1018076" transform="translate(0 0)">
        <path id="Trazado_717449-6" data-name="Trazado 717449" d="M27.252,0,0,36.578H15.544V64.124H38.961V36.578H54.5Z" fill="#b20d0d"/>
        <path id="Trazado_717450-6" data-name="Trazado 717450" d="M0,23.332H5.854V4.161L0,0Z" transform="translate(15.544 40.793)" fill="#8d0a0a"/>
        <path id="Trazado_717451-6" data-name="Trazado 717451" d="M27.252,0,0,31.185H5.86L30.178,3.351Z" fill="#8d0a0a"/>
      </g>
    </g>
    <g id="Grupo_1018085" data-name="Grupo 1018085" transform="translate(992.339 4189.914) rotate(120)">
      <g id="Grupo_1018076-7" data-name="Grupo 1018076" transform="translate(0 0)">
        <path id="Trazado_717449-7" data-name="Trazado 717449" d="M27.252,0,0,36.578H15.544V64.124H38.961V36.578H54.5Z" fill="#b20d0d"/>
        <path id="Trazado_717450-7" data-name="Trazado 717450" d="M0,23.332H5.854V4.161L0,0Z" transform="translate(15.544 40.793)" fill="#8d0a0a"/>
        <path id="Trazado_717451-7" data-name="Trazado 717451" d="M27.252,0,0,31.185H5.86L30.178,3.351Z" fill="#8d0a0a"/>
      </g>
    </g>
    <g id="Grupo_1018079" data-name="Grupo 1018079" transform="translate(967.628 4511.528) rotate(-93)">
      <g id="Grupo_1018076-8" data-name="Grupo 1018076" transform="translate(0 0)">
        <path id="Trazado_717449-8" data-name="Trazado 717449" d="M27.252,0,0,31.1H15.544l.428,52.048H39.389L38.961,31.1H54.5Z" fill="#b20d0d"/>
        <path id="Trazado_717450-8" data-name="Trazado 717450" d="M0,51.1H5.854L6.2,4.161.346,0Z" transform="translate(15.198 31.185)" fill="#8d0a0a"/>
        <path id="Trazado_717451-8" data-name="Trazado 717451" d="M27.252,0,0,31.185H5.86L30.178,3.351Z" fill="#8d0a0a"/>
      </g>
    </g>
    <g id="Grupo_1018081" data-name="Grupo 1018081" transform="matrix(-0.656, -0.755, 0.755, -0.656, 698.608, 4644.88)">
      <g id="Grupo_1018076-9" data-name="Grupo 1018076" transform="translate(0 0)">
        <path id="Trazado_717449-9" data-name="Trazado 717449" d="M27.252,0,0,31.1H15.544l.428,52.048H39.389L38.961,31.1H54.5Z" fill="#b20d0d"/>
        <path id="Trazado_717450-9" data-name="Trazado 717450" d="M0,51.1H5.854L6.2,4.161.346,0Z" transform="translate(15.198 31.185)" fill="#8d0a0a"/>
        <path id="Trazado_717451-9" data-name="Trazado 717451" d="M27.252,0,0,31.185H5.86L30.178,3.351Z" fill="#8d0a0a"/>
      </g>
    </g>
    <path id="Trazado_717587" data-name="Trazado 717587" d="M21.033,15.418a4.96,4.96,0,0,1-2.083,1.274,8.984,8.984,0,0,1-3.006.483,5.36,5.36,0,0,1-4.017-1.538,6.226,6.226,0,0,1-1.608-4.28L10.31,10.25a7.637,7.637,0,0,1,.668-3.3A4.96,4.96,0,0,1,12.89,4.779a5.407,5.407,0,0,1,2.878-.76,5.669,5.669,0,0,1,3.713,1.094,4.637,4.637,0,0,1,1.542,3.265H18.053a2.426,2.426,0,0,0-.686-1.529,2.212,2.212,0,0,0-1.494-.457,2.013,2.013,0,0,0-1.793.984,5.256,5.256,0,0,0-.642,2.813v.773a5.145,5.145,0,0,0,.655,2.878,2.316,2.316,0,0,0,2.061.962,2.592,2.592,0,0,0,1.793-.536V12.28H15.8V10.162h5.229Zm6.258,1.758a4.889,4.889,0,0,1-3.542-1.305,4.507,4.507,0,0,1-1.354-3.4v-.246a5.84,5.84,0,0,1,.541-2.575,3.955,3.955,0,0,1,1.578-1.727,4.763,4.763,0,0,1,2.461-.611,4.117,4.117,0,0,1,3.164,1.244,4.887,4.887,0,0,1,1.16,3.467v1.151H25.41a2.135,2.135,0,0,0,.694,1.257,2.066,2.066,0,0,0,1.389.457,2.662,2.662,0,0,0,2.2-.984l1.354,1.6a3.784,3.784,0,0,1-1.569,1.217A5.3,5.3,0,0,1,27.291,17.176ZM26.957,9.6q-1.3,0-1.547,1.723H28.4v-.229a1.467,1.467,0,0,0-.36-1.1A1.434,1.434,0,0,0,26.957,9.6ZM35.21,7.49l.1,1.116a3.225,3.225,0,0,1,2.716-1.292,2.713,2.713,0,0,1,2.219.888A4.226,4.226,0,0,1,41,10.874V17H38.031V11a1.6,1.6,0,0,0-.29-1.059A1.342,1.342,0,0,0,36.686,9.6a1.413,1.413,0,0,0-1.292.686V17H32.432V7.49Zm12.032,9.686A4.889,4.889,0,0,1,43.7,15.871a4.507,4.507,0,0,1-1.354-3.4v-.246a5.84,5.84,0,0,1,.541-2.575,3.955,3.955,0,0,1,1.578-1.727,4.763,4.763,0,0,1,2.461-.611,4.117,4.117,0,0,1,3.164,1.244,4.887,4.887,0,0,1,1.16,3.467v1.151H45.361a2.135,2.135,0,0,0,.694,1.257,2.066,2.066,0,0,0,1.389.457,2.662,2.662,0,0,0,2.2-.984l1.354,1.6a3.784,3.784,0,0,1-1.569,1.217A5.3,5.3,0,0,1,47.242,17.176ZM46.908,9.6q-1.3,0-1.547,1.723h2.988v-.229a1.467,1.467,0,0,0-.36-1.1A1.434,1.434,0,0,0,46.908,9.6Zm11.285.571-.976-.07a1.752,1.752,0,0,0-1.793.879V17H52.462V7.49H55.24l.1,1.222a2.294,2.294,0,0,1,2.083-1.4,2.888,2.888,0,0,1,.826.105ZM64.354,17a3.344,3.344,0,0,1-.281-.853,2.754,2.754,0,0,1-2.285,1.028,3.374,3.374,0,0,1-2.285-.813,2.588,2.588,0,0,1-.94-2.043A2.66,2.66,0,0,1,59.7,11.981a5.821,5.821,0,0,1,3.322-.791h.914v-.5q0-1.316-1.134-1.316a.927.927,0,0,0-1.055,1.042H58.791a2.655,2.655,0,0,1,1.173-2.239,4.931,4.931,0,0,1,2.993-.86,4.323,4.323,0,0,1,2.874.888,3.086,3.086,0,0,1,1.081,2.435v4.21a4.311,4.311,0,0,0,.4,2V17ZM62.5,15.066a1.652,1.652,0,0,0,.918-.237,1.487,1.487,0,0,0,.523-.536V12.772H63.08q-1.547,0-1.547,1.389a.848.848,0,0,0,.272.655A.986.986,0,0,0,62.5,15.066Zm10.072-.176a1.317,1.317,0,0,0,.967-.338,1.241,1.241,0,0,0,.334-.945H76.65a3.288,3.288,0,0,1-1.121,2.566,4.168,4.168,0,0,1-2.887,1,4.22,4.22,0,0,1-3.27-1.3,5.125,5.125,0,0,1-1.2-3.6v-.123A5.792,5.792,0,0,1,68.709,9.6a3.872,3.872,0,0,1,1.534-1.7,4.573,4.573,0,0,1,2.373-.593A4.116,4.116,0,0,1,75.56,8.343a3.647,3.647,0,0,1,1.09,2.786H73.873A1.626,1.626,0,0,0,73.512,10a1.244,1.244,0,0,0-.967-.4q-1.151,0-1.345,1.468a10.357,10.357,0,0,0-.062,1.283,4.068,4.068,0,0,0,.343,1.986A1.187,1.187,0,0,0,72.572,14.891ZM81.027,17H78.056V7.49h2.971ZM77.88,5.038A1.322,1.322,0,0,1,78.337,4,1.943,1.943,0,0,1,80.71,4a1.322,1.322,0,0,1,.457,1.037,1.322,1.322,0,0,1-.457,1.037,1.943,1.943,0,0,1-2.373,0A1.322,1.322,0,0,1,77.88,5.038Zm4.6,7.119a5.613,5.613,0,0,1,.554-2.536,3.96,3.96,0,0,1,1.591-1.709,4.791,4.791,0,0,1,2.435-.6,4.373,4.373,0,0,1,3.366,1.323,5.076,5.076,0,0,1,1.23,3.6v.105a4.925,4.925,0,0,1-1.235,3.529,4.384,4.384,0,0,1-3.344,1.305,4.434,4.434,0,0,1-3.261-1.217,4.761,4.761,0,0,1-1.327-3.3Zm2.962.185a3.538,3.538,0,0,0,.413,1.934,1.376,1.376,0,0,0,1.222.615q1.582,0,1.617-2.435v-.3q0-2.558-1.635-2.558-1.485,0-1.608,2.206ZM87.46,3.5h3.129L88.146,6.26l-2.417,0Zm8.218,3.99.1,1.116a3.225,3.225,0,0,1,2.716-1.292,2.713,2.713,0,0,1,2.219.888,4.226,4.226,0,0,1,.76,2.672V17H98.5V11a1.6,1.6,0,0,0-.29-1.059A1.342,1.342,0,0,0,97.155,9.6a1.413,1.413,0,0,0-1.292.686V17H92.9V7.49Z" transform="translate(477.743 4467.514)" fill="#12263f"/>
    <path id="Trazado_717588" data-name="Trazado 717588" d="M17.79,13.6a1.268,1.268,0,0,0-.479-1.055,5.954,5.954,0,0,0-1.683-.782,16.147,16.147,0,0,1-1.969-.782q-2.487-1.222-2.487-3.357a3.011,3.011,0,0,1,.62-1.876A4.008,4.008,0,0,1,13.544,4.48a6.823,6.823,0,0,1,2.549-.453,5.969,5.969,0,0,1,2.474.492,3.917,3.917,0,0,1,1.7,1.4A3.661,3.661,0,0,1,20.875,8H17.8a1.547,1.547,0,0,0-.479-1.213,1.867,1.867,0,0,0-1.3-.431,2.106,2.106,0,0,0-1.305.365,1.074,1.074,0,0,0,.048,1.819,6.65,6.65,0,0,0,1.854.826,11.36,11.36,0,0,1,2.18.918,3.663,3.663,0,0,1,2.074,3.3,3.125,3.125,0,0,1-1.266,2.637,5.629,5.629,0,0,1-3.472.958,6.888,6.888,0,0,1-2.817-.558,4.247,4.247,0,0,1-1.9-1.529,3.985,3.985,0,0,1-.637-2.237h3.094a1.963,1.963,0,0,0,.532,1.516,2.513,2.513,0,0,0,1.727.488,1.985,1.985,0,0,0,1.208-.33A1.088,1.088,0,0,0,17.79,13.6Zm9.132,3.577a4.889,4.889,0,0,1-3.542-1.305,4.507,4.507,0,0,1-1.354-3.4v-.246a5.84,5.84,0,0,1,.541-2.575,3.955,3.955,0,0,1,1.578-1.727,4.763,4.763,0,0,1,2.461-.611,4.117,4.117,0,0,1,3.164,1.244,4.887,4.887,0,0,1,1.16,3.467v1.151H25.041a2.135,2.135,0,0,0,.694,1.257,2.066,2.066,0,0,0,1.389.457,2.662,2.662,0,0,0,2.2-.984l1.354,1.6a3.784,3.784,0,0,1-1.569,1.217A5.3,5.3,0,0,1,26.921,17.176ZM26.587,9.6q-1.3,0-1.547,1.723h2.988v-.229a1.467,1.467,0,0,0-.36-1.1A1.434,1.434,0,0,0,26.587,9.6Zm14.361,2.716a5.735,5.735,0,0,1-1,3.538,3.2,3.2,0,0,1-2.694,1.323,2.742,2.742,0,0,1-2.153-.958v4.438H32.142V7.49h2.769L35,8.369A2.742,2.742,0,0,1,37.24,7.314a3.224,3.224,0,0,1,2.733,1.3,5.805,5.805,0,0,1,.976,3.564Zm-2.962-.185q0-2.531-1.477-2.531a1.394,1.394,0,0,0-1.406.756V14.1a1.439,1.439,0,0,0,1.424.791q1.415,0,1.459-2.443ZM47.611,17a3.344,3.344,0,0,1-.281-.853,2.754,2.754,0,0,1-2.285,1.028,3.374,3.374,0,0,1-2.285-.813,2.588,2.588,0,0,1-.94-2.043,2.66,2.66,0,0,1,1.143-2.338,5.821,5.821,0,0,1,3.322-.791H47.2v-.5q0-1.316-1.134-1.316a.927.927,0,0,0-1.055,1.042H42.047a2.655,2.655,0,0,1,1.173-2.239,4.931,4.931,0,0,1,2.993-.86,4.323,4.323,0,0,1,2.874.888,3.086,3.086,0,0,1,1.081,2.435v4.21a4.311,4.311,0,0,0,.4,2V17Zm-1.854-1.934a1.652,1.652,0,0,0,.918-.237,1.487,1.487,0,0,0,.523-.536V12.772h-.861q-1.547,0-1.547,1.389a.848.848,0,0,0,.272.655A.986.986,0,0,0,45.756,15.066Zm11.8-4.9-.976-.07a1.752,1.752,0,0,0-1.793.879V17H51.83V7.49h2.777l.1,1.222a2.294,2.294,0,0,1,2.083-1.4,2.888,2.888,0,0,1,.826.105ZM63.721,17a3.344,3.344,0,0,1-.281-.853,2.754,2.754,0,0,1-2.285,1.028,3.374,3.374,0,0,1-2.285-.813,2.588,2.588,0,0,1-.94-2.043,2.66,2.66,0,0,1,1.143-2.338,5.821,5.821,0,0,1,3.322-.791h.914v-.5q0-1.316-1.134-1.316a.927.927,0,0,0-1.055,1.042H58.158a2.655,2.655,0,0,1,1.173-2.239,4.931,4.931,0,0,1,2.993-.86A4.323,4.323,0,0,1,65.2,8.2a3.086,3.086,0,0,1,1.081,2.435v4.21a4.311,4.311,0,0,0,.4,2V17Zm-1.854-1.934a1.652,1.652,0,0,0,.918-.237,1.487,1.487,0,0,0,.523-.536V12.772h-.861q-1.547,0-1.547,1.389a.848.848,0,0,0,.272.655A.986.986,0,0,0,61.867,15.066Zm10.072-.176a1.317,1.317,0,0,0,.967-.338,1.241,1.241,0,0,0,.334-.945h2.777A3.288,3.288,0,0,1,74.9,16.174a4.168,4.168,0,0,1-2.887,1,4.22,4.22,0,0,1-3.27-1.3,5.125,5.125,0,0,1-1.2-3.6v-.123A5.792,5.792,0,0,1,68.076,9.6a3.872,3.872,0,0,1,1.534-1.7,4.573,4.573,0,0,1,2.373-.593,4.116,4.116,0,0,1,2.944,1.028,3.647,3.647,0,0,1,1.09,2.786H73.24A1.626,1.626,0,0,0,72.879,10a1.244,1.244,0,0,0-.967-.4q-1.151,0-1.345,1.468a10.357,10.357,0,0,0-.062,1.283,4.068,4.068,0,0,0,.343,1.986A1.187,1.187,0,0,0,71.939,14.891ZM80.394,17H77.423V7.49h2.971ZM77.248,5.038A1.322,1.322,0,0,1,77.7,4a1.943,1.943,0,0,1,2.373,0,1.322,1.322,0,0,1,.457,1.037,1.322,1.322,0,0,1-.457,1.037,1.943,1.943,0,0,1-2.373,0A1.322,1.322,0,0,1,77.248,5.038Zm4.6,7.119A5.613,5.613,0,0,1,82.4,9.622a3.96,3.96,0,0,1,1.591-1.709,4.791,4.791,0,0,1,2.435-.6A4.373,4.373,0,0,1,89.79,8.637a5.076,5.076,0,0,1,1.23,3.6v.105a4.925,4.925,0,0,1-1.235,3.529,4.384,4.384,0,0,1-3.344,1.305,4.434,4.434,0,0,1-3.261-1.217,4.761,4.761,0,0,1-1.327-3.3Zm2.962.185a3.538,3.538,0,0,0,.413,1.934,1.376,1.376,0,0,0,1.222.615q1.582,0,1.617-2.435v-.3q0-2.558-1.635-2.558-1.485,0-1.608,2.206ZM86.828,3.5h3.129L87.513,6.26l-2.417,0Zm8.218,3.99.1,1.116a3.225,3.225,0,0,1,2.716-1.292,2.713,2.713,0,0,1,2.219.888,4.226,4.226,0,0,1,.76,2.672V17H97.867V11a1.6,1.6,0,0,0-.29-1.059A1.342,1.342,0,0,0,96.522,9.6a1.413,1.413,0,0,0-1.292.686V17H92.268V7.49Z" transform="translate(565.64 4259.015)" fill="#fff"/>
    <path id="Trazado_717589" data-name="Trazado 717589" d="M12.79,14.609H8.562L7.824,17h-3.3L9.221,4.2h2.9L16.85,17H13.537ZM9.3,12.228h2.751l-1.38-4.438ZM20.77,17H17.8V3.5H20.77Zm4.623-9.51.1,1.116a3.27,3.27,0,0,1,2.716-1.292A2.407,2.407,0,0,1,30.64,8.747a3.165,3.165,0,0,1,2.795-1.433q2.892,0,2.971,3.5V17H33.435V11a1.813,1.813,0,0,0-.246-1.063,1.048,1.048,0,0,0-.9-.334,1.4,1.4,0,0,0-1.31.782l.009.123V17H28.021V11.015a1.906,1.906,0,0,0-.237-1.081,1.045,1.045,0,0,0-.905-.334,1.42,1.42,0,0,0-1.3.782V17H22.616V7.49ZM43.455,17a3.344,3.344,0,0,1-.281-.853,2.754,2.754,0,0,1-2.285,1.028,3.374,3.374,0,0,1-2.285-.813,2.588,2.588,0,0,1-.94-2.043,2.66,2.66,0,0,1,1.143-2.338,5.821,5.821,0,0,1,3.322-.791h.914v-.5q0-1.316-1.134-1.316a.927.927,0,0,0-1.055,1.042H37.891a2.655,2.655,0,0,1,1.173-2.239,4.931,4.931,0,0,1,2.993-.86,4.323,4.323,0,0,1,2.874.888,3.086,3.086,0,0,1,1.081,2.435v4.21a4.311,4.311,0,0,0,.4,2V17ZM41.6,15.066a1.652,1.652,0,0,0,.918-.237,1.487,1.487,0,0,0,.523-.536V12.772H42.18q-1.547,0-1.547,1.389a.848.848,0,0,0,.272.655A.986.986,0,0,0,41.6,15.066Zm10.072-.176a1.317,1.317,0,0,0,.967-.338,1.241,1.241,0,0,0,.334-.945h2.777a3.288,3.288,0,0,1-1.121,2.566,4.168,4.168,0,0,1-2.887,1,4.22,4.22,0,0,1-3.27-1.3,5.125,5.125,0,0,1-1.2-3.6v-.123A5.792,5.792,0,0,1,47.81,9.6a3.872,3.872,0,0,1,1.534-1.7,4.573,4.573,0,0,1,2.373-.593,4.116,4.116,0,0,1,2.944,1.028,3.647,3.647,0,0,1,1.09,2.786H52.973A1.626,1.626,0,0,0,52.613,10a1.244,1.244,0,0,0-.967-.4q-1.151,0-1.345,1.468a10.357,10.357,0,0,0-.062,1.283,4.068,4.068,0,0,0,.343,1.986A1.187,1.187,0,0,0,51.673,14.891ZM61.6,17.176a4.889,4.889,0,0,1-3.542-1.305,4.507,4.507,0,0,1-1.354-3.4v-.246a5.84,5.84,0,0,1,.541-2.575,3.955,3.955,0,0,1,1.578-1.727,4.763,4.763,0,0,1,2.461-.611,4.117,4.117,0,0,1,3.164,1.244,4.887,4.887,0,0,1,1.16,3.467v1.151H59.723a2.135,2.135,0,0,0,.694,1.257,2.066,2.066,0,0,0,1.389.457,2.662,2.662,0,0,0,2.2-.984l1.354,1.6a3.784,3.784,0,0,1-1.569,1.217A5.3,5.3,0,0,1,61.6,17.176ZM61.27,9.6q-1.3,0-1.547,1.723h2.988v-.229a1.467,1.467,0,0,0-.36-1.1A1.434,1.434,0,0,0,61.27,9.6ZM69.523,7.49l.1,1.116a3.225,3.225,0,0,1,2.716-1.292,2.713,2.713,0,0,1,2.219.888,4.226,4.226,0,0,1,.76,2.672V17H72.344V11a1.6,1.6,0,0,0-.29-1.059A1.342,1.342,0,0,0,71,9.6a1.413,1.413,0,0,0-1.292.686V17H66.746V7.49ZM82.311,17a3.344,3.344,0,0,1-.281-.853,2.754,2.754,0,0,1-2.285,1.028,3.374,3.374,0,0,1-2.285-.813,2.588,2.588,0,0,1-.94-2.043,2.66,2.66,0,0,1,1.143-2.338,5.821,5.821,0,0,1,3.322-.791H81.9v-.5q0-1.316-1.134-1.316a.927.927,0,0,0-1.055,1.042H76.748a2.655,2.655,0,0,1,1.173-2.239,4.931,4.931,0,0,1,2.993-.86,4.323,4.323,0,0,1,2.874.888,3.086,3.086,0,0,1,1.081,2.435v4.21a4.311,4.311,0,0,0,.4,2V17Zm-1.854-1.934a1.652,1.652,0,0,0,.918-.237,1.487,1.487,0,0,0,.523-.536V12.772h-.861q-1.547,0-1.547,1.389a.848.848,0,0,0,.272.655A.986.986,0,0,0,80.457,15.066ZM89.307,7.49l.1,1.116A3.27,3.27,0,0,1,92.12,7.314a2.407,2.407,0,0,1,2.435,1.433,3.165,3.165,0,0,1,2.795-1.433q2.892,0,2.971,3.5V17H97.349V11A1.813,1.813,0,0,0,97.1,9.934a1.048,1.048,0,0,0-.9-.334,1.4,1.4,0,0,0-1.31.782l.009.123V17H91.935V11.015A1.906,1.906,0,0,0,91.7,9.934a1.045,1.045,0,0,0-.905-.334,1.42,1.42,0,0,0-1.3.782V17H86.53V7.49ZM105.136,17h-2.971V7.49h2.971ZM101.99,5.038A1.322,1.322,0,0,1,102.447,4a1.943,1.943,0,0,1,2.373,0,1.322,1.322,0,0,1,.457,1.037,1.322,1.322,0,0,1-.457,1.037,1.943,1.943,0,0,1-2.373,0A1.322,1.322,0,0,1,101.99,5.038Zm9.571,12.138a4.889,4.889,0,0,1-3.542-1.305,4.507,4.507,0,0,1-1.354-3.4v-.246a5.84,5.84,0,0,1,.541-2.575,3.955,3.955,0,0,1,1.578-1.727,4.763,4.763,0,0,1,2.461-.611,4.117,4.117,0,0,1,3.164,1.244,4.887,4.887,0,0,1,1.16,3.467v1.151H109.68a2.135,2.135,0,0,0,.694,1.257,2.066,2.066,0,0,0,1.389.457,2.662,2.662,0,0,0,2.2-.984l1.354,1.6a3.784,3.784,0,0,1-1.569,1.217A5.3,5.3,0,0,1,111.561,17.176ZM111.227,9.6q-1.3,0-1.547,1.723h2.988v-.229a1.467,1.467,0,0,0-.36-1.1A1.434,1.434,0,0,0,111.227,9.6ZM119.48,7.49l.1,1.116a3.225,3.225,0,0,1,2.716-1.292,2.713,2.713,0,0,1,2.219.888,4.226,4.226,0,0,1,.76,2.672V17H122.3V11a1.6,1.6,0,0,0-.29-1.059,1.342,1.342,0,0,0-1.055-.338,1.413,1.413,0,0,0-1.292.686V17H116.7V7.49Zm10.881-2.364V7.49h1.564V9.547h-1.564V13.9a1.111,1.111,0,0,0,.193.747,1.037,1.037,0,0,0,.765.211,4.345,4.345,0,0,0,.738-.053v2.118a5.466,5.466,0,0,1-1.67.255,3.1,3.1,0,0,1-2.259-.721,2.954,2.954,0,0,1-.729-2.188V9.547h-1.213V7.49H127.4V5.126Zm2.092,7.031a5.613,5.613,0,0,1,.554-2.536A3.96,3.96,0,0,1,134.6,7.912a4.791,4.791,0,0,1,2.435-.6A4.373,4.373,0,0,1,140.4,8.637a5.076,5.076,0,0,1,1.23,3.6v.105a4.925,4.925,0,0,1-1.235,3.529,4.384,4.384,0,0,1-3.344,1.305,4.434,4.434,0,0,1-3.261-1.217,4.761,4.761,0,0,1-1.327-3.3Zm2.962.185a3.538,3.538,0,0,0,.413,1.934,1.376,1.376,0,0,0,1.222.615q1.582,0,1.617-2.435v-.3q0-2.558-1.635-2.558-1.485,0-1.608,2.206Z" transform="translate(762.897 4141.478)" fill="#12263f"/>
    <path id="Trazado_717590" data-name="Trazado 717590" d="M11.826,12.474h-1.67V17H7.071V4.2h5.036a5.621,5.621,0,0,1,3.56,1.01A3.421,3.421,0,0,1,16.95,8.066a4.155,4.155,0,0,1-.541,2.213A3.837,3.837,0,0,1,14.718,11.7l2.672,5.167V17h-3.3ZM10.156,10.1h1.951a1.751,1.751,0,0,0,1.323-.463,1.788,1.788,0,0,0,.444-1.291,1.809,1.809,0,0,0-.448-1.3,1.735,1.735,0,0,0-1.318-.471H10.156Zm13.122,7.075a4.889,4.889,0,0,1-3.542-1.305,4.507,4.507,0,0,1-1.354-3.4v-.246a5.84,5.84,0,0,1,.541-2.575A3.955,3.955,0,0,1,20.5,7.925a4.763,4.763,0,0,1,2.461-.611,4.117,4.117,0,0,1,3.164,1.244,4.887,4.887,0,0,1,1.16,3.467v1.151H21.4a2.135,2.135,0,0,0,.694,1.257,2.066,2.066,0,0,0,1.389.457,2.662,2.662,0,0,0,2.2-.984l1.354,1.6a3.784,3.784,0,0,1-1.569,1.217A5.3,5.3,0,0,1,23.278,17.176ZM22.944,9.6q-1.3,0-1.547,1.723h2.988v-.229a1.467,1.467,0,0,0-.36-1.1A1.434,1.434,0,0,0,22.944,9.6ZM32.5,14.891a1.317,1.317,0,0,0,.967-.338,1.241,1.241,0,0,0,.334-.945h2.777a3.288,3.288,0,0,1-1.121,2.566,4.168,4.168,0,0,1-2.887,1,4.22,4.22,0,0,1-3.27-1.3,5.125,5.125,0,0,1-1.2-3.6v-.123A5.792,5.792,0,0,1,28.635,9.6a3.872,3.872,0,0,1,1.534-1.7,4.573,4.573,0,0,1,2.373-.593,4.116,4.116,0,0,1,2.944,1.028,3.647,3.647,0,0,1,1.09,2.786H33.8A1.626,1.626,0,0,0,33.439,10a1.244,1.244,0,0,0-.967-.4q-1.151,0-1.345,1.468a10.357,10.357,0,0,0-.062,1.283,4.068,4.068,0,0,0,.343,1.986A1.187,1.187,0,0,0,32.5,14.891Zm4.957-2.733a5.613,5.613,0,0,1,.554-2.536A3.96,3.96,0,0,1,39.6,7.912a4.791,4.791,0,0,1,2.435-.6A4.373,4.373,0,0,1,45.4,8.637a5.076,5.076,0,0,1,1.23,3.6v.105A4.925,4.925,0,0,1,45.4,15.871a4.384,4.384,0,0,1-3.344,1.305,4.434,4.434,0,0,1-3.261-1.217,4.761,4.761,0,0,1-1.327-3.3Zm2.962.185a3.538,3.538,0,0,0,.413,1.934,1.376,1.376,0,0,0,1.222.615q1.582,0,1.617-2.435v-.3q0-2.558-1.635-2.558-1.485,0-1.608,2.206ZM51.061,17H48.09V3.5h2.971Zm6.425.176a4.889,4.889,0,0,1-3.542-1.305,4.507,4.507,0,0,1-1.354-3.4v-.246a5.84,5.84,0,0,1,.541-2.575,3.955,3.955,0,0,1,1.578-1.727,4.763,4.763,0,0,1,2.461-.611,4.117,4.117,0,0,1,3.164,1.244,4.887,4.887,0,0,1,1.16,3.467v1.151H55.6a2.135,2.135,0,0,0,.694,1.257,2.066,2.066,0,0,0,1.389.457,2.662,2.662,0,0,0,2.2-.984l1.354,1.6a3.784,3.784,0,0,1-1.569,1.217A5.3,5.3,0,0,1,57.485,17.176ZM57.151,9.6q-1.3,0-1.547,1.723h2.988v-.229a1.467,1.467,0,0,0-.36-1.1A1.434,1.434,0,0,0,57.151,9.6Zm9.554,5.291a1.317,1.317,0,0,0,.967-.338,1.241,1.241,0,0,0,.334-.945h2.777a3.288,3.288,0,0,1-1.121,2.566,4.168,4.168,0,0,1-2.887,1,4.22,4.22,0,0,1-3.27-1.3,5.125,5.125,0,0,1-1.2-3.6v-.123A5.792,5.792,0,0,1,62.842,9.6a3.872,3.872,0,0,1,1.534-1.7,4.573,4.573,0,0,1,2.373-.593,4.116,4.116,0,0,1,2.944,1.028,3.647,3.647,0,0,1,1.09,2.786H68.006A1.626,1.626,0,0,0,67.646,10a1.244,1.244,0,0,0-.967-.4q-1.151,0-1.345,1.468a10.357,10.357,0,0,0-.062,1.283,4.068,4.068,0,0,0,.343,1.986A1.187,1.187,0,0,0,66.705,14.891Zm9.352,0a1.317,1.317,0,0,0,.967-.338,1.241,1.241,0,0,0,.334-.945h2.777a3.288,3.288,0,0,1-1.121,2.566,4.168,4.168,0,0,1-2.887,1,4.22,4.22,0,0,1-3.27-1.3,5.125,5.125,0,0,1-1.2-3.6v-.123A5.792,5.792,0,0,1,72.194,9.6a3.872,3.872,0,0,1,1.534-1.7A4.573,4.573,0,0,1,76.1,7.314a4.116,4.116,0,0,1,2.944,1.028,3.647,3.647,0,0,1,1.09,2.786H77.357A1.626,1.626,0,0,0,77,10a1.244,1.244,0,0,0-.967-.4q-1.151,0-1.345,1.468a10.357,10.357,0,0,0-.062,1.283,4.068,4.068,0,0,0,.343,1.986A1.187,1.187,0,0,0,76.057,14.891ZM84.512,17H81.541V7.49h2.971ZM81.365,5.038A1.322,1.322,0,0,1,81.822,4,1.943,1.943,0,0,1,84.2,4a1.322,1.322,0,0,1,.457,1.037A1.322,1.322,0,0,1,84.2,6.075a1.943,1.943,0,0,1-2.373,0A1.322,1.322,0,0,1,81.365,5.038Zm4.6,7.119a5.613,5.613,0,0,1,.554-2.536,3.96,3.96,0,0,1,1.591-1.709,4.791,4.791,0,0,1,2.435-.6,4.373,4.373,0,0,1,3.366,1.323,5.076,5.076,0,0,1,1.23,3.6v.105A4.925,4.925,0,0,1,93.9,15.871a4.384,4.384,0,0,1-3.344,1.305A4.434,4.434,0,0,1,87.3,15.958a4.761,4.761,0,0,1-1.327-3.3Zm2.962.185a3.538,3.538,0,0,0,.413,1.934,1.376,1.376,0,0,0,1.222.615q1.582,0,1.617-2.435v-.3q0-2.558-1.635-2.558-1.485,0-1.608,2.206ZM90.945,3.5h3.129L91.631,6.26l-2.417,0Zm8.218,3.99.1,1.116a3.225,3.225,0,0,1,2.716-1.292,2.713,2.713,0,0,1,2.219.888,4.226,4.226,0,0,1,.76,2.672V17h-2.971V11a1.6,1.6,0,0,0-.29-1.059A1.342,1.342,0,0,0,100.64,9.6a1.413,1.413,0,0,0-1.292.686V17H96.386V7.49ZM11.092,37.852l1.582-5.361h3.173l-3.876,11.1L11.8,44a2.944,2.944,0,0,1-2.918,1.846,4.642,4.642,0,0,1-1.222-.175v-2.11h.387A2.026,2.026,0,0,0,9,43.375a1.094,1.094,0,0,0,.488-.647L9.73,42.1l-3.3-9.605H9.589Zm13.456-7.726V32.49h1.564v2.057H24.548V38.9a1.111,1.111,0,0,0,.193.747,1.037,1.037,0,0,0,.765.211,4.345,4.345,0,0,0,.738-.053v2.118a5.466,5.466,0,0,1-1.67.255,3.1,3.1,0,0,1-2.259-.721,2.954,2.954,0,0,1-.729-2.188v-4.72H20.374V32.49h1.213V30.126Zm8.481,5.045-.976-.07a1.752,1.752,0,0,0-1.793.879V42H27.3V32.49h2.777l.1,1.222a2.294,2.294,0,0,1,2.083-1.4,2.888,2.888,0,0,1,.826.105ZM39.191,42a3.344,3.344,0,0,1-.281-.853,2.754,2.754,0,0,1-2.285,1.028,3.374,3.374,0,0,1-2.285-.813,2.588,2.588,0,0,1-.94-2.043,2.66,2.66,0,0,1,1.143-2.338,5.821,5.821,0,0,1,3.322-.791h.914v-.5q0-1.316-1.134-1.316a.927.927,0,0,0-1.055,1.042H33.627A2.655,2.655,0,0,1,34.8,33.175a4.931,4.931,0,0,1,2.993-.86,4.323,4.323,0,0,1,2.874.888,3.086,3.086,0,0,1,1.081,2.435v4.21a4.311,4.311,0,0,0,.4,2V42Zm-1.854-1.934a1.652,1.652,0,0,0,.918-.237,1.487,1.487,0,0,0,.523-.536V37.772h-.861q-1.547,0-1.547,1.389a.848.848,0,0,0,.272.655A.986.986,0,0,0,37.336,40.066Zm8.771-7.576.1,1.116a3.225,3.225,0,0,1,2.716-1.292,2.713,2.713,0,0,1,2.219.888,4.226,4.226,0,0,1,.76,2.672V42H48.929V36a1.6,1.6,0,0,0-.29-1.059,1.342,1.342,0,0,0-1.055-.338,1.413,1.413,0,0,0-1.292.686V42H43.331V32.49Zm12.41,6.838a.684.684,0,0,0-.4-.606,6.016,6.016,0,0,0-1.5-.475,6.853,6.853,0,0,1-1.828-.646,3.062,3.062,0,0,1-1.1-.971,2.319,2.319,0,0,1-.378-1.31A2.628,2.628,0,0,1,54.4,33.163a4.453,4.453,0,0,1,2.83-.848,4.934,4.934,0,0,1,3.023.853,2.666,2.666,0,0,1,1.143,2.241H58.421q0-1.143-1.2-1.143a1.194,1.194,0,0,0-.782.259.8.8,0,0,0-.316.646.737.737,0,0,0,.387.642,3.654,3.654,0,0,0,1.235.4,10.671,10.671,0,0,1,1.49.378,2.706,2.706,0,0,1,2.145,2.646,2.491,2.491,0,0,1-1.156,2.118,5.068,5.068,0,0,1-2.993.817,5.172,5.172,0,0,1-2.18-.439,3.645,3.645,0,0,1-1.494-1.2,2.707,2.707,0,0,1-.536-1.591h2.769a1.145,1.145,0,0,0,.439.962,1.808,1.808,0,0,0,1.081.3,1.422,1.422,0,0,0,.91-.246A.787.787,0,0,0,58.518,39.328Zm13.069-2.013a5.735,5.735,0,0,1-1,3.538A3.2,3.2,0,0,1,67.9,42.176a2.742,2.742,0,0,1-2.153-.958v4.438H62.781V32.49h2.769l.088.879a2.742,2.742,0,0,1,2.241-1.055,3.224,3.224,0,0,1,2.733,1.3,5.805,5.805,0,0,1,.976,3.564Zm-2.962-.185q0-2.531-1.477-2.531a1.394,1.394,0,0,0-1.406.756V39.1a1.439,1.439,0,0,0,1.424.791q1.415,0,1.459-2.443Zm3.894.026a5.613,5.613,0,0,1,.554-2.536,3.96,3.96,0,0,1,1.591-1.709,4.791,4.791,0,0,1,2.435-.6,4.373,4.373,0,0,1,3.366,1.323,5.076,5.076,0,0,1,1.23,3.6v.105a4.925,4.925,0,0,1-1.235,3.529,4.384,4.384,0,0,1-3.344,1.305,4.434,4.434,0,0,1-3.261-1.217,4.761,4.761,0,0,1-1.327-3.3Zm2.962.185a3.538,3.538,0,0,0,.413,1.934,1.376,1.376,0,0,0,1.222.615q1.582,0,1.617-2.435v-.3q0-2.558-1.635-2.558-1.485,0-1.608,2.206Zm13.271-2.171-.976-.07a1.752,1.752,0,0,0-1.793.879V42H83.022V32.49H85.8l.1,1.222a2.294,2.294,0,0,1,2.083-1.4,2.888,2.888,0,0,1,.826.105Zm4.957-5.045V32.49h1.564v2.057H93.71V38.9a1.111,1.111,0,0,0,.193.747,1.037,1.037,0,0,0,.765.211,4.345,4.345,0,0,0,.738-.053v2.118a5.466,5.466,0,0,1-1.67.255,3.1,3.1,0,0,1-2.259-.721,2.954,2.954,0,0,1-.729-2.188v-4.72H89.535V32.49h1.213V30.126Zm7.33,12.05A4.889,4.889,0,0,1,97.5,40.871a4.507,4.507,0,0,1-1.354-3.4v-.246a5.84,5.84,0,0,1,.541-2.575,3.955,3.955,0,0,1,1.578-1.727,4.763,4.763,0,0,1,2.461-.611,4.117,4.117,0,0,1,3.164,1.244,4.887,4.887,0,0,1,1.16,3.467v1.151H99.159a2.135,2.135,0,0,0,.694,1.257,2.066,2.066,0,0,0,1.389.457,2.662,2.662,0,0,0,2.2-.984l1.354,1.6a3.784,3.784,0,0,1-1.569,1.217A5.3,5.3,0,0,1,101.04,42.176Zm-.334-7.576q-1.3,0-1.547,1.723h2.988v-.229a1.467,1.467,0,0,0-.36-1.1A1.434,1.434,0,0,0,100.706,34.6Z" transform="translate(994.904 4226.309)" fill="#12263f"/>
    <path id="Trazado_717591" data-name="Trazado 717591" d="M15.212,6.585H11.371V17H8.286V6.585H4.516V4.2h10.7Zm6.346,3.586-.976-.07a1.752,1.752,0,0,0-1.793.879V17H15.827V7.49H18.6l.1,1.222a2.294,2.294,0,0,1,2.083-1.4,2.888,2.888,0,0,1,.826.105ZM27.719,17a3.344,3.344,0,0,1-.281-.853,2.754,2.754,0,0,1-2.285,1.028,3.374,3.374,0,0,1-2.285-.813,2.588,2.588,0,0,1-.94-2.043,2.66,2.66,0,0,1,1.143-2.338,5.821,5.821,0,0,1,3.322-.791h.914v-.5q0-1.316-1.134-1.316a.927.927,0,0,0-1.055,1.042H22.156a2.655,2.655,0,0,1,1.173-2.239,4.931,4.931,0,0,1,2.993-.86A4.323,4.323,0,0,1,29.2,8.2a3.086,3.086,0,0,1,1.081,2.435v4.21a4.311,4.311,0,0,0,.4,2V17Zm-1.854-1.934a1.652,1.652,0,0,0,.918-.237,1.487,1.487,0,0,0,.523-.536V12.772h-.861q-1.547,0-1.547,1.389a.848.848,0,0,0,.272.655A.986.986,0,0,0,25.865,15.066ZM34.636,7.49l.1,1.116a3.225,3.225,0,0,1,2.716-1.292,2.713,2.713,0,0,1,2.219.888,4.226,4.226,0,0,1,.76,2.672V17H37.457V11a1.6,1.6,0,0,0-.29-1.059A1.342,1.342,0,0,0,36.113,9.6a1.413,1.413,0,0,0-1.292.686V17H31.859V7.49Zm12.41,6.838a.684.684,0,0,0-.4-.606,6.016,6.016,0,0,0-1.5-.475A6.853,6.853,0,0,1,43.32,12.6a3.062,3.062,0,0,1-1.1-.971,2.319,2.319,0,0,1-.378-1.31,2.628,2.628,0,0,1,1.081-2.158,4.453,4.453,0,0,1,2.83-.848,4.934,4.934,0,0,1,3.023.853,2.666,2.666,0,0,1,1.143,2.241H46.95q0-1.143-1.2-1.143a1.194,1.194,0,0,0-.782.259.8.8,0,0,0-.316.646.737.737,0,0,0,.387.642,3.654,3.654,0,0,0,1.235.4,10.671,10.671,0,0,1,1.49.378A2.706,2.706,0,0,1,49.9,14.24a2.491,2.491,0,0,1-1.156,2.118,5.068,5.068,0,0,1-2.993.817,5.172,5.172,0,0,1-2.18-.439,3.645,3.645,0,0,1-1.494-1.2,2.707,2.707,0,0,1-.536-1.591h2.769a1.145,1.145,0,0,0,.439.962,1.808,1.808,0,0,0,1.081.3,1.422,1.422,0,0,0,.91-.246A.787.787,0,0,0,47.046,14.328ZM51.942,17V9.547h-1.38V7.49h1.38V6.734A3.286,3.286,0,0,1,52.9,4.212a3.785,3.785,0,0,1,2.689-.9,5.89,5.89,0,0,1,1.389.185l.009,2.18a2.706,2.706,0,0,0-.729-.079q-1.345,0-1.345,1.16V7.49h1.854V9.547H54.912V17Zm10.257.176a4.889,4.889,0,0,1-3.542-1.305,4.507,4.507,0,0,1-1.354-3.4v-.246a5.84,5.84,0,0,1,.541-2.575,3.955,3.955,0,0,1,1.578-1.727,4.763,4.763,0,0,1,2.461-.611,4.117,4.117,0,0,1,3.164,1.244,4.887,4.887,0,0,1,1.16,3.467v1.151H60.318a2.135,2.135,0,0,0,.694,1.257,2.066,2.066,0,0,0,1.389.457,2.662,2.662,0,0,0,2.2-.984l1.354,1.6a3.784,3.784,0,0,1-1.569,1.217A5.3,5.3,0,0,1,62.2,17.176ZM61.865,9.6q-1.3,0-1.547,1.723h2.988v-.229a1.467,1.467,0,0,0-.36-1.1A1.434,1.434,0,0,0,61.865,9.6Zm11.285.571-.976-.07a1.752,1.752,0,0,0-1.793.879V17H67.419V7.49H70.2l.1,1.222a2.294,2.294,0,0,1,2.083-1.4,2.888,2.888,0,0,1,.826.105Zm5.5,7a4.889,4.889,0,0,1-3.542-1.305,4.507,4.507,0,0,1-1.354-3.4v-.246A5.84,5.84,0,0,1,74.3,9.652a3.955,3.955,0,0,1,1.578-1.727,4.763,4.763,0,0,1,2.461-.611A4.117,4.117,0,0,1,81.5,8.558a4.887,4.887,0,0,1,1.16,3.467v1.151H76.771a2.135,2.135,0,0,0,.694,1.257,2.066,2.066,0,0,0,1.389.457,2.662,2.662,0,0,0,2.2-.984l1.354,1.6a3.784,3.784,0,0,1-1.569,1.217A5.3,5.3,0,0,1,78.652,17.176ZM78.318,9.6q-1.3,0-1.547,1.723h2.988v-.229a1.467,1.467,0,0,0-.36-1.1A1.434,1.434,0,0,0,78.318,9.6ZM86.571,7.49l.1,1.116a3.225,3.225,0,0,1,2.716-1.292A2.713,2.713,0,0,1,91.6,8.2a4.226,4.226,0,0,1,.76,2.672V17H89.392V11a1.6,1.6,0,0,0-.29-1.059A1.342,1.342,0,0,0,88.047,9.6a1.413,1.413,0,0,0-1.292.686V17H83.793V7.49Zm11.452,7.4a1.317,1.317,0,0,0,.967-.338,1.241,1.241,0,0,0,.334-.945H102.1a3.288,3.288,0,0,1-1.121,2.566,4.168,4.168,0,0,1-2.887,1,4.22,4.22,0,0,1-3.27-1.3,5.125,5.125,0,0,1-1.2-3.6v-.123A5.792,5.792,0,0,1,94.16,9.6a3.872,3.872,0,0,1,1.534-1.7,4.573,4.573,0,0,1,2.373-.593,4.116,4.116,0,0,1,2.944,1.028,3.647,3.647,0,0,1,1.09,2.786H99.324A1.626,1.626,0,0,0,98.963,10,1.244,1.244,0,0,0,98,9.6q-1.151,0-1.345,1.468a10.357,10.357,0,0,0-.062,1.283,4.068,4.068,0,0,0,.343,1.986A1.187,1.187,0,0,0,98.023,14.891ZM106.478,17h-2.971V7.49h2.971ZM103.331,5.038A1.322,1.322,0,0,1,103.788,4a1.943,1.943,0,0,1,2.373,0,1.322,1.322,0,0,1,.457,1.037,1.322,1.322,0,0,1-.457,1.037,1.943,1.943,0,0,1-2.373,0A1.322,1.322,0,0,1,103.331,5.038ZM113.659,17a3.344,3.344,0,0,1-.281-.853,2.754,2.754,0,0,1-2.285,1.028,3.374,3.374,0,0,1-2.285-.813,2.588,2.588,0,0,1-.94-2.043,2.66,2.66,0,0,1,1.143-2.338,5.821,5.821,0,0,1,3.322-.791h.914v-.5q0-1.316-1.134-1.316a.927.927,0,0,0-1.055,1.042H108.1a2.655,2.655,0,0,1,1.173-2.239,4.931,4.931,0,0,1,2.993-.86,4.323,4.323,0,0,1,2.874.888,3.086,3.086,0,0,1,1.081,2.435v4.21a4.311,4.311,0,0,0,.4,2V17ZM111.8,15.066a1.652,1.652,0,0,0,.918-.237,1.487,1.487,0,0,0,.523-.536V12.772h-.861q-1.547,0-1.547,1.389a.848.848,0,0,0,.272.655A.986.986,0,0,0,111.8,15.066Z" transform="translate(1080.757 4454.228)" fill="#12263f"/>
    <path id="Trazado_717592" data-name="Trazado 717592" d="M9.515,17V4.2h4.122a6.064,6.064,0,0,1,3.05.769A5.406,5.406,0,0,1,18.8,7.143a6.554,6.554,0,0,1,.769,3.142v.589a6.592,6.592,0,0,1-.743,3.151,5.429,5.429,0,0,1-2.092,2.18,5.93,5.93,0,0,1-3.01.8ZM12.6,6.585v8.042h1.072a2.4,2.4,0,0,0,2.039-.945,4.63,4.63,0,0,0,.712-2.808V10.32a4.592,4.592,0,0,0-.712-2.795,2.442,2.442,0,0,0-2.074-.94ZM24.14,17H21.169V7.49H24.14ZM20.993,5.038A1.322,1.322,0,0,1,21.45,4a1.943,1.943,0,0,1,2.373,0,1.322,1.322,0,0,1,.457,1.037,1.322,1.322,0,0,1-.457,1.037,1.943,1.943,0,0,1-2.373,0A1.322,1.322,0,0,1,20.993,5.038Zm9.949,9.29a.684.684,0,0,0-.4-.606,6.016,6.016,0,0,0-1.5-.475,6.853,6.853,0,0,1-1.828-.646,3.062,3.062,0,0,1-1.1-.971,2.319,2.319,0,0,1-.378-1.31A2.628,2.628,0,0,1,26.82,8.163a4.453,4.453,0,0,1,2.83-.848,4.934,4.934,0,0,1,3.023.853,2.666,2.666,0,0,1,1.143,2.241H30.846q0-1.143-1.2-1.143a1.194,1.194,0,0,0-.782.259.8.8,0,0,0-.316.646.737.737,0,0,0,.387.642,3.654,3.654,0,0,0,1.235.4,10.671,10.671,0,0,1,1.49.378A2.706,2.706,0,0,1,33.8,14.24a2.491,2.491,0,0,1-1.156,2.118,5.068,5.068,0,0,1-2.993.817,5.172,5.172,0,0,1-2.18-.439,3.645,3.645,0,0,1-1.494-1.2,2.707,2.707,0,0,1-.536-1.591h2.769a1.145,1.145,0,0,0,.439.962,1.808,1.808,0,0,0,1.081.3,1.422,1.422,0,0,0,.91-.246A.787.787,0,0,0,30.942,14.328Zm13.069-2.013a5.735,5.735,0,0,1-1,3.538,3.2,3.2,0,0,1-2.694,1.323,2.742,2.742,0,0,1-2.153-.958v4.438H35.205V7.49h2.769l.088.879A2.742,2.742,0,0,1,40.3,7.314a3.224,3.224,0,0,1,2.733,1.3,5.805,5.805,0,0,1,.976,3.564Zm-2.962-.185q0-2.531-1.477-2.531a1.394,1.394,0,0,0-1.406.756V14.1a1.439,1.439,0,0,0,1.424.791q1.415,0,1.459-2.443Zm3.894.026A5.613,5.613,0,0,1,45.5,9.622a3.96,3.96,0,0,1,1.591-1.709,4.791,4.791,0,0,1,2.435-.6,4.373,4.373,0,0,1,3.366,1.323,5.076,5.076,0,0,1,1.23,3.6v.105a4.925,4.925,0,0,1-1.235,3.529,4.384,4.384,0,0,1-3.344,1.305,4.434,4.434,0,0,1-3.261-1.217,4.761,4.761,0,0,1-1.327-3.3Zm2.962.185a3.538,3.538,0,0,0,.413,1.934,1.376,1.376,0,0,0,1.222.615q1.582,0,1.617-2.435v-.3q0-2.558-1.635-2.558-1.485,0-1.608,2.206Zm12.5,1.986a.684.684,0,0,0-.4-.606,6.016,6.016,0,0,0-1.5-.475,6.853,6.853,0,0,1-1.828-.646,3.062,3.062,0,0,1-1.1-.971,2.319,2.319,0,0,1-.378-1.31,2.628,2.628,0,0,1,1.081-2.158,4.453,4.453,0,0,1,2.83-.848,4.934,4.934,0,0,1,3.023.853,2.666,2.666,0,0,1,1.143,2.241H60.307q0-1.143-1.2-1.143a1.194,1.194,0,0,0-.782.259.8.8,0,0,0-.316.646.737.737,0,0,0,.387.642,3.654,3.654,0,0,0,1.235.4,10.671,10.671,0,0,1,1.49.378A2.706,2.706,0,0,1,63.26,14.24,2.491,2.491,0,0,1,62.1,16.358a5.068,5.068,0,0,1-2.993.817,5.172,5.172,0,0,1-2.18-.439,3.645,3.645,0,0,1-1.494-1.2A2.707,2.707,0,0,1,54.9,13.95H57.67a1.145,1.145,0,0,0,.439.962,1.808,1.808,0,0,0,1.081.3,1.422,1.422,0,0,0,.91-.246A.787.787,0,0,0,60.4,14.328ZM67.769,17H64.8V7.49h2.971ZM64.622,5.038A1.322,1.322,0,0,1,65.079,4a1.943,1.943,0,0,1,2.373,0,1.322,1.322,0,0,1,.457,1.037,1.322,1.322,0,0,1-.457,1.037,1.943,1.943,0,0,1-2.373,0A1.322,1.322,0,0,1,64.622,5.038Zm8.991,9.853a1.317,1.317,0,0,0,.967-.338,1.241,1.241,0,0,0,.334-.945h2.777a3.288,3.288,0,0,1-1.121,2.566,4.168,4.168,0,0,1-2.887,1,4.22,4.22,0,0,1-3.27-1.3,5.125,5.125,0,0,1-1.2-3.6v-.123A5.792,5.792,0,0,1,69.751,9.6a3.872,3.872,0,0,1,1.534-1.7,4.573,4.573,0,0,1,2.373-.593A4.116,4.116,0,0,1,76.6,8.343a3.647,3.647,0,0,1,1.09,2.786H74.914A1.626,1.626,0,0,0,74.554,10a1.244,1.244,0,0,0-.967-.4q-1.151,0-1.345,1.468a10.357,10.357,0,0,0-.062,1.283,4.068,4.068,0,0,0,.343,1.986A1.187,1.187,0,0,0,73.613,14.891ZM82.068,17H79.1V7.49h2.971ZM78.922,5.038A1.322,1.322,0,0,1,79.379,4a1.943,1.943,0,0,1,2.373,0,1.322,1.322,0,0,1,.457,1.037,1.322,1.322,0,0,1-.457,1.037,1.943,1.943,0,0,1-2.373,0A1.322,1.322,0,0,1,78.922,5.038Zm4.6,7.119a5.613,5.613,0,0,1,.554-2.536,3.96,3.96,0,0,1,1.591-1.709,4.791,4.791,0,0,1,2.435-.6,4.373,4.373,0,0,1,3.366,1.323,5.076,5.076,0,0,1,1.23,3.6v.105a4.925,4.925,0,0,1-1.235,3.529,4.384,4.384,0,0,1-3.344,1.305,4.434,4.434,0,0,1-3.261-1.217,4.761,4.761,0,0,1-1.327-3.3Zm2.962.185a3.538,3.538,0,0,0,.413,1.934,1.376,1.376,0,0,0,1.222.615q1.582,0,1.617-2.435v-.3Q89.732,9.6,88.1,9.6q-1.485,0-1.608,2.206ZM88.5,3.5h3.129L89.188,6.26l-2.417,0ZM96.72,7.49l.1,1.116a3.225,3.225,0,0,1,2.716-1.292,2.713,2.713,0,0,1,2.219.888,4.226,4.226,0,0,1,.76,2.672V17H99.541V11a1.6,1.6,0,0,0-.29-1.059A1.342,1.342,0,0,0,98.2,9.6a1.413,1.413,0,0,0-1.292.686V17H93.942V7.49ZM39.406,42V34.547h-1.38V32.49h1.38v-.316a3.631,3.631,0,0,1,1.248-2.909,4.987,4.987,0,0,1,3.243-.949,11.509,11.509,0,0,1,3.094.51l-.4,2.338-.492-.132a7.832,7.832,0,0,0-2.021-.255q-1.7,0-1.7,1.547v.167H44.24v2.057H42.377V42Zm8.947,0H45.374V32.49h2.979Zm4.526-9.51.1,1.116a3.225,3.225,0,0,1,2.716-1.292,2.713,2.713,0,0,1,2.219.888,4.226,4.226,0,0,1,.76,2.672V42H55.7V36a1.6,1.6,0,0,0-.29-1.059,1.342,1.342,0,0,0-1.055-.338,1.413,1.413,0,0,0-1.292.686V42H50.1V32.49ZM65.668,42a3.344,3.344,0,0,1-.281-.853A2.754,2.754,0,0,1,63.1,42.176a3.374,3.374,0,0,1-2.285-.813,2.588,2.588,0,0,1-.94-2.043,2.66,2.66,0,0,1,1.143-2.338,5.821,5.821,0,0,1,3.322-.791h.914v-.5q0-1.316-1.134-1.316a.927.927,0,0,0-1.055,1.042H60.1a2.655,2.655,0,0,1,1.173-2.239,4.931,4.931,0,0,1,2.993-.86,4.323,4.323,0,0,1,2.874.888,3.086,3.086,0,0,1,1.081,2.435v4.21a4.311,4.311,0,0,0,.4,2V42Zm-1.854-1.934a1.652,1.652,0,0,0,.918-.237,1.487,1.487,0,0,0,.523-.536V37.772h-.861q-1.547,0-1.547,1.389a.848.848,0,0,0,.272.655A.986.986,0,0,0,63.814,40.066ZM72.989,42H70.019V28.5h2.971Z" transform="translate(986.728 4642.287)" fill="#fff"/>
    <path id="Trazado_717593" data-name="Trazado 717593" d="M17.425,6.585H13.584V17H10.5V6.585H6.729V4.2h10.7Zm6.346,3.586-.976-.07A1.752,1.752,0,0,0,21,10.979V17H18.04V7.49h2.777l.1,1.222A2.294,2.294,0,0,1,23,7.314a2.888,2.888,0,0,1,.826.105ZM29.932,17a3.344,3.344,0,0,1-.281-.853,2.754,2.754,0,0,1-2.285,1.028,3.374,3.374,0,0,1-2.285-.813,2.588,2.588,0,0,1-.94-2.043,2.66,2.66,0,0,1,1.143-2.338A5.821,5.821,0,0,1,28.6,11.19h.914v-.5q0-1.316-1.134-1.316a.927.927,0,0,0-1.055,1.042H24.368a2.655,2.655,0,0,1,1.173-2.239,4.931,4.931,0,0,1,2.993-.86,4.323,4.323,0,0,1,2.874.888,3.086,3.086,0,0,1,1.081,2.435v4.21a4.311,4.311,0,0,0,.4,2V17Zm-1.854-1.934A1.652,1.652,0,0,0,29,14.829a1.487,1.487,0,0,0,.523-.536V12.772h-.861q-1.547,0-1.547,1.389a.848.848,0,0,0,.272.655A.986.986,0,0,0,28.077,15.066Zm9.5-9.94V7.49h1.564V9.547H37.578V13.9a1.111,1.111,0,0,0,.193.747,1.037,1.037,0,0,0,.765.211,4.345,4.345,0,0,0,.738-.053v2.118a5.466,5.466,0,0,1-1.67.255,3.1,3.1,0,0,1-2.259-.721,2.954,2.954,0,0,1-.729-2.188V9.547H33.4V7.49h1.213V5.126ZM45.664,17a3.344,3.344,0,0,1-.281-.853A2.754,2.754,0,0,1,43.1,17.176a3.374,3.374,0,0,1-2.285-.813,2.588,2.588,0,0,1-.94-2.043,2.66,2.66,0,0,1,1.143-2.338,5.821,5.821,0,0,1,3.322-.791h.914v-.5q0-1.316-1.134-1.316a.927.927,0,0,0-1.055,1.042H40.1a2.655,2.655,0,0,1,1.173-2.239,4.931,4.931,0,0,1,2.993-.86,4.323,4.323,0,0,1,2.874.888,3.086,3.086,0,0,1,1.081,2.435v4.21a4.311,4.311,0,0,0,.4,2V17ZM43.81,15.066a1.652,1.652,0,0,0,.918-.237,1.487,1.487,0,0,0,.523-.536V12.772H44.39q-1.547,0-1.547,1.389a.848.848,0,0,0,.272.655A.986.986,0,0,0,43.81,15.066ZM52.66,7.49l.1,1.116a3.27,3.27,0,0,1,2.716-1.292,2.407,2.407,0,0,1,2.435,1.433A3.165,3.165,0,0,1,60.7,7.314q2.892,0,2.971,3.5V17H60.7V11a1.813,1.813,0,0,0-.246-1.063,1.048,1.048,0,0,0-.9-.334,1.4,1.4,0,0,0-1.31.782l.009.123V17H55.288V11.015a1.906,1.906,0,0,0-.237-1.081,1.045,1.045,0,0,0-.905-.334,1.42,1.42,0,0,0-1.3.782V17H49.883V7.49ZM68.489,17H65.519V7.49h2.971ZM65.343,5.038A1.322,1.322,0,0,1,65.8,4a1.943,1.943,0,0,1,2.373,0,1.322,1.322,0,0,1,.457,1.037,1.322,1.322,0,0,1-.457,1.037,1.943,1.943,0,0,1-2.373,0A1.322,1.322,0,0,1,65.343,5.038Zm9.571,12.138a4.889,4.889,0,0,1-3.542-1.305,4.507,4.507,0,0,1-1.354-3.4v-.246a5.84,5.84,0,0,1,.541-2.575,3.955,3.955,0,0,1,1.578-1.727A4.763,4.763,0,0,1,74.6,7.314a4.117,4.117,0,0,1,3.164,1.244,4.887,4.887,0,0,1,1.16,3.467v1.151H73.033a2.135,2.135,0,0,0,.694,1.257,2.066,2.066,0,0,0,1.389.457,2.662,2.662,0,0,0,2.2-.984l1.354,1.6A3.784,3.784,0,0,1,77.1,16.723,5.3,5.3,0,0,1,74.914,17.176ZM74.58,9.6q-1.3,0-1.547,1.723h2.988v-.229a1.467,1.467,0,0,0-.36-1.1A1.434,1.434,0,0,0,74.58,9.6ZM82.833,7.49l.1,1.116a3.225,3.225,0,0,1,2.716-1.292,2.713,2.713,0,0,1,2.219.888,4.226,4.226,0,0,1,.76,2.672V17H85.654V11a1.6,1.6,0,0,0-.29-1.059A1.342,1.342,0,0,0,84.31,9.6a1.413,1.413,0,0,0-1.292.686V17H80.056V7.49ZM93.714,5.126V7.49h1.564V9.547H93.714V13.9a1.111,1.111,0,0,0,.193.747,1.037,1.037,0,0,0,.765.211,4.345,4.345,0,0,0,.738-.053v2.118a5.466,5.466,0,0,1-1.67.255,3.1,3.1,0,0,1-2.259-.721,2.954,2.954,0,0,1-.729-2.188V9.547H89.539V7.49h1.213V5.126Zm2.092,7.031a5.613,5.613,0,0,1,.554-2.536A3.96,3.96,0,0,1,97.95,7.912a4.791,4.791,0,0,1,2.435-.6,4.373,4.373,0,0,1,3.366,1.323,5.076,5.076,0,0,1,1.23,3.6v.105a4.925,4.925,0,0,1-1.235,3.529,4.384,4.384,0,0,1-3.344,1.305,4.434,4.434,0,0,1-3.261-1.217,4.761,4.761,0,0,1-1.327-3.3Zm2.962.185a3.538,3.538,0,0,0,.413,1.934,1.376,1.376,0,0,0,1.222.615q1.582,0,1.617-2.435v-.3q0-2.558-1.635-2.558-1.485,0-1.608,2.206Z" transform="translate(778.422 4522.79)" fill="#12263f"/>
    <path id="Trazado_717594" data-name="Trazado 717594" d="M13.729,12.658V17H10.644V4.2h5.106a5.948,5.948,0,0,1,2.6.541A4.074,4.074,0,0,1,20.1,6.282a4.2,4.2,0,0,1,.62,2.263,3.7,3.7,0,0,1-1.34,2.993A5.561,5.561,0,0,1,15.7,12.658Zm0-2.382h2.021a1.906,1.906,0,0,0,1.367-.448,1.665,1.665,0,0,0,.47-1.266A2.059,2.059,0,0,0,17.1,7.13a1.712,1.712,0,0,0-1.318-.545H13.729Zm14.247-.105L27,10.1a1.752,1.752,0,0,0-1.793.879V17H22.246V7.49h2.777l.1,1.222a2.294,2.294,0,0,1,2.083-1.4,2.888,2.888,0,0,1,.826.105Zm.378,1.986a5.613,5.613,0,0,1,.554-2.536A3.96,3.96,0,0,1,30.5,7.912a4.791,4.791,0,0,1,2.435-.6A4.373,4.373,0,0,1,36.3,8.637a5.076,5.076,0,0,1,1.23,3.6v.105a4.925,4.925,0,0,1-1.235,3.529,4.384,4.384,0,0,1-3.344,1.305,4.434,4.434,0,0,1-3.261-1.217,4.761,4.761,0,0,1-1.327-3.3Zm2.962.185a3.538,3.538,0,0,0,.413,1.934,1.376,1.376,0,0,0,1.222.615q1.582,0,1.617-2.435v-.3q0-2.558-1.635-2.558-1.485,0-1.608,2.206Zm7.146-.167a5.809,5.809,0,0,1,.976-3.56,3.211,3.211,0,0,1,2.725-1.3,2.731,2.731,0,0,1,2.145,1V3.5h2.971V17H44.614l-.149-1.02a2.8,2.8,0,0,1-2.32,1.2,3.205,3.205,0,0,1-2.689-1.3A5.993,5.993,0,0,1,38.461,12.175Zm2.962.185q0,2.531,1.477,2.531a1.458,1.458,0,0,0,1.406-.826V10.443A1.419,1.419,0,0,0,42.918,9.6q-1.371,0-1.485,2.215Zm13.2,3.612a3.054,3.054,0,0,1-2.54,1.2,3,3,0,0,1-2.369-.91,3.826,3.826,0,0,1-.8-2.615V7.49h2.962v6.179a1.065,1.065,0,0,0,1.187,1.222,1.548,1.548,0,0,0,1.45-.729V7.49H57.49V17H54.712Zm8.508-1.081a1.317,1.317,0,0,0,.967-.338,1.241,1.241,0,0,0,.334-.945H67.21a3.288,3.288,0,0,1-1.121,2.566,4.168,4.168,0,0,1-2.887,1,4.22,4.22,0,0,1-3.27-1.3,5.125,5.125,0,0,1-1.2-3.6v-.123A5.792,5.792,0,0,1,59.27,9.6a3.872,3.872,0,0,1,1.534-1.7,4.573,4.573,0,0,1,2.373-.593,4.116,4.116,0,0,1,2.944,1.028,3.647,3.647,0,0,1,1.09,2.786H64.433A1.626,1.626,0,0,0,64.073,10a1.244,1.244,0,0,0-.967-.4q-1.151,0-1.345,1.468a10.357,10.357,0,0,0-.062,1.283,4.068,4.068,0,0,0,.343,1.986A1.187,1.187,0,0,0,63.132,14.891Zm9.352,0a1.317,1.317,0,0,0,.967-.338,1.241,1.241,0,0,0,.334-.945h2.777a3.288,3.288,0,0,1-1.121,2.566,4.168,4.168,0,0,1-2.887,1,4.22,4.22,0,0,1-3.27-1.3,5.125,5.125,0,0,1-1.2-3.6v-.123A5.792,5.792,0,0,1,68.621,9.6a3.872,3.872,0,0,1,1.534-1.7,4.573,4.573,0,0,1,2.373-.593,4.116,4.116,0,0,1,2.944,1.028,3.647,3.647,0,0,1,1.09,2.786H73.785A1.626,1.626,0,0,0,73.424,10a1.244,1.244,0,0,0-.967-.4q-1.151,0-1.345,1.468a10.357,10.357,0,0,0-.062,1.283,4.068,4.068,0,0,0,.343,1.986A1.187,1.187,0,0,0,72.484,14.891ZM80.939,17H77.968V7.49h2.971ZM77.793,5.038A1.322,1.322,0,0,1,78.25,4a1.943,1.943,0,0,1,2.373,0,1.322,1.322,0,0,1,.457,1.037,1.322,1.322,0,0,1-.457,1.037,1.943,1.943,0,0,1-2.373,0A1.322,1.322,0,0,1,77.793,5.038Zm4.6,7.119a5.613,5.613,0,0,1,.554-2.536,3.96,3.96,0,0,1,1.591-1.709,4.791,4.791,0,0,1,2.435-.6,4.373,4.373,0,0,1,3.366,1.323,5.076,5.076,0,0,1,1.23,3.6v.105a4.925,4.925,0,0,1-1.235,3.529,4.384,4.384,0,0,1-3.344,1.305,4.434,4.434,0,0,1-3.261-1.217,4.761,4.761,0,0,1-1.327-3.3Zm2.962.185a3.538,3.538,0,0,0,.413,1.934,1.376,1.376,0,0,0,1.222.615q1.582,0,1.617-2.435v-.3Q88.6,9.6,86.968,9.6q-1.485,0-1.608,2.206ZM87.373,3.5H90.5L88.058,6.26l-2.417,0ZM95.59,7.49l.1,1.116A3.225,3.225,0,0,1,98.4,7.314a2.713,2.713,0,0,1,2.219.888,4.226,4.226,0,0,1,.76,2.672V17H98.412V11a1.6,1.6,0,0,0-.29-1.059A1.342,1.342,0,0,0,97.067,9.6a1.413,1.413,0,0,0-1.292.686V17H92.813V7.49Z" transform="translate(567.684 4678.059)" fill="#12263f"/>
    <g id="Trazado_717595" data-name="Trazado 717595" transform="translate(397 4586)" fill="none">
      <path d="M60,0c33.137,0,60,13.208,60,29.5S93.137,59,60,59,0,45.792,0,29.5,26.863,0,60,0Z" stroke="none"/>
      <path d="M 60 3 C 52.10483551025391 3 44.45269012451172 3.758834838867188 37.25608825683594 5.255416870117188 C 30.35814666748047 6.689891815185547 24.18132781982422 8.734546661376953 18.89725494384766 11.33254623413086 C 13.75225830078125 13.86216354370117 9.745857238769531 16.76948928833008 6.989341735839844 19.97372817993164 C 4.342216491699219 23.05085372924805 3 26.25594711303711 3 29.5 C 3 32.74405670166016 4.342216491699219 35.94914627075195 6.989341735839844 39.02627182006836 C 9.745857238769531 42.23050689697266 13.75225830078125 45.13783645629883 18.89725494384766 47.66745376586914 C 24.18132781982422 50.26545333862305 30.35814666748047 52.31010818481445 37.25608825683594 53.74458312988281 C 44.45269012451172 55.24116516113281 52.10483551025391 56 60 56 C 67.89516448974609 56 75.54730987548828 55.24116516113281 82.74391174316406 53.74458312988281 C 89.64185333251953 52.31010818481445 95.81867218017578 50.26545333862305 101.1027450561523 47.66745376586914 C 106.2477416992188 45.13783645629883 110.2541427612305 42.23050689697266 113.0106506347656 39.02627182006836 C 115.6577835083008 35.94914627075195 117 32.74405670166016 117 29.5 C 117 26.25594711303711 115.6577835083008 23.05085372924805 113.0106506347656 19.97372817993164 C 110.2541427612305 16.76948928833008 106.2477416992188 13.86216354370117 101.1027450561523 11.33254623413086 C 95.81867218017578 8.734546661376953 89.64185333251953 6.689891815185547 82.74391174316406 5.255416870117188 C 75.54730987548828 3.758834838867188 67.89516448974609 3 60 3 M 60 0 C 93.13709259033203 0 120 13.20759963989258 120 29.5 C 120 45.79240036010742 93.13709259033203 59 60 59 C 26.86290740966797 59 0 45.79240036010742 0 29.5 C 0 13.20759963989258 26.86290740966797 0 60 0 Z" stroke="none" fill="#03a4a4"/>
    </g>
    <g id="Trazado_717596" data-name="Trazado 717596" transform="translate(634 4093)" fill="none">
      <path d="M60,0c33.137,0,60,13.431,60,30S93.137,60,60,60,0,46.569,0,30,26.863,0,60,0Z" stroke="none"/>
      <path d="M 60 3 C 52.10823822021484 3 44.45941925048828 3.771347045898438 37.26599884033203 5.292636871337891 C 30.37114715576172 6.750762939453125 24.19705200195312 8.82916259765625 18.91523742675781 11.47007369995117 C 13.77053070068359 14.04243469238281 9.763511657714844 16.99985504150391 7.005508422851562 20.26016235351562 C 4.34765625 23.40210723876953 3 26.67907333374023 3 30 C 3 33.32092666625977 4.34765625 36.59789276123047 7.005508422851562 39.73983764648438 C 9.763511657714844 43.00014495849609 13.77053070068359 45.95756530761719 18.91523742675781 48.52992630004883 C 24.19705200195312 51.17083740234375 30.37114715576172 53.24923706054688 37.26599884033203 54.70736312866211 C 44.45941925048828 56.22865295410156 52.10823822021484 57 60 57 C 67.89176177978516 57 75.54058074951172 56.22865295410156 82.73400115966797 54.70736312866211 C 89.62885284423828 53.24923706054688 95.80294799804688 51.17083740234375 101.0847625732422 48.52992630004883 C 106.2294769287109 45.95756530761719 110.2364883422852 43.00014495849609 112.9944915771484 39.73983764648438 C 115.65234375 36.59789276123047 117 33.32092666625977 117 30 C 117 26.67907333374023 115.65234375 23.40210723876953 112.9944915771484 20.26016235351562 C 110.2364883422852 16.99985504150391 106.2294769287109 14.04243469238281 101.0847625732422 11.47007369995117 C 95.80294799804688 8.82916259765625 89.62885284423828 6.750762939453125 82.73400115966797 5.292636871337891 C 75.54058074951172 3.771347045898438 67.89176177978516 3 60 3 M 60 0 C 93.13709259033203 0 120 13.43145370483398 120 30 C 120 46.56854629516602 93.13709259033203 60 60 60 C 26.86290740966797 60 0 46.56854629516602 0 30 C 0 13.43145370483398 26.86290740966797 0 60 0 Z" stroke="none" fill="#03a4a4"/>
    </g>
    <path id="Trazado_717597" data-name="Trazado 717597" d="M30.187,12.474h-1.67V17H25.432V4.2h5.036a5.621,5.621,0,0,1,3.56,1.01,3.421,3.421,0,0,1,1.283,2.853,4.155,4.155,0,0,1-.541,2.213A3.837,3.837,0,0,1,33.078,11.7l2.672,5.167V17h-3.3ZM28.517,10.1h1.951a1.751,1.751,0,0,0,1.323-.463,1.788,1.788,0,0,0,.444-1.291,1.809,1.809,0,0,0-.448-1.3,1.735,1.735,0,0,0-1.318-.471H28.517Zm13.122,7.075A4.889,4.889,0,0,1,38.1,15.871a4.507,4.507,0,0,1-1.354-3.4v-.246a5.84,5.84,0,0,1,.541-2.575,3.955,3.955,0,0,1,1.578-1.727,4.763,4.763,0,0,1,2.461-.611,4.117,4.117,0,0,1,3.164,1.244,4.887,4.887,0,0,1,1.16,3.467v1.151H39.758a2.135,2.135,0,0,0,.694,1.257,2.066,2.066,0,0,0,1.389.457,2.662,2.662,0,0,0,2.2-.984l1.354,1.6a3.784,3.784,0,0,1-1.569,1.217A5.3,5.3,0,0,1,41.639,17.176ZM41.3,9.6q-1.3,0-1.547,1.723h2.988v-.229a1.467,1.467,0,0,0-.36-1.1A1.434,1.434,0,0,0,41.3,9.6Zm5.159,2.575a5.809,5.809,0,0,1,.976-3.56,3.211,3.211,0,0,1,2.725-1.3,2.731,2.731,0,0,1,2.145,1V3.5h2.971V17H52.616l-.149-1.02a2.8,2.8,0,0,1-2.32,1.2,3.205,3.205,0,0,1-2.689-1.3A5.993,5.993,0,0,1,46.464,12.175Zm2.962.185q0,2.531,1.477,2.531a1.458,1.458,0,0,0,1.406-.826V10.443A1.419,1.419,0,0,0,50.92,9.6q-1.371,0-1.485,2.215Zm13.2,3.612a3.054,3.054,0,0,1-2.54,1.2,3,3,0,0,1-2.369-.91,3.826,3.826,0,0,1-.8-2.615V7.49h2.962v6.179a1.065,1.065,0,0,0,1.187,1.222,1.548,1.548,0,0,0,1.45-.729V7.49h2.979V17H62.715Zm8.508-1.081a1.317,1.317,0,0,0,.967-.338,1.241,1.241,0,0,0,.334-.945h2.777a3.288,3.288,0,0,1-1.121,2.566,4.168,4.168,0,0,1-2.887,1,4.22,4.22,0,0,1-3.27-1.3,5.125,5.125,0,0,1-1.2-3.6v-.123A5.792,5.792,0,0,1,67.272,9.6a3.872,3.872,0,0,1,1.534-1.7,4.573,4.573,0,0,1,2.373-.593,4.116,4.116,0,0,1,2.944,1.028,3.647,3.647,0,0,1,1.09,2.786H72.436A1.626,1.626,0,0,0,72.075,10a1.244,1.244,0,0,0-.967-.4q-1.151,0-1.345,1.468a10.357,10.357,0,0,0-.062,1.283,4.068,4.068,0,0,0,.343,1.986A1.187,1.187,0,0,0,71.135,14.891ZM79.59,17H76.619V7.49H79.59ZM76.443,5.038A1.322,1.322,0,0,1,76.9,4a1.943,1.943,0,0,1,2.373,0,1.322,1.322,0,0,1,.457,1.037,1.322,1.322,0,0,1-.457,1.037,1.943,1.943,0,0,1-2.373,0A1.322,1.322,0,0,1,76.443,5.038Zm10.723,5.133-.976-.07a1.752,1.752,0,0,0-1.793.879V17H81.436V7.49h2.777l.1,1.222a2.294,2.294,0,0,1,2.083-1.4,2.888,2.888,0,0,1,.826.105Z" transform="translate(401.088 4601.404)" fill="#12263f"/>
    <path id="Trazado_717598" data-name="Trazado 717598" d="M33.012,12.474h-1.67V17H28.257V4.2h5.036a5.621,5.621,0,0,1,3.56,1.01,3.421,3.421,0,0,1,1.283,2.853,4.155,4.155,0,0,1-.541,2.213A3.837,3.837,0,0,1,35.9,11.7l2.672,5.167V17h-3.3ZM31.342,10.1h1.951a1.751,1.751,0,0,0,1.323-.463,1.788,1.788,0,0,0,.444-1.291,1.809,1.809,0,0,0-.448-1.3,1.735,1.735,0,0,0-1.318-.471H31.342Zm13.122,7.075a4.889,4.889,0,0,1-3.542-1.305,4.507,4.507,0,0,1-1.354-3.4v-.246a5.84,5.84,0,0,1,.541-2.575,3.955,3.955,0,0,1,1.578-1.727,4.763,4.763,0,0,1,2.461-.611,4.117,4.117,0,0,1,3.164,1.244,4.887,4.887,0,0,1,1.16,3.467v1.151H42.584a2.135,2.135,0,0,0,.694,1.257,2.066,2.066,0,0,0,1.389.457,2.662,2.662,0,0,0,2.2-.984l1.354,1.6a3.784,3.784,0,0,1-1.569,1.217A5.3,5.3,0,0,1,44.464,17.176ZM44.13,9.6q-1.3,0-1.547,1.723h2.988v-.229a1.467,1.467,0,0,0-.36-1.1A1.434,1.434,0,0,0,44.13,9.6Zm11.2,6.372a3.054,3.054,0,0,1-2.54,1.2,3,3,0,0,1-2.369-.91,3.826,3.826,0,0,1-.8-2.615V7.49h2.962v6.179a1.065,1.065,0,0,0,1.187,1.222,1.548,1.548,0,0,0,1.45-.729V7.49h2.979V17H55.416Zm9.466-1.644a.684.684,0,0,0-.4-.606,6.016,6.016,0,0,0-1.5-.475,6.853,6.853,0,0,1-1.828-.646,3.062,3.062,0,0,1-1.1-.971,2.319,2.319,0,0,1-.378-1.31,2.628,2.628,0,0,1,1.081-2.158,4.453,4.453,0,0,1,2.83-.848,4.934,4.934,0,0,1,3.023.853,2.666,2.666,0,0,1,1.143,2.241H64.7q0-1.143-1.2-1.143a1.194,1.194,0,0,0-.782.259.8.8,0,0,0-.316.646.737.737,0,0,0,.387.642,3.654,3.654,0,0,0,1.235.4,10.671,10.671,0,0,1,1.49.378A2.706,2.706,0,0,1,67.65,14.24a2.491,2.491,0,0,1-1.156,2.118,5.068,5.068,0,0,1-2.993.817,5.172,5.172,0,0,1-2.18-.439,3.645,3.645,0,0,1-1.494-1.2,2.707,2.707,0,0,1-.536-1.591H62.06a1.145,1.145,0,0,0,.439.962,1.808,1.808,0,0,0,1.081.3,1.422,1.422,0,0,0,.91-.246A.787.787,0,0,0,64.793,14.328ZM74.391,17a3.344,3.344,0,0,1-.281-.853,2.754,2.754,0,0,1-2.285,1.028,3.374,3.374,0,0,1-2.285-.813,2.588,2.588,0,0,1-.94-2.043,2.66,2.66,0,0,1,1.143-2.338,5.821,5.821,0,0,1,3.322-.791h.914v-.5q0-1.316-1.134-1.316a.927.927,0,0,0-1.055,1.042H68.828A2.655,2.655,0,0,1,70,8.175a4.931,4.931,0,0,1,2.993-.86,4.323,4.323,0,0,1,2.874.888,3.086,3.086,0,0,1,1.081,2.435v4.21a4.311,4.311,0,0,0,.4,2V17Zm-1.854-1.934a1.652,1.652,0,0,0,.918-.237,1.487,1.487,0,0,0,.523-.536V12.772h-.861q-1.547,0-1.547,1.389a.848.848,0,0,0,.272.655A.986.986,0,0,0,72.537,15.066Zm11.8-4.9-.976-.07a1.752,1.752,0,0,0-1.793.879V17H78.61V7.49h2.777l.1,1.222a2.294,2.294,0,0,1,2.083-1.4,2.888,2.888,0,0,1,.826.105Z" transform="translate(638.206 4108.772)" fill="#12263f"/>
  </g>
</svg>
