<svg xmlns="http://www.w3.org/2000/svg" width="149" height="147.721" viewBox="0 0 149 147.721">
  <g id="Grupo_1018013" data-name="Grupo 1018013" transform="translate(-988 -921.212)">
    <path id="Trazado_715529" data-name="Trazado 715529" d="M149,98.75c0,40.792-33.355,73.861-74.5,73.861S0,139.541,0,98.75,33.355,24.889,74.5,24.889,149,57.958,149,98.75" transform="translate(988 896.323)" fill="#f6ad4c"/>
    <g id="Grupo_1018012" data-name="Grupo 1018012" transform="translate(455.219 -439.373)">
      <path id="Trazado_717387" data-name="Trazado 717387" d="M569.71,109.731a46.55,46.55,0,1,1-46.55-46.55,46.549,46.549,0,0,1,46.55,46.55" transform="translate(104.018 1326.671)" fill="#abffff"/>
      <path id="Trazado_717388" data-name="Trazado 717388" d="M416.482,236.421v30.037l34.067,2.291,31.726-1.278,44.714-23.928s2.555-11.843-5.323-10.14-33.672,10.14-33.672,10.14-3.59-8.327-9.977-8.169-24.487-2.139-24.487-2.139l-16.4,5.12Z" transform="translate(139.075 1227.526)" fill="#ffe8ce"/>
      <path id="Trazado_717389" data-name="Trazado 717389" d="M454.691,34.306a26.021,26.021,0,1,1-26.021-26,26.011,26.011,0,0,1,26.021,26" transform="translate(147.141 1358.666)" fill="#4aff7a"/>
      <path id="Trazado_717390" data-name="Trazado 717390" d="M450.957,34.609a50.109,50.109,0,0,1,19.082-6.376,49.02,49.02,0,0,1,25.39,3.96,6.572,6.572,0,0,0,2.58-.048c.064,0,.124-.068.19-.082a20.762,20.762,0,0,1,10.58.027c3.189.99,3.962,5.1,1.961,7.848-.406.557-.905,1.046-1.405,1.616,1.848,2.334,3.849,4.539,5.49,6.986q14.149,21.1,5.3,44.975c-.169.455-.36.9-.56,1.344-.535,1.188-1.555,1.9-2.634,1.167a2.978,2.978,0,0,1-.919-2.571c.578-2.41,1.673-4.7,2.249-7.108.636-2.664.919-5.412,1.4-8.421-4.648,0-8.867-.025-13.085.036-.458.007-.958.462-1.355.806-2.414,2.087-4.857,4.145-7.165,6.344a4.507,4.507,0,0,0-1.137,2.475c-.416,2.81-.675,5.643-.965,8.47-.135,1.316-.779,2.11-2.138,2-1.435-.12-1.768-1.144-1.648-2.4.271-2.831.485-5.671.851-8.49a3.3,3.3,0,0,0-1.663-3.451,21.05,21.05,0,0,1-4.082-3.542,6.231,6.231,0,0,0-5.828-2.277c-2.209.184-4.446.021-6.67.043-1.455.014-2.546-.584-2.545-2.082,0-1.451,1.183-1.933,2.482-1.949,2.491-.03,4.983-.009,7.677-.009-.453-3.1.154-5.767,2.323-7.913,2.228-2.2,4.963-2.588,8.239-2.038-.3-2.833-.57-5.546-.883-8.253-.111-.962-.329-1.911-.5-2.866-.631-3.574-.626-3.621-4.158-4a98.636,98.636,0,0,0-25.752.359c-.689.108-1.756.892-1.817,1.452-.826,7.576-1.5,15.169-2.214,22.758-.005.054.065.116.3.506,2.4,0,5.024-.137,7.616.083a3.234,3.234,0,0,1,2.133,1.764c.185.412-.711,1.466-1.316,2.013-.323.292-1.062.157-1.614.16-2.287.013-4.575.005-7.275.005.222,3.762.422,7.4.659,11.031.091,1.385.21,2.773.425,4.143.232,1.476-.213,2.591-1.733,2.728-1.58.142-2.092-1.019-2.178-2.438-.281-4.64-.589-9.279-.889-13.917-.026-.409-.073-.816-.125-1.386H431.7c-.164,4.457.972,8.633,2.37,12.762.111.328.281.637.376.969.377,1.311.772,2.722-1,3.284-1.565.5-2.174-.588-2.671-1.879a47.508,47.508,0,0,1-.7-32.783c.211-.644.433-1.285.63-1.868-2.839.217-5.651.629-8.461.613-13.216-.072-24.86-10.343-26.865-23.4a27.834,27.834,0,0,1,5.787-22.056c.253-.33.487-.843.812-.918a26.639,26.639,0,0,1,2.943-.381c.077.933.492,2.017.157,2.766a35.522,35.522,0,0,1-2.465,3.582A23.953,23.953,0,1,0,429.135,8.068,23.181,23.181,0,0,0,413.094,9.5c-.442.2-.892.392-1.315.629-1.25.7-2.579,1.17-3.378-.443s.232-2.523,1.632-3.243a27.315,27.315,0,0,1,11.961-3.154,27.918,27.918,0,0,1,28.965,29.365c-.019.543,0,1.088,0,1.953M431.671,73.881c7.072,0,13.872-.016,20.672.015,1.128.005,1.356-.514,1.424-1.517.492-7.3,1.039-14.6,1.573-21.963.114.016-.093-.068-.274-.03a63.238,63.238,0,0,0-18.95,7.159A2.743,2.743,0,0,0,435,58.7a37.815,37.815,0,0,0-3.333,15.179m63.45-23.717c.457,2.782.889,5.028,1.179,7.292.286,2.235.429,4.488.654,6.939,3.317-1.129,6.3-1.015,8.864,1.152a8.293,8.293,0,0,1,2.777,8.144h10.781a38.442,38.442,0,0,0-3.431-15.022,2.952,2.952,0,0,0-1.46-1.343c-4.573-1.951-9.153-3.892-13.785-5.7a50.2,50.2,0,0,0-5.579-1.465m-4.837-4.857c-1.446-4.091-2.717-7.786-4.094-11.442A2.1,2.1,0,0,0,484.8,32.9a44.245,44.245,0,0,0-18.55-.03c-.434.091-1.084.273-1.2.578-1.459,3.8-2.838,7.639-4.382,11.863a102.635,102.635,0,0,1,29.619-.006m-.17,22.107c-1.168,1-2.494,1.75-3.249,2.88a3.215,3.215,0,0,0,.677,4.179c2.227,2.18,4.583,4.227,6.854,6.363.932.876,1.71.616,2.513-.142,2.065-1.951,4.205-3.828,6.184-5.863,1.911-1.965,1.95-3.989.345-5.718-1.479-1.594-3.688-1.612-5.757.062a3.02,3.02,0,0,1-4.3.041,23.682,23.682,0,0,0-3.272-1.8M445.258,48.857c3.344-.846,7-1.745,10.641-2.731a1.829,1.829,0,0,0,1.037-1.093c1.014-3.335,1.949-6.694,2.908-10.045l-.291-.515c-3.239,1.882-6.481,3.759-9.711,5.658a1.571,1.571,0,0,0-.5.653c-1.4,2.747-2.786,5.5-4.086,8.074M491.1,34.813c.98,3.46,1.81,6.655,2.834,9.787a2.993,2.993,0,0,0,1.759,1.591c2.956.936,5.99,1.625,8.953,2.541,2.343.724,4.623,1.647,6.932,2.481a35.676,35.676,0,0,0-3.876-5.359c-.776-.934-1.5-1.758-2.886-.665a2.264,2.264,0,0,1-2.16.09c-2.367-2.066-5.323-3.938-6.633-6.591-1.18-2.39-2.712-3.066-4.922-3.876m12.937,6.676c1.132-1.394,2.193-2.574,3.081-3.872a1.991,1.991,0,0,0-.029-1.634c-.083-.189-1.069-.256-1.39-.026a3.151,3.151,0,0,1-4.172.025c-.332-.247-1.062.04-1.608.08.047.555-.117,1.3.18,1.632,1.043,1.167,2.243,2.192,3.938,3.794" transform="translate(151.594 1361.595)" fill="#161615"/>
      <path id="Trazado_717391" data-name="Trazado 717391" d="M458.729,269.169c-3.754,0-7.511-.085-11.262.021a63.339,63.339,0,0,1-14.642-1.522c-3.9-.8-7.976-.714-11.977-.98a17.777,17.777,0,0,1-3.523-.093c-.842-.238-1.492-1.155-2.228-1.77.636-.712,1.237-1.461,1.929-2.113.2-.191.665-.132,1.009-.144a64.062,64.062,0,0,1,18.176,1.6,35.275,35.275,0,0,0,8.219,1.024c9.662.12,19.326.009,28.989.064a22.964,22.964,0,0,0,11.541-2.942c12.435-6.9,24.918-13.721,37.362-20.609.942-.521,2.179-1.181,2.467-2.047a4.768,4.768,0,0,0-.223-3.789,4.143,4.143,0,0,0-3.523-1.244c-4.916,1.153-9.752,2.649-14.617,4.022-.334.094-.676.162-1.006.27-1.214.4-2.316.217-2.755-1.062-.5-1.456.269-2.395,1.692-2.8q6.794-1.926,13.594-3.834c.6-.169,1.2-.347,1.8-.5a7.516,7.516,0,0,1,5.742,13.806c-7.073,3.977-14.207,7.846-21.318,11.756-6.018,3.308-12.049,6.592-18.056,9.921a23.215,23.215,0,0,1-11.748,2.979c-5.214-.061-10.428-.015-15.642-.015" transform="translate(139.882 1229.158)" fill="#161615"/>
      <path id="Trazado_717392" data-name="Trazado 717392" d="M488.011,239.379c2.425-.68,4.762-1.292,7.071-2,1.425-.435,2.743-.468,3.281,1.139.586,1.75-.828,2.29-2.109,2.708-1.184.386-2.419.612-3.612.972-2.657.8-5.364,1.259-6.963,4.176a6.326,6.326,0,0,1-5.7,2.926c-7.854.052-15.709.063-23.563.077-1.367,0-2.4-.595-2.292-2.071.1-1.412,1.112-1.9,2.5-1.892q11.158.046,22.315,0a4.849,4.849,0,0,0,4.919-3.956,4.693,4.693,0,0,0-3.092-5.287,5.755,5.755,0,0,0-1.826-.27c-1.807-.035-3.614-.017-5.422-.013-4.915.009-9.776.088-14.6-1.471-5.268-1.7-10.464-.193-15.44,1.674a28.8,28.8,0,0,1-11.394,1.829c-4.3-.161-8.619-.036-12.929-.037-.487,0-.975.017-1.459-.015-1.3-.088-2.476-.61-2.474-2.01,0-1.473,1.1-2.092,2.567-2.082,3.545.026,7.1-.155,10.634.043a42.891,42.891,0,0,0,17.516-2.637c4.85-1.787,9.9-1.632,14.968-.438a50.357,50.357,0,0,0,8.406,1.034c2.7.167,5.42.027,8.131.031,5.867.008,8.485,1.83,10.57,7.568" transform="translate(139.81 1229.503)" fill="#161615"/>
      <path id="Trazado_717393" data-name="Trazado 717393" d="M437.893,81.1c-.208-.512-.534-.914-.473-1.245.149-.811.253-1.905.8-2.292a2.49,2.49,0,0,1,2.362.073,37.045,37.045,0,0,1,3.937,3.991,2.116,2.116,0,0,1-.187,3.145c-.942,1.017-1.914,2.008-2.9,2.987-.878.875-1.722,1.99-3.174.989-1.4-.965-1.221-2.177-.088-3.724-3.718,0-7.07-.082-10.417.026a5.79,5.79,0,0,1-4.463-9.613A2.774,2.774,0,0,1,425.9,74.8a2.863,2.863,0,0,1,.852,2.58C425.8,80.69,426,81.1,429.423,81.1c2.77,0,5.541,0,8.47,0" transform="translate(135.992 1319.969)" fill="#161615"/>
      <path id="Trazado_717394" data-name="Trazado 717394" d="M436.826,42.514c1.8-.286,3.008.133,3.144,1.67.132,1.495-.929,2.124-2.378,2.293-1.575.183-3.126.563-4.694.815a2.009,2.009,0,0,1-2.431-1.718c-.357-1.335-.677-2.68-.969-4.031-.285-1.317-.6-2.9,1.058-3.324.912-.231,2.082.554,3.4.963,1.076-1.707,2.491-3.922,3.875-6.155a5.854,5.854,0,0,1,6.144-2.993c2.679.347,4.087,2.256,4.976,4.492a2.562,2.562,0,0,1-.9,2.343,2.672,2.672,0,0,1-2.476-.483c-3.1-3.123-3.057-3.176-5.368.561-1.1,1.778-2.173,3.573-3.383,5.566" transform="translate(131.618 1346.034)" fill="#161615"/>
      <path id="Trazado_717395" data-name="Trazado 717395" d="M479.482,55.1c1.148,1.938,2.772,4.35,4.058,6.931,1.855,3.726-1.034,8.293-5.041,8.014-.794-.055-1.524-1.037-2.284-1.591.576-.744,1-1.844,1.757-2.165,2.084-.885,2.486-1.581,1.329-3.533s-2.384-3.862-3.209-5.193c-1.525.281-2.8.923-3.74.6-1.481-.515-1-2.064-.742-3.275.289-1.346.611-2.689,1-4.01a2.2,2.2,0,0,1,2.875-1.668c1.216.254,2.437.484,3.654.733,1.3.265,2.989.5,2.8,2.124-.118,1-1.444,1.856-2.45,3.038" transform="translate(107.101 1334.869)" fill="#161615"/>
      <path id="Trazado_717396" data-name="Trazado 717396" d="M482.932,139.729a37.822,37.822,0,0,1,3.332-15.179,2.745,2.745,0,0,1,1.113-1.155,63.244,63.244,0,0,1,18.95-7.16c.181-.039.389.045.274.03-.535,7.365-1.082,14.662-1.573,21.963-.068,1-.3,1.522-1.424,1.517-6.8-.031-13.6-.015-20.672-.015" transform="translate(100.333 1295.746)" fill="#68f6f6"/>
      <path id="Trazado_717397" data-name="Trazado 717397" d="M635.1,115.714a50.207,50.207,0,0,1,5.579,1.465c4.632,1.8,9.212,3.746,13.785,5.7a2.952,2.952,0,0,1,1.46,1.343,38.443,38.443,0,0,1,3.431,15.022H648.573A8.293,8.293,0,0,0,645.8,131.1c-2.568-2.167-5.547-2.281-8.864-1.152-.225-2.452-.367-4.7-.654-6.939-.29-2.264-.722-4.51-1.179-7.292" transform="translate(11.617 1296.044)" fill="#68f6f6"/>
      <path id="Trazado_717398" data-name="Trazado 717398" d="M582.084,85.327a102.634,102.634,0,0,0-29.619.006c1.544-4.224,2.923-8.058,4.382-11.863.117-.306.767-.487,1.2-.578a44.245,44.245,0,0,1,18.55.03,2.1,2.1,0,0,1,1.393.963c1.377,3.656,2.647,7.351,4.094,11.442" transform="translate(59.794 1321.574)" fill="#68f6f6"/>
      <path id="Trazado_717399" data-name="Trazado 717399" d="M617.843,157.085a23.679,23.679,0,0,1,3.272,1.8,3.02,3.02,0,0,0,4.3-.041c2.069-1.675,4.277-1.656,5.757-.062,1.6,1.729,1.566,3.753-.345,5.718-1.979,2.034-4.119,3.912-6.185,5.863-.8.758-1.581,1.018-2.513.142-2.271-2.136-4.626-4.183-6.854-6.363a3.215,3.215,0,0,1-.677-4.179c.754-1.131,2.08-1.88,3.249-2.88" transform="translate(23.865 1271.923)" fill="red"/>
      <path id="Trazado_717400" data-name="Trazado 717400" d="M515.516,92.467c1.3-2.574,2.687-5.327,4.086-8.074a1.574,1.574,0,0,1,.5-.652c3.229-1.9,6.471-3.776,9.711-5.658l.291.515c-.959,3.351-1.894,6.71-2.908,10.045a1.829,1.829,0,0,1-1.037,1.093c-3.637.986-7.3,1.885-10.641,2.731" transform="translate(81.336 1317.984)" fill="#68f6f6"/>
      <path id="Trazado_717401" data-name="Trazado 717401" d="M625.446,78.9c2.211.81,3.742,1.487,4.922,3.876,1.31,2.652,4.266,4.525,6.633,6.591a2.264,2.264,0,0,0,2.16-.09c1.381-1.093,2.11-.269,2.886.665a35.692,35.692,0,0,1,3.876,5.359c-2.308-.834-4.589-1.757-6.932-2.481-2.963-.916-6-1.606-8.952-2.541a2.992,2.992,0,0,1-1.759-1.591c-1.024-3.132-1.854-6.327-2.834-9.787" transform="translate(17.244 1317.506)" fill="#68f6f6"/>
      <path id="Trazado_717402" data-name="Trazado 717402" d="M650.709,86.973c-1.695-1.6-2.9-2.628-3.938-3.794-.3-.332-.133-1.076-.18-1.632.547-.041,1.276-.327,1.608-.08a3.151,3.151,0,0,0,4.172-.025c.32-.231,1.307-.163,1.39.026a1.991,1.991,0,0,1,.029,1.634c-.888,1.3-1.949,2.477-3.081,3.872" transform="translate(4.919 1316.11)" fill="red"/>
    </g>
  </g>
</svg>
