<svg xmlns="http://www.w3.org/2000/svg" xmlns:xlink="http://www.w3.org/1999/xlink" width="110.867" height="106.734" viewBox="0 0 110.867 106.734">
  <defs>
    <clipPath id="clip-path">
      <rect id="Rectángulo_353809" data-name="Rectángulo 353809" width="110.867" height="103.833" fill="none"/>
    </clipPath>
  </defs>
  <g id="Grupo_992318" data-name="Grupo 992318" transform="translate(-2.739)">
    <path id="Trazado_705812" data-name="Trazado 705812" d="M106.734,78.256A53.367,53.367,0,1,1,53.367,24.889a53.367,53.367,0,0,1,53.367,53.367" transform="translate(2.739 -24.889)" fill="#06d1d1"/>
    <g id="Grupo_1003726" data-name="Grupo 1003726" transform="translate(2.74 1.451)">
      <g id="Grupo_1003725" data-name="Grupo 1003725" clip-path="url(#clip-path)">
        <path id="Trazado_716543" data-name="Trazado 716543" d="M88.683,53.744h3.695V52.381a2.068,2.068,0,0,1,2.311-2.331q6.956-.008,13.914,0a2.047,2.047,0,0,1,2.25,2.272q0,16.277,0,32.554a2.025,2.025,0,0,1-2.213,2.244q-7.044.014-14.087,0a2.024,2.024,0,0,1-2.171-2.175c-.012-1.1,0-2.2,0-3.346-.189-.014-.354-.034-.519-.035-1.751,0-3.5.011-5.254-.012a.722.722,0,0,0-.787.5c-.234.548-.545,1.063-.785,1.609a1.487,1.487,0,0,0-.122.719,5.463,5.463,0,0,1-5.3,6.412,14.127,14.127,0,0,1-2.715-.4.661.661,0,0,0-.519.122,5.7,5.7,0,0,1-5.794,2.015c-.521-.087-.732-.023-.945.515a5.5,5.5,0,0,1-5.238,3.31c-.594-.024-1.29-.344-1.746-.126-.431.208-.573.969-.9,1.449a5.852,5.852,0,0,1-6.9,2.015.96.96,0,0,0-1.032.178c-1.363,1.038-2.721,2.088-4.15,3.03-2.36,1.557-6.711,1.38-8.405-2.214a17.616,17.616,0,0,1-.769-2.55,18.237,18.237,0,0,1-2.5-.019,5.286,5.286,0,0,1-4.239-3.344c-.181-.4-.329-.454-.716-.387a5.847,5.847,0,0,1-5.627-1.581A6.333,6.333,0,0,1,25.841,89a5.78,5.78,0,0,1-4.472-2.372,5.368,5.368,0,0,1-.666-5.012H18.48c0,.467,0,.96,0,1.454a2.007,2.007,0,0,1-1.806,2.19,2.056,2.056,0,0,1-.34,0q-7.1.024-14.2,0A2,2,0,0,1,.006,83.391a1.953,1.953,0,0,1,0-.29Q0,66.738.008,50.374A2,2,0,0,1,2.178,48.2q7.1-.021,14.2,0a2,2,0,0,1,2.1,1.893,1.915,1.915,0,0,1,0,.234c.012.5,0,1,0,1.535h3.7V2.633c0-.212-.01-.426.006-.637A1.993,1.993,0,0,1,24.125.014C24.338,0,24.551,0,24.763,0H86.189c1.769,0,2.494.725,2.494,2.493ZM25.9,51.905c1.158,0,2.288-.014,3.418,0a7.275,7.275,0,0,0,2.906-.617,10.357,10.357,0,0,1,2.988-.978c2.564-.193,5.144-.2,7.718-.222a13.4,13.4,0,0,1,2.29.252,16.239,16.239,0,0,1,8.111,3.891c.3.256.514.378.887.083Q56.377,52.63,58.587,51a12.551,12.551,0,0,1,7.23-2.708c3.038-.07,6.08-.141,9.116-.055a13.531,13.531,0,0,1,8.561,3.129c.48.4.939.832,1.457,1.294V3.753H25.9ZM73.765,87.953c-.194-.179-.378-.351-.56-.517Q67.188,82.029,61.17,76.619q-1.652-1.49-3.246-3.043a1.678,1.678,0,0,1-.567-1.67,1.85,1.85,0,0,1,3.184-.819q6.223,5.528,12.423,11.08c1.558,1.4,3.051,2.88,4.559,4.337a2.466,2.466,0,0,0,2.466.557,1.67,1.67,0,0,0,1.27-1.361,2.422,2.422,0,0,0-1.015-2.463q-9.763-8.725-19.48-17.494a.676.676,0,0,0-.905-.106c-1.7.858-3.381,1.763-5.136,2.484a6.463,6.463,0,0,1-5.593-.229,5.425,5.425,0,0,1-.809-9.146c.767-.636,1.579-1.218,2.413-1.857a2.671,2.671,0,0,0-.315-.342A12.03,12.03,0,0,0,44,53.9c-2.124-.159-4.266-.09-6.4-.147a7.825,7.825,0,0,0-3.689.756,12.027,12.027,0,0,1-5.368,1.109c-3.136-.009-6.273,0-9.409,0H18.52V77.861h5.059a.875.875,0,0,0,.287-.008,2.3,2.3,0,0,0,.614-.273c.86-.65,1.716-1.307,2.554-1.986a6.534,6.534,0,0,1,3.417-1.406,5.589,5.589,0,0,1,5.7,2.8A21.244,21.244,0,0,1,37.13,79.7c.137.027.4.085.66.126A4.724,4.724,0,0,1,41.6,82.5c.487,1.107,1.071,1.1,2.054.993a5.4,5.4,0,0,1,6.036,4.274c.089.45.174.9.272,1.41A7.8,7.8,0,0,1,54,89.412a4.072,4.072,0,0,0-.617-.607c-1.4-1.178-2.805-2.35-4.2-3.534a4.771,4.771,0,0,1-.726-.74,1.764,1.764,0,0,1,.277-2.479l.007-.005A1.611,1.611,0,0,1,50.951,82c1.251.963,2.491,1.944,3.684,2.978,2.5,2.168,4.971,4.375,7.457,6.562a8.594,8.594,0,0,0,1.034.831,2.548,2.548,0,0,0,2.43.122,1.9,1.9,0,0,0,.412-2.972c-2.906-2.441-5.731-4.976-8.576-7.487-1.111-.982-2.2-1.986-3.264-3.024a1.568,1.568,0,0,1-.394-1.81,1.768,1.768,0,0,1,1.53-1.156,2.128,2.128,0,0,1,1.613.636c1.319,1.125,2.657,2.228,3.953,3.379,2.878,2.558,5.731,5.143,8.6,7.712a8.865,8.865,0,0,0,1.119.908,2.321,2.321,0,0,0,3.2-.715l.009-.014m18.574-10.1V57.466c-1.944,0-3.852-.092-5.747.028a4.14,4.14,0,0,1-3.855-1.742,10.191,10.191,0,0,0-8.292-3.842c-2.463-.022-4.925.014-7.387-.01a10.506,10.506,0,0,0-6.608,2.179q-4.681,3.532-9.364,7.054a4.877,4.877,0,0,0-.779.684,1.853,1.853,0,0,0,1.023,3.035,4.371,4.371,0,0,0,2.85-.426c1.842-1,3.736-1.895,5.588-2.874a2.085,2.085,0,0,1,2.679.358c.139.134.288.256.43.387L82.057,79.942c.174.16.365.3.567.468a8.8,8.8,0,0,0,.388-.79,2.576,2.576,0,0,1,2.823-1.783c2.151.063,4.305.016,6.5.016M3.74,81.515H14.753V51.932H3.74ZM107.117,53.8H96.1V83.387h11.016Zm-76,23.934a4.517,4.517,0,0,0-1.34.422c-1.748,1.256-3.49,2.526-5.155,3.888a1.817,1.817,0,0,0,.45,3.065,2.562,2.562,0,0,0,2.539-.176q2.429-1.759,4.791-3.609a1.929,1.929,0,0,0,.768-2.293,2.093,2.093,0,0,0-2.053-1.3M51.342,92.664a2.272,2.272,0,0,0-1.681.579c-1.425,1.079-2.858,2.148-4.28,3.23a3.734,3.734,0,0,0-.671.63,1.839,1.839,0,0,0,.925,2.931,2.772,2.772,0,0,0,2.519-.408c1.485-1.157,3-2.28,4.487-3.431a2,2,0,0,0,.826-2.378c-.252-.739-.94-1.137-2.126-1.154M31.766,90.873a3.414,3.414,0,0,0,2.568-1.354c.748-.711,1.519-1.411,2.31-2.079.587-.5,1.227-.928,1.83-1.408a.88.88,0,0,0,.315-.448,1.734,1.734,0,0,0-1.12-2.042,2.658,2.658,0,0,0-2.44.209c-1.695,1.235-3.373,2.5-5.012,3.8a1.962,1.962,0,0,0-.633,1.171c-.183,1.334.625,2.107,2.179,2.148M43.982,87.1a2.6,2.6,0,0,0-2.3,1.108A24.844,24.844,0,0,1,37.6,91.673a1.506,1.506,0,0,0,.072,2.532,2.767,2.767,0,0,0,2.79.038q2.474-1.793,4.89-3.666a1.89,1.89,0,0,0,.748-2.246c-.292-.823-.911-1.2-2.12-1.231M56.9,96.338a1.8,1.8,0,0,0,2.186-1.292,1.823,1.823,0,0,0,.051-.3,1.638,1.638,0,0,0-.655-1.558c-.683-.528-1.323-1.11-1.983-1.669a5.833,5.833,0,0,1,.4,4.822" transform="translate(0 0)" fill="#121211"/>
        <path id="Trazado_716544" data-name="Trazado 716544" d="M64.986,9.422v48.15h0c1.158,0,2.288-.014,3.418,0a7.282,7.282,0,0,0,2.906-.617,10.354,10.354,0,0,1,2.987-.977c2.564-.193,5.144-.2,7.718-.222a13.362,13.362,0,0,1,2.29.252A16.23,16.23,0,0,1,92.416,59.9c.3.255.514.375.888.083q2.162-1.69,4.37-3.318a12.551,12.551,0,0,1,7.23-2.708c3.038-.071,6.08-.141,9.116-.055a13.533,13.533,0,0,1,8.561,3.128c.479.4.938.833,1.457,1.294V9.422Z" transform="translate(-39.087 -5.667)" fill="#abffff"/>
        <path id="Trazado_716545" data-name="Trazado 716545" d="M101.717,169.078a2.321,2.321,0,0,1-3.2.737l-.013-.008a8.928,8.928,0,0,1-1.119-.907c-2.868-2.568-5.723-5.153-8.6-7.712-1.3-1.151-2.633-2.255-3.953-3.38a2.128,2.128,0,0,0-1.617-.635,1.768,1.768,0,0,0-1.53,1.156,1.568,1.568,0,0,0,.394,1.81c1.059,1.036,2.153,2.04,3.264,3.023,2.843,2.514,5.668,5.047,8.576,7.487a1.9,1.9,0,0,1-.412,2.972,2.546,2.546,0,0,1-2.43-.122,8.628,8.628,0,0,1-1.034-.831c-2.486-2.187-4.954-4.394-7.457-6.562-1.194-1.034-2.433-2.016-3.684-2.978a1.612,1.612,0,0,0-2.214.042,1.764,1.764,0,0,0-.289,2.477l.006.007a4.786,4.786,0,0,0,.725.74c1.4,1.184,2.8,2.357,4.2,3.534a4.093,4.093,0,0,1,.617.607,7.794,7.794,0,0,0-4.031-.236c-.1-.51-.183-.96-.272-1.41a5.4,5.4,0,0,0-6.036-4.273c-.983.105-1.567.115-2.054-.993a4.723,4.723,0,0,0-3.813-2.674c-.263-.043-.523-.1-.66-.126a21.167,21.167,0,0,0-.979-2.715,5.588,5.588,0,0,0-5.7-2.8,6.532,6.532,0,0,0-3.418,1.406c-.838.679-1.693,1.336-2.554,1.986a2.331,2.331,0,0,1-.614.273.887.887,0,0,1-.287.008H46.475V136.74h.614c3.136,0,6.273-.006,9.409,0a12.027,12.027,0,0,0,5.373-1.1,7.831,7.831,0,0,1,3.689-.756c2.133.058,4.274-.011,6.4.147a12.035,12.035,0,0,1,6.419,2.645,2.7,2.7,0,0,1,.315.343c-.834.639-1.646,1.221-2.413,1.857a5.425,5.425,0,0,0,.809,9.146,6.463,6.463,0,0,0,5.59.228c1.755-.724,3.438-1.626,5.136-2.484a.677.677,0,0,1,.906.106q9.726,8.763,19.478,17.5a2.424,2.424,0,0,1,1.015,2.463,1.669,1.669,0,0,1-1.27,1.36,2.464,2.464,0,0,1-2.466-.557c-1.508-1.458-3-2.934-4.559-4.337q-6.185-5.569-12.423-11.08a1.849,1.849,0,0,0-3.184.819,1.678,1.678,0,0,0,.567,1.67q1.6,1.548,3.246,3.043,6.009,5.416,12.035,10.818c.185.166.365.338.56.517" transform="translate(-27.954 -81.124)" fill="#ffe1c3"/>
        <path id="Trazado_716546" data-name="Trazado 716546" d="M167.569,156.184c-2.2,0-4.349.047-6.5-.016a2.579,2.579,0,0,0-2.823,1.783c-.093.252-.236.484-.387.791-.2-.167-.395-.308-.567-.468q-9.592-8.821-19.183-17.645c-.142-.13-.291-.252-.43-.387a2.085,2.085,0,0,0-2.679-.357c-1.851.98-3.746,1.877-5.588,2.874a4.37,4.37,0,0,1-2.85.426,1.854,1.854,0,0,1-1.024-3.036,4.892,4.892,0,0,1,.779-.684q4.679-3.532,9.364-7.054a10.508,10.508,0,0,1,6.608-2.179c2.462.024,4.925-.012,7.388.01a10.2,10.2,0,0,1,8.292,3.842,4.139,4.139,0,0,0,3.854,1.742c1.9-.12,3.8-.027,5.747-.027Z" transform="translate(-75.234 -78.331)" fill="#ffe1c3"/>
        <rect id="Rectángulo_353807" data-name="Rectángulo 353807" width="11.014" height="29.584" transform="translate(3.739 51.932)" fill="#b20d0d"/>
        <rect id="Rectángulo_353808" data-name="Rectángulo 353808" width="11.016" height="29.584" transform="translate(96.101 53.804)" fill="#b20d0d"/>
        <path id="Trazado_716547" data-name="Trazado 716547" d="M67.282,195.063a2.091,2.091,0,0,1,2.052,1.3,1.93,1.93,0,0,1-.767,2.294q-2.364,1.846-4.791,3.607a2.561,2.561,0,0,1-2.539.177,1.817,1.817,0,0,1-.45-3.065c1.665-1.362,3.407-2.631,5.155-3.887a4.509,4.509,0,0,1,1.341-.422" transform="translate(-36.169 -117.327)" fill="#ffe1c3"/>
        <path id="Trazado_716548" data-name="Trazado 716548" d="M118.2,232.508c1.187.016,1.876.415,2.126,1.154a2,2,0,0,1-.826,2.378c-1.492,1.15-3,2.274-4.488,3.431a2.772,2.772,0,0,1-2.519.407,1.84,1.84,0,0,1-.925-2.93,3.75,3.75,0,0,1,.671-.63c1.423-1.082,2.854-2.152,4.28-3.23a2.274,2.274,0,0,1,1.681-.579" transform="translate(-66.859 -139.846)" fill="#ffe1c3"/>
        <path id="Trazado_716549" data-name="Trazado 716549" d="M76.385,216.654c-1.554-.04-2.362-.813-2.179-2.148a1.967,1.967,0,0,1,.633-1.171c1.637-1.308,3.317-2.569,5.012-3.8a2.658,2.658,0,0,1,2.441-.209,1.733,1.733,0,0,1,1.119,2.041.882.882,0,0,1-.315.449c-.6.479-1.243.911-1.83,1.408-.79.669-1.56,1.366-2.31,2.078a3.412,3.412,0,0,1-2.568,1.354" transform="translate(-44.618 -125.782)" fill="#ffe1c3"/>
        <path id="Trazado_716550" data-name="Trazado 716550" d="M99.748,218.545c1.209.028,1.826.409,2.121,1.232a1.889,1.889,0,0,1-.748,2.246q-2.412,1.877-4.891,3.666a2.767,2.767,0,0,1-2.79-.038,1.507,1.507,0,0,1-.072-2.533,24.878,24.878,0,0,0,4.079-3.464,2.6,2.6,0,0,1,2.3-1.109" transform="translate(-55.765 -131.448)" fill="#ffe1c3"/>
        <path id="Trazado_716551" data-name="Trazado 716551" d="M142.173,234.455a5.83,5.83,0,0,0-.4-4.822c.659.559,1.3,1.141,1.983,1.669a1.638,1.638,0,0,1,.655,1.558,1.8,1.8,0,0,1-1.934,1.646,1.826,1.826,0,0,1-.3-.051" transform="translate(-85.274 -138.121)" fill="#ffe1c3"/>
        <path id="Trazado_716552" data-name="Trazado 716552" d="M131.431,43.491c-.785-.179-1.579-.32-2.37-.475a1.851,1.851,0,0,1-1.437-1.122c-.591-1.4-1.165-2.8-1.733-4.2a1.687,1.687,0,0,1,.192-1.646c.448-.671.9-1.338,1.326-2.024a4.7,4.7,0,0,0,.327-.742,1.418,1.418,0,0,0-2.125-1.34c-.748.43-1.455.932-2.165,1.425a1.707,1.707,0,0,1-1.785.218c-1.354-.591-2.721-1.153-4.076-1.74a1.9,1.9,0,0,1-1.155-1.479c-.147-.773-.289-1.547-.467-2.314a1.3,1.3,0,0,0-1.384-1.193A1.324,1.324,0,0,0,113.2,28.07c-.173.747-.326,1.5-.45,2.258A1.975,1.975,0,0,1,111.47,31.9c-1.288.55-2.586,1.079-3.862,1.654a1.868,1.868,0,0,1-2.042-.269c-.6-.446-1.219-.872-1.855-1.267a1.418,1.418,0,0,0-1.893.113,1.388,1.388,0,0,0-.08,1.848c.429.705.89,1.392,1.357,2.073a1.625,1.625,0,0,1,.19,1.636c-.568,1.385-1.125,2.774-1.7,4.155a1.9,1.9,0,0,1-1.471,1.167c-.772.153-1.55.282-2.314.467-.882.214-1.227.644-1.226,1.426,0,.7.349,1.122,1.189,1.331.781.194,1.578.328,2.368.486a1.9,1.9,0,0,1,1.46,1.177c.543,1.27,1.075,2.545,1.639,3.805a2.034,2.034,0,0,1-.252,2.162q-.65.916-1.242,1.873a1.392,1.392,0,0,0,1.934,1.975c.686-.423,1.351-.881,2.015-1.339a1.892,1.892,0,0,1,1.961-.2q1.951.855,3.908,1.694a1.925,1.925,0,0,1,1.19,1.513c.144.754.29,1.508.456,2.258a1.332,1.332,0,0,0,1.361,1.231,1.3,1.3,0,0,0,1.4-1.183c.188-.783.32-1.579.483-2.369a1.854,1.854,0,0,1,1.13-1.427c1.341-.573,2.684-1.139,4.013-1.737a1.769,1.769,0,0,1,1.889.229c.659.465,1.329.918,2.018,1.334a1.34,1.34,0,0,0,1.84-.115,1.361,1.361,0,0,0,.112-1.844c-.406-.674-.859-1.319-1.3-1.975a2.064,2.064,0,0,1-.2-2.08q.809-1.876,1.612-3.755a1.992,1.992,0,0,1,1.6-1.257c.794-.135,1.589-.282,2.368-.485a1.262,1.262,0,0,0,1.065-1.424,1.275,1.275,0,0,0-1.154-1.3m-16.9,6.048a4.714,4.714,0,0,1-4.635-4.751,4.527,4.527,0,0,1,4.72-4.595,4.673,4.673,0,1,1-.084,9.346" transform="translate(-58.086 -16.154)" fill="#ffc403"/>
        <path id="Trazado_716553" data-name="Trazado 716553" d="M131.431,43.491c-.785-.179-1.579-.32-2.37-.475a1.851,1.851,0,0,1-1.437-1.122c-.591-1.4-1.165-2.8-1.733-4.2a1.687,1.687,0,0,1,.192-1.646c.448-.671.9-1.338,1.326-2.024a4.7,4.7,0,0,0,.327-.742,1.418,1.418,0,0,0-2.125-1.34c-.748.43-1.455.932-2.165,1.425a1.707,1.707,0,0,1-1.785.218c-1.354-.591-2.721-1.153-4.076-1.74a1.9,1.9,0,0,1-1.155-1.479c-.147-.773-.289-1.547-.467-2.314a1.3,1.3,0,0,0-1.384-1.193A1.324,1.324,0,0,0,113.2,28.07c-.173.747-.326,1.5-.45,2.258A1.975,1.975,0,0,1,111.47,31.9c-1.288.55-2.586,1.079-3.862,1.654a1.868,1.868,0,0,1-2.042-.269c-.6-.446-1.219-.872-1.855-1.267a1.418,1.418,0,0,0-1.893.113,1.388,1.388,0,0,0-.08,1.848c.429.705.89,1.392,1.357,2.073a1.625,1.625,0,0,1,.19,1.636c-.568,1.385-1.125,2.774-1.7,4.155a1.9,1.9,0,0,1-1.471,1.167c-.772.153-1.55.282-2.314.467-.882.214-1.227.644-1.226,1.426,0,.7.349,1.122,1.189,1.331.781.194,1.578.328,2.368.486a1.9,1.9,0,0,1,1.46,1.177c.543,1.27,1.075,2.545,1.639,3.805a2.034,2.034,0,0,1-.252,2.162q-.65.916-1.242,1.873a1.392,1.392,0,0,0,1.934,1.975c.686-.423,1.351-.881,2.015-1.339a1.892,1.892,0,0,1,1.961-.2q1.951.855,3.908,1.694a1.925,1.925,0,0,1,1.19,1.513c.144.754.29,1.508.456,2.258a1.332,1.332,0,0,0,1.361,1.231,1.3,1.3,0,0,0,1.4-1.183c.188-.783.32-1.579.483-2.369a1.854,1.854,0,0,1,1.13-1.427c1.341-.573,2.684-1.139,4.013-1.737a1.769,1.769,0,0,1,1.889.229c.659.465,1.329.918,2.018,1.334a1.34,1.34,0,0,0,1.84-.115,1.361,1.361,0,0,0,.112-1.844c-.406-.674-.859-1.319-1.3-1.975a2.064,2.064,0,0,1-.2-2.08q.809-1.876,1.612-3.755a1.992,1.992,0,0,1,1.6-1.257c.794-.135,1.589-.282,2.368-.485a1.262,1.262,0,0,0,1.065-1.424A1.275,1.275,0,0,0,131.431,43.491Zm-16.9,6.048a4.714,4.714,0,0,1-4.635-4.751,4.527,4.527,0,0,1,4.72-4.595,4.673,4.673,0,1,1-.084,9.346Z" transform="translate(-58.086 -16.154)" fill="none" stroke="#161615" stroke-miterlimit="10" stroke-width="1"/>
        <path id="Trazado_716554" data-name="Trazado 716554" d="M126.064,27.772a4.868,4.868,0,0,1-1.117,3.1,2.073,2.073,0,0,0-.312,2.384,2.388,2.388,0,0,0,2.118,1.653,4.676,4.676,0,0,1,3.9,3.408,4.767,4.767,0,0,1-3.778,6.018c-2.052.46-1.446.054-2.334,1.973a1.49,1.49,0,0,0,.188,1.778,8.76,8.76,0,0,1,.764,1.218,4.86,4.86,0,0,1-7.537,5.678c-.622-.6-1.231-.468-1.989-.219a2.4,2.4,0,0,0-1.822,2.155,4.744,4.744,0,0,1-9.3.556c-.055-.184-.087-.374-.137-.559-.138-.515-.118-1.251-.454-1.5a8.36,8.36,0,0,0-2.268-.946c-.165-.056-.424.114-.621.216a15.07,15.07,0,0,1-2.693,1.381,4.775,4.775,0,0,1-5.4-2.839,4.373,4.373,0,0,1,.622-4.763,2.24,2.24,0,0,0,.265-2.69A1.9,1.9,0,0,0,92.5,44.426a4.895,4.895,0,0,1-3.375-1.8,4.748,4.748,0,0,1,2.48-7.608,4.272,4.272,0,0,1,1.008-.232c.855-.036,1.172-.549,1.524-1.268a2.412,2.412,0,0,0-.308-2.844c-2.537-3.409.212-7.315,3.539-7.633a4.579,4.579,0,0,1,3.464,1.165,1.885,1.885,0,0,0,2.167.251,2.339,2.339,0,0,0,1.734-2.1,4.745,4.745,0,0,1,9.328-.51c.029.112.053.224.083.336.15.551.129,1.325.49,1.6a8.176,8.176,0,0,0,2.3,1c.157.056.413-.124.608-.225a13.9,13.9,0,0,1,2.746-1.4,4.77,4.77,0,0,1,5.643,3.762c.065.318.1.644.127.836m-3.464.27a1.418,1.418,0,0,0-2.125-1.339c-.748.43-1.455.932-2.165,1.425a1.708,1.708,0,0,1-1.785.218c-1.354-.592-2.721-1.153-4.076-1.74a1.9,1.9,0,0,1-1.155-1.479c-.147-.773-.289-1.548-.467-2.314a1.3,1.3,0,0,0-1.384-1.192,1.324,1.324,0,0,0-1.378,1.213c-.173.748-.326,1.5-.45,2.258a1.976,1.976,0,0,1-1.279,1.576c-1.288.55-2.586,1.079-3.862,1.654a1.868,1.868,0,0,1-2.042-.269c-.6-.446-1.22-.872-1.855-1.267a1.418,1.418,0,0,0-1.893.113,1.389,1.389,0,0,0-.08,1.848c.43.705.89,1.392,1.357,2.073a1.626,1.626,0,0,1,.19,1.636c-.568,1.384-1.125,2.774-1.7,4.154a1.9,1.9,0,0,1-1.471,1.167c-.772.153-1.55.283-2.314.467-.882.214-1.227.645-1.226,1.426,0,.7.349,1.122,1.189,1.331.781.194,1.578.328,2.368.486a1.9,1.9,0,0,1,1.46,1.177c.543,1.27,1.075,2.545,1.639,3.805a2.034,2.034,0,0,1-.252,2.162q-.65.916-1.242,1.873a1.392,1.392,0,0,0,1.934,1.974c.686-.423,1.351-.881,2.015-1.339a1.892,1.892,0,0,1,1.961-.2q1.951.855,3.908,1.694a1.925,1.925,0,0,1,1.19,1.513c.144.754.29,1.508.456,2.258a1.332,1.332,0,0,0,1.361,1.231,1.3,1.3,0,0,0,1.4-1.183c.188-.783.32-1.579.483-2.368a1.853,1.853,0,0,1,1.13-1.427c1.341-.573,2.684-1.14,4.013-1.738a1.769,1.769,0,0,1,1.889.229c.659.465,1.328.918,2.018,1.334a1.34,1.34,0,0,0,1.84-.115,1.361,1.361,0,0,0,.112-1.844c-.406-.674-.86-1.319-1.3-1.975a2.064,2.064,0,0,1-.2-2.08q.809-1.876,1.612-3.754a1.993,1.993,0,0,1,1.6-1.257c.794-.135,1.589-.281,2.368-.485a1.261,1.261,0,0,0,1.065-1.424,1.275,1.275,0,0,0-1.154-1.3c-.785-.179-1.58-.32-2.37-.475a1.852,1.852,0,0,1-1.437-1.122q-.887-2.093-1.733-4.2a1.686,1.686,0,0,1,.192-1.645c.448-.671.9-1.339,1.326-2.024a4.762,4.762,0,0,0,.327-.742" transform="translate(-52.957 -10.927)" fill="#161615"/>
        <path id="Trazado_716555" data-name="Trazado 716555" d="M129.5,67.9a8.086,8.086,0,1,1,8.145-8.053A8.1,8.1,0,0,1,129.5,67.9m.087-12.734a4.527,4.527,0,0,0-4.72,4.595,4.714,4.714,0,0,0,4.635,4.751,4.673,4.673,0,1,0,.084-9.346" transform="translate(-73.062 -31.114)" fill="#161615"/>
      </g>
    </g>
  </g>
</svg>
