<svg xmlns="http://www.w3.org/2000/svg" xmlns:xlink="http://www.w3.org/1999/xlink" width="200.927" height="194.885" viewBox="0 0 200.927 194.885">
  <defs>
    <clipPath id="clip-path">
      <rect id="Rectángulo_354402" data-name="Rectángulo 354402" width="186.427" height="186.353" fill="none"/>
    </clipPath>
  </defs>
  <g id="Grupo_1018178" data-name="Grupo 1018178" transform="translate(-180 -7928.267)">
    <path id="Trazado_717288" data-name="Trazado 717288" d="M166.509,108.144A83.254,83.254,0,1,1,83.254,24.889a83.255,83.255,0,0,1,83.255,83.255" transform="translate(180 7903.378)" fill="#ffc403"/>
    <g id="Grupo_1017989" data-name="Grupo 1017989" transform="translate(194.5 7936.799)">
      <g id="Grupo_1017988" data-name="Grupo 1017988" clip-path="url(#clip-path)">
        <path id="Trazado_717289" data-name="Trazado 717289" d="M218.681,126.234l-16.8-18.725s33.608-42.874-8.747-83.186-89.2,3.072-89.2,3.072-44.708,45.785-2.5,89.031,85.9,6.242,85.9,6.242l19.134,20.86Z" transform="translate(-80.744 -2.996)" fill="#06d1d1"/>
        <path id="Trazado_717290" data-name="Trazado 717290" d="M138.9,120.877c-4.431-4.491-8.835-8.855-13.071-13.377a3.145,3.145,0,0,1-.169-2.946,67.21,67.21,0,0,0,10.446-32.835A67.288,67.288,0,0,0,120.747,24.81c-1.162-1.436-2.582-2.257-4.244-.951-1.824,1.433-1.166,3.006.076,4.524A60.939,60.939,0,0,1,130.362,61.4a61.467,61.467,0,0,1-8.828,39.228c-3.193,5.2-2.9,7.654,1.462,12.006,4.046,4.038,8.117,8.052,12.211,12.109l-10.539,10.417c-4.131-4.225-8.295-8.54-12.524-12.79-3.665-3.685-6.472-3.983-10.859-1.305-37.7,23.012-86.072,2.09-94.564-41.3A62.114,62.114,0,0,1,53.758,7.2c18.978-4.413,36.481-.619,52.235,10.968a6.064,6.064,0,0,0,3.022,1.479c.786.013,2.267-1.119,2.25-1.708a5.243,5.243,0,0,0-1.4-3.624A62.819,62.819,0,0,0,86.757,2.525C51.691-7.013,16.546,11.172,4.017,45.241c-14.043,38.185,10.2,81.488,49.854,89.328,17.934,3.545,34.6.712,50.183-8.778,1.287-.784,2.389-1.432,3.809.014,4.274,4.355,8.672,8.587,12.963,12.808-2.73,4.615-2.722,4.625.923,8.275,1.37,1.371,3.336,2.48,2.351,4.973l10.843,10.845c2.376-.938,3.508.875,4.842,2.207,6.38,6.374,12.786,12.723,19.1,19.159a6.764,6.764,0,0,0,5.359,2.278c6.108-.13,12.222-.1,18.332-.02,2.7.034,3.881-1.079,3.847-3.81-.078-6.207.114-12.421-.117-18.62a7.908,7.908,0,0,0-1.993-4.792c-6.659-6.914-13.548-13.606-20.263-20.467-.736-.751-.84-2.111-1.27-3.175a10.029,10.029,0,0,0-1.36-3.036c-2.217-2.435-4.594-4.726-6.969-7.011-.606-.583-1.579-1.458-2.137-1.3-3.019.83-4.273-1.45-5.91-3.052-3.069-3-3.734-3.068-7.5-.186m19.078,20.129a7.191,7.191,0,0,1,1.154.665q10.407,10.365,20.777,20.767a3.32,3.32,0,0,1,1.061,1.955c.086,5.4.048,10.8.048,16.545-1.386,0-2.422.012-3.458,0-4.644-.062-9.781,1.083-13.789-.546-3.9-1.586-6.667-6-9.9-9.2-4.258-4.208-8.489-8.442-12.771-12.705.441-.559.653-.869.906-1.141,1.295-1.393,1.785-2.927.129-4.268-1.553-1.258-3.059-.674-4.356.683-.784.821-1.64,1.573-2.121,2.03L131.03,151.8l20.518-20.661,5.036,4.091c-2.625,2.524-4.966,4.7-7.217,6.966-1.576,1.586-4.209,3.286-1.728,5.715,2.545,2.493,4.1-.45,5.665-1.919,1.68-1.573,3.163-3.357,4.677-4.991m-12.322-12.763L128.906,144.97l-3.179-1.881L143.211,125.6l2.447,2.639" transform="translate(0.001 0)" fill="#161615"/>
        <path id="Trazado_717291" data-name="Trazado 717291" d="M112.169,79.085a52.97,52.97,0,1,0,52.6-53.144,53.042,53.042,0,0,0-52.6,53.144m52.974,47.235a47.475,47.475,0,1,1,47.4-47.548,47.542,47.542,0,0,1-47.4,47.548" transform="translate(-96.972 -10.841)" fill="#161615"/>
        <path id="Trazado_717292" data-name="Trazado 717292" d="M52.192,34.618a27.357,27.357,0,0,0,4.474-1.746c3.975-2.394,7.864-4.934,11.746-7.48,4.219-2.765,5.332-7.1,2.9-10.987-2.348-3.76-7.067-4.722-11.178-2.162-4.268,2.657-8.522,5.343-12.677,8.171a7.47,7.47,0,0,0-2.735,8.769c1.125,3.18,3.856,5.072,7.467,5.435M65,16.04c.587.546,1.683,1.111,1.675,1.659a3.984,3.984,0,0,1-1.131,2.9c-3.719,2.593-7.609,4.942-11.419,7.407-1.308.846-2.68,1.557-3.773-.068-1.127-1.677-.169-2.842,1.333-3.782,3.763-2.356,7.484-4.781,11.237-7.152A19.424,19.424,0,0,1,65,16.04" transform="translate(88.079 -4.518)" fill="#161615"/>
        <path id="Trazado_717293" data-name="Trazado 717293" d="M22.773,71.856c.013,4.523,3.518,8.278,7.978,7.524A129.049,129.049,0,0,0,48.4,74.943c3.547-1.132,5.185-5.693,4.019-9.224a7.5,7.5,0,0,0-8.585-5.265c-5.36,1.2-10.685,2.582-15.962,4.106a7.215,7.215,0,0,0-5.1,7.3m22.462-6.212c.583.576,1.735,1.2,1.827,1.946a2.9,2.9,0,0,1-1.339,2.452c-4.9,1.482-9.843,2.813-14.832,3.932-.721.161-2.144-.889-2.5-1.7a2.811,2.811,0,0,1,1.271-2.462c4.993-1.485,10.059-2.725,15.577-4.165" transform="translate(120.383 -25.196)" fill="#161615"/>
        <path id="Trazado_717294" data-name="Trazado 717294" d="M28.983,112.68a41.517,41.517,0,0,0-4.632.029,7.575,7.575,0,0,0-6.657,7.835,7.683,7.683,0,0,0,7.058,7.5c4.824.366,9.648.719,14.476,1.014,4.989.3,8.748-2.85,8.943-7.422.2-4.668-3.169-7.985-8.184-8.2-3.67-.155-7.335-.456-11-.693,0-.021,0-.042,0-.063m8.434,10.691c-4.174-.249-7.766-.283-11.293-.782-1.091-.154-2.755-1.508-2.835-2.428-.153-1.745,1.508-2.159,3.128-2.033,2.119.166,4.241.289,6.362.419a63.969,63.969,0,0,1,7.5.542c.906.164,1.6,1.494,2.391,2.292a11.406,11.406,0,0,1-2.693,1.92,6.832,6.832,0,0,1-2.559.071" transform="translate(127.951 -47.069)" fill="#161615"/>
        <path id="Trazado_717295" data-name="Trazado 717295" d="M36.227,235.168c-1.514,1.633-3,3.417-4.677,4.991-1.569,1.469-3.119,4.411-5.665,1.919-2.48-2.43.153-4.13,1.728-5.716,2.251-2.266,4.593-4.442,7.218-6.966L29.794,225.3,9.276,245.966,13.9,249.95c.48-.456,1.336-1.209,2.121-2.03,1.3-1.357,2.8-1.941,4.356-.683,1.657,1.342,1.166,2.875-.129,4.269-.253.272-.464.582-.906,1.141,4.283,4.263,8.514,8.5,12.771,12.7,3.237,3.2,6,7.612,9.9,9.2,4.009,1.629,9.146.483,13.789.546,1.036.014,2.072,0,3.459,0,0-5.749.037-11.148-.048-16.546a3.323,3.323,0,0,0-1.061-1.955Q47.805,246.18,37.381,235.832a7.3,7.3,0,0,0-1.154-.664" transform="translate(121.754 -94.161)" fill="#b20d0d"/>
        <path id="Trazado_717296" data-name="Trazado 717296" d="M89.97,218.428l-2.447-2.639L70.039,233.273l3.179,1.881L89.97,218.428" transform="translate(55.689 -90.184)" fill="#a03d3d"/>
        <path id="Trazado_717297" data-name="Trazado 717297" d="M169.157,130.217a47.475,47.475,0,1,0-47.546-47.476,47.394,47.394,0,0,0,47.546,47.476" transform="translate(-100.918 -14.739)" fill="#ffdbdb"/>
        <path id="Trazado_717298" data-name="Trazado 717298" d="M69.555,19.794a19.423,19.423,0,0,0-2.077.967c-3.754,2.371-7.474,4.8-11.237,7.152-1.5.941-2.46,2.105-1.333,3.782,1.093,1.625,2.465.914,3.773.068,3.81-2.466,7.7-4.814,11.419-7.407a3.984,3.984,0,0,0,1.131-2.9c.008-.549-1.088-1.114-1.675-1.659" transform="translate(83.523 -8.272)" fill="#abffff"/>
        <path id="Trazado_717299" data-name="Trazado 717299" d="M49.488,69.49C43.97,70.93,38.9,72.169,33.911,73.655a2.811,2.811,0,0,0-1.271,2.462c.36.815,1.783,1.866,2.5,1.7,4.989-1.12,9.937-2.451,14.832-3.932a2.9,2.9,0,0,0,1.339-2.452c-.092-.75-1.244-1.371-1.827-1.946" transform="translate(116.129 -29.042)" fill="#abffff"/>
        <path id="Trazado_717300" data-name="Trazado 717300" d="M41.3,127.308a6.832,6.832,0,0,0,2.559-.071,11.406,11.406,0,0,0,2.693-1.92c-.79-.8-1.485-2.128-2.391-2.292a63.968,63.968,0,0,0-7.5-.542c-2.121-.129-4.243-.253-6.362-.419-1.62-.126-3.281.288-3.128,2.033.08.92,1.744,2.274,2.835,2.428,3.527.5,7.119.533,11.293.782" transform="translate(124.072 -51.005)" fill="#abffff"/>
        <path id="Trazado_717301" data-name="Trazado 717301" d="M175.848,76.823c-9.428.119-17.65,3.607-25.15,9.066a66.335,66.335,0,0,0-12.689,12.283c-.463.577-.82,1.013-.2,1.782,6.986,8.63,15.187,15.665,25.815,19.406,11.239,3.957,21.93,2.311,32.148-3.479a62.359,62.359,0,0,0,18.105-15.9,1.579,1.579,0,0,0,.087-1.484c-7.292-9.116-15.921-16.483-27.31-19.926a107.032,107.032,0,0,0-10.728-2.13q-.041.194-.081.386m.031,5.407c1.782.354,3.59.614,5.339,1.09,1.58.43,2.171,1.449,1.76,2.564-.386,1.049-1.426,1.331-2.912,1a17.247,17.247,0,0,0-4.658-.733,13.033,13.033,0,1,0,1.487,26.019A12.93,12.93,0,0,0,188.754,97.4c-.306-1.557.308-2.579,1.5-2.748,1.228-.175,2.051.609,2.275,2.167a16.863,16.863,0,0,1-19.013,18.972,16.639,16.639,0,0,1-14.261-18.513,16.911,16.911,0,0,1,16.623-15.048m.032,24.391a7.446,7.446,0,1,1,7.426-7.5,7.451,7.451,0,0,1-7.426,7.5m11.1-14.9a2,2,0,0,1-1.856-1.944,1.931,1.931,0,0,1,2.033-1.742,1.82,1.82,0,0,1,1.764,1.846,1.916,1.916,0,0,1-1.941,1.839" transform="translate(-107.708 -31.945)" fill="#fff"/>
        <path id="Trazado_717302" data-name="Trazado 717302" d="M176.768,104.41a15.448,15.448,0,1,0,15.448-15.448,15.448,15.448,0,0,0-15.448,15.448" transform="translate(-124.128 -37.18)" fill="#03a4a4"/>
        <path id="Trazado_717303" data-name="Trazado 717303" d="M173.662,122.831c9.483-.086,18.676-4,27.007-10.23a70.705,70.705,0,0,0,13.922-13.969,2.634,2.634,0,0,0,.029-3.693c-6.571-8.607-14.419-15.693-24.334-20.228-13.53-6.188-26.756-5.127-39.554,2.165A65.637,65.637,0,0,0,130.745,94.85c-1.331,1.772-1.348,2.061-.031,3.78,7.63,9.955,16.848,17.841,28.888,22.01a41.963,41.963,0,0,0,14.061,2.192m-1.072-48.42c.027-.129.054-.258.081-.386a107,107,0,0,1,10.728,2.13c11.389,3.443,20.018,10.81,27.31,19.926a1.579,1.579,0,0,1-.087,1.484,62.368,62.368,0,0,1-18.105,15.9c-10.219,5.79-20.91,7.436-32.148,3.479-10.627-3.742-18.829-10.776-25.815-19.407-.622-.768-.265-1.2.2-1.782a66.3,66.3,0,0,1,12.69-12.282c7.5-5.459,15.722-8.947,25.15-9.066" transform="translate(-104.451 -29.533)" fill="#161615"/>
        <path id="Trazado_717304" data-name="Trazado 717304" d="M197.817,117.6a7.447,7.447,0,1,0-7.466-7.464,7.454,7.454,0,0,0,7.466,7.464m-3.7-7.432a3.683,3.683,0,1,1,3.659,3.669,3.636,3.636,0,0,1-3.659-3.669" transform="translate(-129.615 -42.924)" fill="#161615"/>
        <path id="Trazado_717305" data-name="Trazado 717305" d="M182.557,100.044a1.916,1.916,0,0,0,1.941-1.839,1.82,1.82,0,0,0-1.764-1.846A1.931,1.931,0,0,0,180.7,98.1a2,2,0,0,0,1.856,1.944" transform="translate(-103.254 -40.268)" fill="#161615"/>
        <path id="Trazado_717306" data-name="Trazado 717306" d="M196.815,112.871a3.683,3.683,0,1,0,3.63-3.7,3.642,3.642,0,0,0-3.63,3.7" transform="translate(-132.313 -45.627)" fill="#abffff"/>
        <path id="Trazado_717307" data-name="Trazado 717307" d="M190.992,86.391a16.912,16.912,0,0,0-16.623,15.048,16.639,16.639,0,0,0,14.261,18.513,16.863,16.863,0,0,0,19.013-18.972c-.224-1.558-1.047-2.342-2.275-2.167-1.193.17-1.806,1.191-1.5,2.748a12.93,12.93,0,0,1-11.859,14.767,13.033,13.033,0,1,1-1.487-26.019,17.2,17.2,0,0,1,4.658.733c1.487.334,2.525.052,2.912-1,.41-1.115-.179-2.134-1.76-2.564-1.749-.476-3.557-.736-5.339-1.09" transform="translate(-122.821 -36.105)" fill="#161615"/>
      </g>
    </g>
  </g>
</svg>
