<svg xmlns="http://www.w3.org/2000/svg" width="149" height="153.779" viewBox="0 0 149 153.779">
  <g id="Grupo_1018011" data-name="Grupo 1018011" transform="translate(-454.5 -915.154)">
    <path id="Trazado_715529" data-name="Trazado 715529" d="M149,98.75c0,40.792-33.355,73.861-74.5,73.861S0,139.541,0,98.75,33.355,24.889,74.5,24.889,149,57.958,149,98.75" transform="translate(454.5 896.323)" fill="#f6ad4c"/>
    <g id="Grupo_1018010" data-name="Grupo 1018010" transform="translate(-186.966 -448.898)">
      <rect id="Rectángulo_354411" data-name="Rectángulo 354411" width="79.564" height="66.407" transform="translate(690.371 1433.011)" fill="#a03d3d"/>
      <path id="Trazado_717359" data-name="Trazado 717359" d="M1046.311,253.929A11.61,11.61,0,1,1,1034.7,242.32a11.61,11.61,0,0,1,11.609,11.609" transform="translate(-264.658 1235.09)" fill="#afafaf"/>
      <path id="Trazado_717360" data-name="Trazado 717360" d="M832.578,182.44a7.653,7.653,0,0,1-.306,8.916,59.31,59.31,0,0,1,5.391,2.887c1.669,1.117,3.088,2.6,4.711,3.8.509.374,1.7.656,1.927.4a3.393,3.393,0,0,0,.643-2.188,22.27,22.27,0,0,0-.517-4.017,3.667,3.667,0,0,0-.944-1.912c-5.9-5.241-4.767-7.48.138-12.071,3.26-3.051,5.434-3.155,8.568.013,1.51,1.527,2.766,3.065,5.449,2.54,1.083-.211,2.71,1.024,3.717,1.99,4.273,4.1,8.367,8.38,12.634,12.483a3.758,3.758,0,0,0,2.764.835,9.7,9.7,0,0,1,10.517,6.347,4.8,4.8,0,0,0,1.743,2.22A11.856,11.856,0,0,1,894.2,218.26a11.72,11.72,0,0,1-11.526,8.192c-31.409.013-62.819-.158-94.226.105-9.623.08-18.075-7.834-14.6-19.831a20.961,20.961,0,0,1,11.357-13.51c1.107-.546,2.2-1.13,3.479-1.793-1.819-2.9-2.225-5.827-.254-8.955-4.484-3.471-3.844-8.4-3.561-13.11a6.775,6.775,0,0,1,6.426-6.045,6.919,6.919,0,0,1,7.205,5.1,7.529,7.529,0,0,1,.293,1.6c.094,1.539.807,2.615,2.4,2.58s2.125-1.179,2.318-2.683c.639-4.979,4.949-7.79,9.393-6.158a6.667,6.667,0,0,1,4.568,5.949c.161,1.581.613,2.87,2.353,2.889s2.22-1.243,2.408-2.832a7.01,7.01,0,0,1,13.993.795c.083,4.3.448,8.688-3.65,11.892m16.241,17.981c-.262.521-.419.768-.516,1.037-1.458,4.05-1.455,4.049-5.242,2.173-1.78-.882-3.732-.9-4.958.561a6.582,6.582,0,0,0-1.605,4.495c.3,2.168-.026,3.371-2.093,4.209a4.3,4.3,0,0,0-2.764,4.883c.327,2.543,2.356,3.991,5.457,3.994q21.864.02,43.729,0a26.546,26.546,0,0,0,2.8-.049,6.976,6.976,0,0,0,2.578-13.159,6.812,6.812,0,0,0-8.162,1.309,7.438,7.438,0,0,0-.948,1.522l-4.089-2.47c1.955-3.808,5.371-5.112,9.072-6.051-2.235-2.537-4.273-2.775-6.836-.951-2.135,1.519-3.06,1.37-4.353-.7q-2.356-3.779-5.819-2.488c-2.429.91-3.359,2.806-2.8,5.843.334,1.824-.425,3.024-2.2,3.115-3.072.158-4.632,1.828-5.269,4.608h-5.172l3.535-7.422-4.349-4.46m-29.838-6.929c-5.492,4.463-8.26,9.8-8.541,16.471h-4.573c-.1-5.312,1.672-9.918,4.6-14.562-6.343,2.415-11.273,5.7-13.279,12.189-2.822,9.139,3.125,14.8,10.293,14.226,2.862-.231,5.759-.038,8.639-.038h11.822c-1.451-3.632-1.759-7.1.693-9.945a16.241,16.241,0,0,0,3.575-7.124c.519-2.108,2.56-3.841,4.064-5.935l-10.839-5.489,4,6.428-4.014,1.8-6.445-8.025m-23.761,28.267c-3.776-4.973-4.1-10.033-2.547-15.41,1.545-5.333,4.92-9.276,9.568-12.375-3.434-.959-5.626.247-7.643,2.6a22.153,22.153,0,0,0-5.243,13.356h-5.188l3.445-12.48c-5.935,2-10.687,9.584-9.795,16.044a9.342,9.342,0,0,0,8.782,8.236c2.707.147,5.429.027,8.621.027m24.624-42.082c1.168,0,2.34-.059,3.5.01,7.346.435,8.527-1.763,8.227-8.344-.074-1.62-.3-3.131-2.173-3.278s-2.4,1.195-2.571,2.888a6.671,6.671,0,0,1-4.57,5.942,6.93,6.93,0,0,1-9.374-5.917c-.208-1.676-.678-3.042-2.551-2.914s-2.236,1.622-2.179,3.255c.04,1.167-.031,2.338.019,3.5a4.724,4.724,0,0,0,4.895,4.838c2.256.066,4.516.013,6.774.017m.245,4.683q-3.386,0-6.772,0c-1.523,0-2.681.633-2.742,2.22-.066,1.728,1.108,2.448,2.741,2.45q6.538.011,13.077,0c1.634,0,2.808-.725,2.743-2.449-.06-1.583-1.216-2.225-2.742-2.221-2.1.006-4.2,0-6.305,0m37.175,17.392a9.935,9.935,0,0,1,7.947-8.034l-3.6-3.779-4.666,5.748-3.993-3.906c1.691-1.488,3.268-2.762,4.678-4.2.342-.349.135-1.237.2-2.082l-8.515,8.346,7.952,7.907M803.659,177.2a22.761,22.761,0,0,1-3.953-.036c-3.193-.608-4.9-2.891-5.661-6.565a4.241,4.241,0,0,0-2.18-2.458c-.411-.2-2.113.9-2.158,1.489a21.778,21.778,0,0,0,.3,7.1,4.7,4.7,0,0,0,3.324,2.744c3.637.364,7.334.13,11.185.13l-.862-2.4m2.256,7.173c-3.864,0-7.814-.135-11.74.109-.829.051-1.572,1.487-2.354,2.285.829.754,1.621,2.1,2.493,2.157,3.852.238,7.727.1,11.6.1Zm38.47.084,3.643,3.069,3.176-3.159-3.468-3.512-3.351,3.6" transform="translate(-131.587 1277.153)" fill="#161615"/>
      <path id="Trazado_717361" data-name="Trazado 717361" d="M860.945,89.012c-.072-.729-.132-1.332-.22-2.223-1.064,0-2.129,0-3.195,0-3.11-.013-3.694-.583-3.706-3.639-.008-2.182.071-4.368-.021-6.547-.1-2.345.378-4.11,3.267-3.891-1.829-7.044-1-9.221,5.53-13.986-2.041-1.9-4.043-3.718-6-5.586a5.24,5.24,0,0,1-1.695-5.065,2.739,2.739,0,0,0-.858-2.1c-5.961-5.328-4.665-7.537.173-12.075,3.246-3.046,5.447-3.155,8.56.045,1.519,1.562,2.818,2.979,5.459,2.519,1.1-.192,2.7,1.042,3.715,2.005,3.551,3.376,6.946,6.917,10.032,10.025l9.263-1.925c0-4.487,0-9.377,0-14.266,0-3.528.469-3.985,4.056-3.988q3.625,0,7.25,0a2.427,2.427,0,0,1,2.727,2.742c.005,2.1,0,4.191,0,6.448h4.678c0-2.017-.021-4.02.005-6.023.032-2.444.744-3.143,3.232-3.165,2.572-.023,5.146.036,7.717-.017,2.17-.045,3.113.951,3.1,3.107-.044,5.133-.014,10.266-.014,15.5,4.234.367,7.6,2.044,9.889,5.5,5.982-1.337,10.056-.127,12.182,4.035a25.662,25.662,0,0,0,3.888,5.862c2.387,2.612,2.595,5.852,1.524,9.216a6,6,0,0,0,.136,2.237c.139,1.372.377,2.738.429,4.113.074,1.946-.02,3.9.029,5.845.054,2.166-.951,3.166-3.109,3.089-1.227-.043-2.457-.007-3.918-.007V121.7H940.4V86.909H912.388v23.126h-4.712V86.959H865.614c-.057.636-.117,1.292-.185,2.053Zm13.546-24.318c-2.486,1.342-4.367,2.278-6.351-.31-1.09-1.423-3.11-1.308-4.76-.414-1.718.93-2.9,2.541-2.4,4.383A8.292,8.292,0,0,0,863.8,72.24c.764.616,2.224.493,3.371.494q36.944.035,73.889.015a13.541,13.541,0,0,0,2.333-.078,4.323,4.323,0,0,0,2.956-6.909c-3.412,3.741-4.906,4.562-8.233,4.47V65.9c.6-.21,1.128-.362,1.629-.571a4.612,4.612,0,0,0-.829-8.814c-1.649-.344-3.334-.3-3.413,2.137h-4.3c-.189-.633-.361-1.215-.537-1.8a6.868,6.868,0,0,0-9-4.7c-2.595.883-3.07,1.74-2.562,4.479a17.654,17.654,0,0,1,.142,2.013h-4.494c-.568-3.6-2.344-6.176-6.052-6.822a6.733,6.733,0,0,0-6.737,2.81c3.53,2.335,4.323,3.291,4.789,5.7-2.039.98-3.851,1.9-5.8-.57-1.233-1.565-3.387-1.4-5.148-.276a4.385,4.385,0,0,0-2.134,4.585,14.95,14.95,0,0,0,.908,2.638l-3.136,2.785c-4.351-4.671-3.048-10.792,2.983-14.77a6.763,6.763,0,0,0-10.657-.753,2.392,2.392,0,0,0-.511,3.115,21.637,21.637,0,0,1,1.169,3.869h-4.71a17.5,17.5,0,0,0-.728-2.01,4.625,4.625,0,0,0-7.644-.881c-.833.989-1.2,1.8.143,2.9a22.378,22.378,0,0,1,3,3.732m21.436-31.6c0,4.78.121,9.295-.052,13.8a4.361,4.361,0,0,0,2.49,4.433c5.9-5.437,10.78-5.745,17.662-.986,1.06-1.039,3.035-2.057,3.13-3.227.372-4.617.153-9.28.153-13.961h-4.67c0,2.168-.027,4.182.008,6.194s-.88,3.033-2.941,3.011q-4.086-.042-8.173,0c-2.062.021-2.972-.988-2.936-3.014.037-2.071.009-4.143.009-6.249ZM858.612,81.952h48.819v-4.4H858.612Zm53.778-.031h34.858V77.579H912.391ZM860.025,49.109l6.812,7.025c2.866-4.042,6.8-5.3,11.513-3.9l-6.328-6.466-4.506,5.6-3.973-3.955c1.674-1.472,3.252-2.746,4.664-4.183.344-.35.141-1.237.19-1.878l-.592.034-7.778,7.717m-4.8-9.507,2.927,3.632,3.453-2.779-3.013-3.973L855.226,39.6" transform="translate(-172.572 1348.992)" fill="#161615"/>
      <path id="Trazado_717362" data-name="Trazado 717362" d="M1033.16,244.872l-2.559-3.357c2.208-3.252,10.495-4.7,16.262-.619a14.079,14.079,0,0,1,4.2,18.243,13.766,13.766,0,0,1-17.762,6.071c.287-.76.632-1.517.858-2.308.426-1.5,1.225-1.809,2.771-1.442a9.016,9.016,0,0,0,10.036-4.623,9.293,9.293,0,0,0-12.092-12.869c-.493.229-.963.506-1.715.9" transform="translate(-268.654 1237.177)" fill="#161615"/>
      <path id="Trazado_717363" data-name="Trazado 717363" d="M824.458,62.587c3.523-4.43,4.192-8.985,1.277-13.76a43.467,43.467,0,0,0-2.791-3.438,15.323,15.323,0,0,1,1.4-20.081l2.818,3.123c-.753,1.749-1.948,3.643-2.369,5.7-.763,3.722.486,6.947,3.07,9.835,5.609,6.27,5.828,14.9.734,20.837-.248.289-.55.532-.977.94l-3.162-3.152" transform="translate(-156.491 1350.584)" fill="#161615"/>
      <path id="Trazado_717364" data-name="Trazado 717364" d="M799.891,72.924l2.667-2.463c3.979,2.813,5.93,9.956,3.939,15.407a19.974,19.974,0,0,1-3.218,5.607c-4.742,5.848-5.023,9.782-.73,16.16l-3.188,2.91c-5.752-4.858-6.094-14.68-.467-21.086,2.443-2.781,4.156-5.769,3.482-9.483-.416-2.292-1.542-4.455-2.486-7.053" transform="translate(-143.191 1326.553)" fill="#161615"/>
      <path id="Trazado_717365" data-name="Trazado 717365" d="M897.333,34.727c0-.836.005-1.528,0-2.22-.038-4.574-1.984-6.634-6.584-6.973a11.178,11.178,0,0,1-7.043-3.241c-1.463-1.388-3-2.695-4.626-4.142l3.982-3.847a40.133,40.133,0,0,0,4,4.52,8.208,8.208,0,0,0,4.061,1.955c7.379.868,10.94,4.726,10.891,12.159,0,.539,0,1.078,0,1.789Z" transform="translate(-188.014 1356.44)" fill="#161615"/>
      <path id="Trazado_717366" data-name="Trazado 717366" d="M1042.728,52.056c-1.6,0-2.974,0-4.349,0-1.513-6.295,1.534-10.819,7.8-11.593,2.334-.288,3.432-1.453,3.545-3.828.047-.987.008-1.979.008-3.073,1.6,0,2.974,0,4.348,0,1.515,6.289-1.535,10.815-7.809,11.592-2.333.289-3.431,1.457-3.541,3.829-.045.987-.007,1.978-.007,3.073" transform="translate(-272.591 1346.192)" fill="#161615"/>
      <path id="Trazado_717367" data-name="Trazado 717367" d="M1021.939,42.232c-3.707-4.064-3.993-8.505-.964-12.187,1.8-2.189,2.485-4.257.7-6.8l3.1-3.138a8.419,8.419,0,0,1,.746,11.7c-1.565,1.979-2.623,3.826-1.158,6.331.193.329-.339,1.171-.665,1.694-.494.793-1.1,1.514-1.757,2.395" transform="translate(-262.432 1353.35)" fill="#161615"/>
      <path id="Trazado_717368" data-name="Trazado 717368" d="M872.506,4.525l-3.247,3.242-4.43-4.577L868.136,0l4.37,4.525" transform="translate(-180.43 1364.053)" fill="#161615"/>
      <path id="Trazado_717369" data-name="Trazado 717369" d="M1010.266,7.824l3.013-2.847,4.437,4.854-3.128,2.948-4.323-4.955" transform="translate(-257.832 1361.403)" fill="#161615"/>
      <path id="Trazado_717370" data-name="Trazado 717370" d="M838.081,17.782l-3.3-3.243,4.509-4.6,3.318,3.237-4.525,4.609" transform="translate(-164.438 1358.766)" fill="#161615"/>
      <path id="Trazado_717371" data-name="Trazado 717371" d="M794.013,62.678l-4.171-4.141,3.444-3.164,4.1,4.5-3.371,2.805" transform="translate(-140.522 1334.583)" fill="#161615"/>
      <path id="Trazado_717372" data-name="Trazado 717372" d="M1063.51,13.327h4.311V17.85h-4.311Z" transform="translate(-286.169 1356.961)" fill="#161615"/>
      <path id="Trazado_717373" data-name="Trazado 717373" d="M1045.074,268.453c-.623-.893-1.62-1.724-1.781-2.695a1.87,1.87,0,0,1,2.248-2.224,3.2,3.2,0,0,1,2.16,2.093c.068.887-.99,1.86-1.558,2.8l-1.069.03" transform="translate(-275.392 1223.823)" fill="#161615"/>
      <path id="Trazado_717374" data-name="Trazado 717374" d="M915.413,240.38l4.349,4.46-3.535,7.422H921.4c.637-2.781,2.2-4.45,5.269-4.608,1.771-.091,2.53-1.291,2.2-3.115-.556-3.036.373-4.932,2.8-5.843q3.454-1.294,5.818,2.488c1.293,2.073,2.218,2.223,4.353.7,2.563-1.824,4.6-1.586,6.836.951-3.7.938-7.117,2.243-9.072,6.051l4.089,2.47a7.455,7.455,0,0,1,.948-1.522,6.812,6.812,0,0,1,8.162-1.309,6.976,6.976,0,0,1-2.578,13.159,26.275,26.275,0,0,1-2.8.049q-21.865,0-43.73,0c-3.1,0-5.13-1.451-5.456-3.994A4.3,4.3,0,0,1,901,252.854c2.068-.837,2.393-2.041,2.093-4.209a6.581,6.581,0,0,1,1.606-4.495c1.226-1.465,3.177-1.443,4.958-.56,3.787,1.876,3.784,1.876,5.242-2.173.1-.269.255-.517.516-1.038" transform="translate(-198.181 1237.194)" fill="#8d5a33"/>
      <path id="Trazado_717375" data-name="Trazado 717375" d="M845.626,227.624l6.445,8.025,4.014-1.8-4-6.428,10.838,5.489c-1.5,2.094-3.545,3.828-4.064,5.935a16.25,16.25,0,0,1-3.575,7.124c-2.452,2.849-2.144,6.313-.694,9.945H842.766c-2.881,0-5.777-.193-8.639.038-7.168.578-13.114-5.086-10.292-14.226,2-6.492,6.936-9.774,13.278-12.189-2.929,4.644-4.7,9.25-4.6,14.562h4.573c.28-6.668,3.049-12.008,8.54-16.471" transform="translate(-158.232 1243.021)" fill="#0d315f"/>
      <path id="Trazado_717376" data-name="Trazado 717376" d="M800.516,256.3c-3.192,0-5.913.12-8.62-.027a9.343,9.343,0,0,1-8.782-8.236c-.893-6.459,3.859-14.047,9.795-16.044l-3.445,12.48h5.188a22.155,22.155,0,0,1,5.243-13.356c2.016-2.356,4.209-3.562,7.643-2.6-4.648,3.1-8.023,7.042-9.568,12.375-1.558,5.376-1.228,10.437,2.547,15.41" transform="translate(-136.884 1242.614)" fill="#0d315f"/>
      <path id="Trazado_717377" data-name="Trazado 717377" d="M859.771,185.1c-2.258,0-4.518.051-6.774-.015a4.724,4.724,0,0,1-4.895-4.838c-.05-1.166.021-2.337-.02-3.5-.057-1.633.3-3.127,2.179-3.255s2.344,1.238,2.551,2.914a6.929,6.929,0,0,0,9.374,5.917,6.67,6.67,0,0,0,4.57-5.942c.172-1.693.7-3.034,2.571-2.888s2.1,1.658,2.173,3.279c.3,6.58-.881,8.778-8.227,8.344-1.164-.07-2.336-.01-3.5-.012" transform="translate(-171.515 1271.727)" fill="#0d315f"/>
      <path id="Trazado_717378" data-name="Trazado 717378" d="M862.773,208.334c2.1,0,4.2,0,6.3,0,1.526,0,2.682.638,2.742,2.221.066,1.724-1.109,2.447-2.743,2.45q-6.538.011-13.077,0c-1.633,0-2.807-.722-2.741-2.45.06-1.587,1.219-2.223,2.742-2.22q3.386.006,6.772,0" transform="translate(-174.272 1253.179)"/>
      <path id="Trazado_717379" data-name="Trazado 717379" d="M944.021,227.024l-7.952-7.907,8.515-8.345c-.06.845.147,1.733-.2,2.081-1.411,1.438-2.987,2.712-4.679,4.2l3.993,3.906,4.666-5.748,3.6,3.779a9.936,9.936,0,0,0-7.946,8.034" transform="translate(-218.345 1251.88)" fill="#5dcaca"/>
      <path id="Trazado_717380" data-name="Trazado 717380" d="M822.443,182.693l.861,2.4c-3.851,0-7.548.234-11.185-.13a4.7,4.7,0,0,1-3.324-2.744,21.766,21.766,0,0,1-.3-7.1c.044-.589,1.746-1.692,2.158-1.489a4.244,4.244,0,0,1,2.181,2.458c.758,3.674,2.468,5.957,5.661,6.565a22.76,22.76,0,0,0,3.953.036" transform="translate(-150.371 1271.657)" fill="#0d315f"/>
      <path id="Trazado_717381" data-name="Trazado 717381" d="M827.267,208.317v4.653c-3.874,0-7.749.135-11.6-.1-.872-.054-1.665-1.4-2.494-2.157.783-.8,1.525-2.233,2.354-2.285,3.926-.243,7.876-.109,11.74-.109" transform="translate(-152.938 1253.207)"/>
      <path id="Trazado_717382" data-name="Trazado 717382" d="M925.538,204.443l3.351-3.6,3.468,3.512-3.176,3.159-3.643-3.069" transform="translate(-212.74 1257.165)" fill="#5dcaca"/>
      <path id="Trazado_717383" data-name="Trazado 717383" d="M886.777,91.33a22.371,22.371,0,0,0-3-3.732c-1.338-1.1-.976-1.91-.143-2.9a4.625,4.625,0,0,1,7.644.881,17.432,17.432,0,0,1,.728,2.01h4.71a21.612,21.612,0,0,0-1.169-3.869,2.392,2.392,0,0,1,.512-3.115,6.763,6.763,0,0,1,10.656.753c-6.031,3.978-7.334,10.1-2.983,14.77l3.135-2.785a14.955,14.955,0,0,1-.908-2.638,4.385,4.385,0,0,1,2.134-4.585c1.76-1.12,3.915-1.289,5.148.276,1.948,2.472,3.761,1.55,5.8.573-.466-2.411-1.259-3.368-4.789-5.7a6.733,6.733,0,0,1,6.737-2.81c3.709.646,5.484,3.227,6.052,6.822h4.494a17.692,17.692,0,0,0-.142-2.013c-.508-2.739-.033-3.6,2.562-4.479a6.868,6.868,0,0,1,9,4.7c.176.581.348,1.163.538,1.8h4.3c.079-2.434,1.764-2.482,3.413-2.137a4.612,4.612,0,0,1,.828,8.814c-.5.21-1.026.362-1.629.571v4.333c3.327.092,4.82-.729,8.233-4.47a4.323,4.323,0,0,1-2.956,6.909,13.581,13.581,0,0,1-2.333.078q-36.944,0-73.889-.015c-1.148,0-2.607.123-3.372-.494a8.291,8.291,0,0,1-2.825-3.886c-.5-1.843.684-3.453,2.4-4.384,1.65-.894,3.67-1.009,4.76.414,1.984,2.588,3.865,1.652,6.351.31" transform="translate(-184.858 1322.356)" fill="#8d5a33"/>
      <path id="Trazado_717384" data-name="Trazado 717384" d="M948.039,38.542h4.676c0,2.107.029,4.179-.009,6.249-.036,2.026.874,3.035,2.937,3.014q4.086-.041,8.173,0c2.061.021,2.976-.987,2.941-3.011s-.008-4.026-.008-6.194h4.67c0,4.68.219,9.344-.152,13.96-.094,1.17-2.069,2.188-3.13,3.227-6.882-4.759-11.766-4.451-17.662.986a4.361,4.361,0,0,1-2.49-4.433c.173-4.5.053-9.017.053-13.8" transform="translate(-224.684 1343.54)" fill="#5dcaca"/>
      <rect id="Rectángulo_354412" data-name="Rectángulo 354412" width="48.819" height="4.402" transform="translate(686.041 1426.542)" fill="#b20d0d"/>
      <rect id="Rectángulo_354413" data-name="Rectángulo 354413" width="34.858" height="4.342" transform="translate(739.819 1426.571)" fill="#b20d0d"/>
      <path id="Trazado_717385" data-name="Trazado 717385" d="M871.36,63.969l7.778-7.717.592-.033c-.049.64.154,1.527-.19,1.878-1.412,1.437-2.99,2.711-4.664,4.183l3.973,3.955,4.506-5.6,6.329,6.466c-4.714-1.4-8.647-.145-11.513,3.9l-6.812-7.026" transform="translate(-183.906 1334.132)" fill="#5dcaca"/>
      <path id="Trazado_717386" data-name="Trazado 717386" d="M861.1,48.915l3.367-3.119,3.013,3.973-3.453,2.779L861.1,48.915" transform="translate(-178.446 1339.68)" fill="#5dcaca"/>
    </g>
  </g>
</svg>
