<svg xmlns="http://www.w3.org/2000/svg" xmlns:xlink="http://www.w3.org/1999/xlink" width="166.509" height="166.51" viewBox="0 0 166.509 166.51">
  <defs>
    <clipPath id="clip-path">
      <rect id="Rect치ngulo_354406" data-name="Rect치ngulo 354406" width="154.009" height="153.633" fill="none"/>
    </clipPath>
  </defs>
  <g id="Grupo_1018188" data-name="Grupo 1018188" transform="translate(-180 -391)">
    <path id="Trazado_717308" data-name="Trazado 717308" d="M166.509,108.144A83.254,83.254,0,1,1,83.254,24.889a83.255,83.255,0,0,1,83.255,83.255" transform="translate(180 366.111)" fill="#06d1d1"/>
    <g id="Grupo_1017995" data-name="Grupo 1017995" transform="translate(186 397)">
      <g id="Grupo_1017994" data-name="Grupo 1017994" clip-path="url(#clip-path)">
        <path id="Trazado_717310" data-name="Trazado 717310" d="M140.414,25.525s-4.886-4.655-12.235,8.084-7.84,19.353-4.165,22.538,15.035,5.879,23.686,3.674,15.288-8.9,12.013-14.342-13.381-20.785-13.381-20.785Z" transform="translate(-63.354 -12.848)" fill="#c2acac"/>
        <path id="Trazado_717311" data-name="Trazado 717311" d="M227.445,237.961h38.176c.068.676.183,1.288.184,1.9q.016,14.628,0,29.256c0,2.952-.963,3.87-4.151,3.878q-15.17.035-30.342,0c-2.88-.007-4.03-.914-4.038-3.249-.034-10.232-.014-20.463,0-30.694a7.9,7.9,0,0,1,.172-1.088" transform="translate(-121.136 -123.799)" fill="#0fd67a"/>
        <path id="Trazado_717312" data-name="Trazado 717312" d="M12.967,182.9h3.9c0-1.293-.085-2.477.018-3.645.214-2.425,1.4-3.479,3.966-3.5q6.476-.06,12.954,0c2.992.021,4.02,1.045,4.126,4.014.036,1.017.006,2.036.006,3.154h3.807c1.536-6.96-1.9-11.313-8.9-11.325q-3.478-.006-6.956-.012c-1.475,0-2.556-.546-2.536-2.181.019-1.6,1.055-2.21,2.547-2.208,3.2.005,6.4-.107,9.594.04a11.7,11.7,0,0,1,10.935,11.527c.019,1.342,0,2.685,0,3.783a15.472,15.472,0,0,0,11.422.073c.131-1.7.159-3.609.447-5.48A11.615,11.615,0,0,1,69.751,167.2c4.717-.061,9.436-.032,14.154-.01,7.027.033,12.019,4.879,12.329,11.959.052,1.185.007,2.375.007,3.344,3.857,1.778,7.566,1.336,11.574.119,0-.987-.008-2.243,0-3.5A11.7,11.7,0,0,1,119.592,167.2c4.637-.051,9.275-.026,13.913-.008,7.236.029,12.156,4.893,12.295,12.135.021,1.111,0,2.222,0,3.22.272.206.386.367.512.378,5.957.53,7.585,2.32,7.585,8.361a11.981,11.981,0,0,1-.071,3.576c-.548,1.67-1.137,3.907-2.424,4.626-2.351,1.314-2.278,3.037-2.269,5.117q.059,13.913.012,27.827c-.009,5.346-2.8,8.15-8.083,8.156q-14.274.017-28.547,0c-5.2-.006-8.019-2.81-8.041-7.952-.007-1.68,0-3.359,0-5.038,0-1.519.753-2.693,2.258-2.359a3.409,3.409,0,0,1,2,2.311,34.915,34.915,0,0,1,.113,5.26c.07,2.089,1.191,3.322,3.294,3.331q14.633.059,29.266,0c1.936-.007,3.264-1,3.271-3.051.039-10.55.018-21.1.018-31.888H108.84c0,5.012.069,9.953-.06,14.889a3.737,3.737,0,0,1-1.322,2.715c-1.428.907-2.945-.4-2.965-2.453-.044-4.478-.162-8.963.05-13.431.1-2.061-1-2.951-2.492-3.017-1.607-.071-2.547.958-2.524,2.938.107,9.434.049,18.87.047,28.306,0,6.951-2.457,9.439-9.308,9.439q-13.434,0-26.867,0c-6.013,0-8.708-2.722-8.715-8.829-.011-9.6-.066-19.192.05-28.786.023-1.933-.8-3.1-2.405-3.083-1.625.014-2.641,1.035-2.612,3.14.137,9.834.068,19.67.058,29.506-.005,5.289-2.813,8.046-8.186,8.051q-14.154.012-28.307,0c-5.344,0-8.166-2.772-8.176-8.062-.019-9.835-.03-19.671.021-29.506a2.861,2.861,0,0,0-1.67-2.966c-4.306-2.475-4.691-12.983-.564-15.716,1.445-.956,3.37-1.187,5.6-1.923,0-1.151-.076-2.8.015-4.43a10.557,10.557,0,0,1,5.369-8.818,3.432,3.432,0,0,1,3.087.443c1.156.92.666,2.326-.434,3.057-3.707,2.464-3.983,6.071-3.564,10.232M9.759,201.135a4.528,4.528,0,0,0-.2.841c-.013,10.309-.041,20.619,0,30.928.008,2.2,1.166,3.233,3.566,3.242q14.266.055,28.531,0c2.677-.01,3.739-1.122,3.745-3.853q.036-14.985,0-29.97a9.09,9.09,0,0,0-.164-1.191Zm49.714-.012a8.5,8.5,0,0,0-.159,1.088c-.009,10.231-.027,20.463,0,30.694.007,2.335,1.071,3.242,3.734,3.249q14.028.037,28.056,0c2.948-.008,3.835-.926,3.838-3.878q.018-14.628,0-29.256c0-.611-.107-1.222-.17-1.9Zm-32.1-4.7H44.857c5.251,0,5.251,0,5.227-5.2-.015-3.367-.361-3.731-3.672-3.733q-17.844-.009-35.688,0c-6.093,0-6.037,0-5.977,6.013.022,2.135.792,2.986,2.985,2.955,6.546-.095,13.093-.034,19.64-.034m99.155,0h17.724c5.239,0,5.239,0,5.223-5.208-.01-3.347-.368-3.722-3.684-3.724q-17.844-.009-35.688,0c-6.117,0-6.066,0-5.962,6.021.036,2.109.773,2.986,2.987,2.95,6.465-.105,12.933-.037,19.4-.037m-49.386,0q8.5,0,17.008,0c6.051.009,5.567.468,5.554-5.535-.007-3.107-.278-3.395-3.431-3.4-11.9-.009-23.8.013-35.693-.011-7.032-.014-5.893-.161-6.061,6.076-.059,2.23.846,2.925,2.981,2.9,6.547-.087,13.1-.032,19.643-.031m64.079-13.483c.843-8.169-2.016-11.354-9.947-11.354q-4.794,0-9.588,0c-7.274,0-10.575,4.025-9.225,11.252h3.85c0-.962-.011-1.749,0-2.536.059-3.622.971-4.551,4.541-4.564,4.155-.015,8.31-.03,12.464.008,2.772.025,3.92,1.145,4.074,3.9.06,1.073.01,2.153.01,3.3Zm-49.746-.017c.792-8.392-1.86-11.337-9.958-11.337-3.356,0-6.713-.008-10.069,0-6.793.019-10.257,4.652-8.47,11.249h3.58c0-.971,0-1.764,0-2.557.027-3.437,1.124-4.529,4.615-4.542,4.076-.014,8.152-.024,12.227,0,3.121.021,4.257,1.206,4.291,4.383.01.924,0,1.847,0,2.8Zm-8.482-2.606H71.307V182.9H82.994ZM21.59,182.9H33.27v-2.572H21.59Zm99.333-2.589v2.559h11.861c-.045-.921-.082-1.684-.124-2.559Z" transform="translate(0 -86.961)" fill="#161615"/>
        <path id="Trazado_717313" data-name="Trazado 717313" d="M130.618,52.275v-2.2c-.833-.158-1.6-.323-2.367-.446-10.563-1.687-15.466-12.105-10.008-21.357,2.839-4.811,5.718-9.6,8.7-14.327a3.2,3.2,0,0,0,.22-3.715,18.5,18.5,0,0,1-1.451-3.272,4.819,4.819,0,0,1,1.483-5.628,4.576,4.576,0,0,1,5.774-.534c3.131,2.066,6,1.975,9.109-.052a4.548,4.548,0,0,1,5.581.5,5.014,5.014,0,0,1,1.725,5.38,1.657,1.657,0,0,1-.268.663c-2.947,3.763-1.256,6.983,1.059,10.243,1.383,1.947,2.477,4.1,3.743,6.129.838,1.345.965,2.643-.486,3.531s-2.575.2-3.383-1.152c-1.966-3.286-3.975-6.548-5.889-9.864a2.94,2.94,0,0,0-3.052-1.679c-3.03.154-6.615-.9-8.953.4-2.32,1.281-3.418,4.81-5,7.387-1.875,3.063-3.8,6.1-5.5,9.263a8.745,8.745,0,0,0,.636,9.716,8.78,8.78,0,0,0,8.43,3.88c0-1.975-.026-3.8.005-5.616a6.748,6.748,0,1,1,13.493.074c.027,1.75,0,3.5,0,5.207,4.55,1.129,9.4-2.581,10.058-7.549.083-.632.078-1.276.1-1.914.054-1.526.544-2.73,2.324-2.7,1.8.027,2.168,1.344,2.268,2.8a13.856,13.856,0,0,1-7.709,12.826,49.718,49.718,0,0,1-6.892,2.007c-.037.387-.1,1.062-.2,2.1.932,0,1.7-.017,2.467,0,3.971.1,6.046,3.512,4.121,6.975q-4.418,7.95-9.064,15.773c-2.245,3.781-6.274,3.671-8.544-.194q-4.425-7.534-8.721-15.143c-2.271-4.013-.311-7.32,4.331-7.417.548-.012,1.1-.052,1.857-.089m16.427,4.479h-3.1c-4.032-.006-4.207-.178-4.212-4.17-.005-4.15.042-8.3-.023-12.449-.036-2.346-1.772-3.738-3.226-2.588a4.157,4.157,0,0,0-1.219,2.855c-.129,4.385-.1,8.778-.039,13.167.032,2.167-.733,3.342-3.062,3.2-1.248-.078-2.506-.013-4.259-.013l9.573,16.571,9.566-16.569M129.784,4.227c1.579,5.863,1.579,5.863,6.416,5.863q1.91,0,3.819,0c3.1,0,4.779-1.9,4.668-5.589-4.819,3.236-9.657,3.155-14.9-.274" transform="translate(-60.345 0)" fill="#161615"/>
        <path id="Trazado_717314" data-name="Trazado 717314" d="M233.783,76.571a23.747,23.747,0,0,0-9.565-6.44c-4.128-1.593-5.926-5.119-4.578-8.919,1.287-3.628,5.212-5.222,9.353-3.709a34.858,34.858,0,0,1,18.841,15.44c1.277,2.2,2.5,3.158,5.141,2.9a4.374,4.374,0,0,1,4.891,5.243,6.479,6.479,0,0,1-.664,1.769c-2.683,5.335-5.353,10.675-8.089,15.983-2.048,3.972-5.987,4.171-8.456.438-3.122-4.721-6.19-9.479-9.276-14.224-2.6-4-2.016-6.235,2.4-8.484m19.524,3.943a13.218,13.218,0,0,0-2.085.015c-3.238.628-4.917-.74-6.41-3.708a30.084,30.084,0,0,0-17.495-15.074c-2.1-.745-4.053.458-3.432,2.2a4.248,4.248,0,0,0,2.321,2.075,27.91,27.91,0,0,1,13.432,10.708c1.766,2.67,1.031,4.172-2.09,4.44-.9.077-1.806.194-3.083.333l10.321,15.808,8.521-16.8" transform="translate(-114.038 -29.62)" fill="#161615"/>
        <path id="Trazado_717315" data-name="Trazado 717315" d="M45.925,76.584c4.476,2.589,4.881,4.457,1.927,8.988s-5.911,9.09-8.9,13.611c-2.569,3.881-6.449,3.673-8.568-.46q-4.033-7.864-7.986-15.768c-2.009-4.023.053-7.41,4.537-7.118,2.337.152,3.427-.6,4.576-2.6A35.246,35.246,0,0,1,50.434,57.53c4.15-1.542,8.042-.034,9.418,3.573,1.46,3.824-.369,7.4-4.645,9.069a21.089,21.089,0,0,0-9.282,6.411M45.088,81.5c-1.33-.142-2.189-.25-3.05-.322-3.159-.265-3.9-1.736-2.159-4.4A27.14,27.14,0,0,1,53.31,66.088c1.511-.573,3.014-1.3,2.3-3.228-.692-1.851-2.2-1.617-3.8-1.006-7.041,2.682-12.882,7.026-16.3,13.707-2,3.913-4.255,5.808-8.574,5-.085-.016-.209.175-.46.4l8.286,16.354L45.088,81.5" transform="translate(-11.25 -29.618)" fill="#161615"/>
        <path id="Trazado_717316" data-name="Trazado 717316" d="M251.655,274.685c-2.4,0-4.793.055-7.186-.012-3.826-.107-5.9-3.531-4.077-6.89q3.425-6.3,7.173-12.42a4.5,4.5,0,0,1,7.9-.043c2.559,4.13,5,8.341,7.278,12.633,1.711,3.228-.464,6.61-4.142,6.718-2.314.068-4.631.013-6.947.013m-7.4-4.57h14.563l-7.3-12.614-7.261,12.614" transform="translate(-124.715 -131.622)" fill="#161615"/>
        <path id="Trazado_717317" data-name="Trazado 717317" d="M20.1,237.987H55.583a9.09,9.09,0,0,1,.164,1.191q.014,14.985,0,29.97C55.74,271.879,54.679,272.991,52,273q-14.266.052-28.531,0c-2.4-.009-3.558-1.045-3.566-3.242-.036-10.309-.009-20.619,0-30.928a4.528,4.528,0,0,1,.2-.841m17.634,29.4A11.279,11.279,0,1,0,26.5,256.115a11.333,11.333,0,0,0,11.236,11.27" transform="translate(-10.346 -123.813)" fill="#f29999"/>
        <path id="Trazado_717318" data-name="Trazado 717318" d="M123.781,237.96h35.3c.063.676.169,1.288.17,1.9q.015,14.627,0,29.255c0,2.952-.89,3.871-3.838,3.878q-14.028.035-28.056,0c-2.663-.007-3.726-.914-3.733-3.249-.032-10.232-.012-20.463,0-30.694a8.33,8.33,0,0,1,.159-1.088m17.7,7.685c-1.915,0-3.833-.063-5.745.015a4.63,4.63,0,0,0-4.844,4.813q-.131,5.623,0,11.251a4.643,4.643,0,0,0,4.633,4.809c3.906.123,7.821.119,11.727.009a4.638,4.638,0,0,0,4.715-4.731q.16-5.741,0-11.49a4.572,4.572,0,0,0-4.744-4.656c-1.911-.085-3.829-.016-5.745-.02" transform="translate(-64.307 -123.799)" fill="#fcd24a"/>
        <path id="Trazado_717319" data-name="Trazado 717319" d="M32.51,218.481c-6.547,0-13.094-.06-19.639.034-2.193.032-2.964-.819-2.985-2.955-.06-6.014-.116-6.013,5.977-6.013q17.844,0,35.688,0c3.311,0,3.657.366,3.672,3.733.023,5.2.023,5.2-5.227,5.2H32.51" transform="translate(-5.137 -109.017)" fill="#f29999"/>
        <path id="Trazado_717320" data-name="Trazado 717320" d="M239.436,218.481c-6.467,0-12.935-.068-19.4.037-2.214.036-2.951-.841-2.987-2.951-.1-6.021-.155-6.021,5.962-6.021q17.844,0,35.687,0c3.316,0,3.674.377,3.684,3.724.016,5.207.016,5.207-5.223,5.207H239.436" transform="translate(-112.907 -109.017)" fill="#0fd67a"/>
        <path id="Trazado_717321" data-name="Trazado 717321" d="M136.26,218.473c-6.548,0-13.1-.055-19.643.032-2.135.028-3.041-.666-2.981-2.9.167-6.238-.971-6.09,6.061-6.076,11.9.024,23.8,0,35.694.011,3.152,0,3.424.289,3.431,3.4.013,6,.5,5.544-5.553,5.535q-8.5-.013-17.009,0" transform="translate(-59.118 -109.008)" fill="#fcd24a"/>
        <path id="Trazado_717322" data-name="Trazado 717322" d="M262.856,187.754h-3.819c0-1.144.05-2.223-.01-3.3-.154-2.753-1.3-3.873-4.074-3.9-4.154-.037-8.309-.023-12.464-.008-3.57.013-4.483.942-4.541,4.564-.012.787,0,1.574,0,2.536H234.1c-1.35-7.227,1.951-11.248,9.225-11.252q4.794,0,9.588,0c7.931,0,10.79,3.185,9.947,11.354" transform="translate(-121.635 -91.772)" fill="#7a6d79"/>
        <path id="Trazado_717323" data-name="Trazado 717323" d="M159.266,187.734h-3.781c0-.952.008-1.875,0-2.8-.034-3.176-1.17-4.362-4.291-4.383-4.075-.027-8.151-.018-12.227,0-3.491.013-4.588,1.1-4.614,4.542-.006.793,0,1.586,0,2.557h-3.581c-1.786-6.6,1.677-11.229,8.47-11.249,3.356-.01,6.713,0,10.069,0,8.1,0,10.75,2.946,9.958,11.337" transform="translate(-67.79 -91.769)" fill="#7a6d79"/>
        <path id="Trazado_717324" data-name="Trazado 717324" d="M55.777,187.734H52c0-.952.008-1.875,0-2.8-.034-3.176-1.17-4.362-4.291-4.383-4.075-.027-8.151-.018-12.227,0-3.491.013-4.588,1.1-4.614,4.542-.006.793,0,1.586,0,2.557H27.279c-1.786-6.6,1.677-11.229,8.47-11.249,3.356-.01,6.713,0,10.069,0,8.1,0,10.75,2.946,9.958,11.337" transform="translate(-13.95 -91.769)" fill="#7a6d79"/>
        <path id="Trazado_717326" data-name="Trazado 717326" d="M159.965,97.023,150.4,113.592l-9.573-16.571c1.753,0,3.01-.064,4.259.013,2.329.145,3.093-1.029,3.062-3.2-.064-4.389-.09-8.781.039-13.167a4.154,4.154,0,0,1,1.219-2.855c1.454-1.15,3.189.241,3.226,2.587.065,4.149.018,8.3.023,12.45,0,3.992.18,4.163,4.212,4.169h3.1" transform="translate(-73.265 -40.27)" fill="#da0000"/>
        <path id="Trazado_717327" data-name="Trazado 717327" d="M144.741,8.811c5.245,3.429,10.084,3.51,14.9.274.111,3.688-1.572,5.588-4.668,5.589q-1.909,0-3.819,0c-4.836,0-4.836,0-6.416-5.863" transform="translate(-75.302 -4.584)" fill="#c2acac"/>
        <path id="Trazado_717328" data-name="Trazado 717328" d="M258.263,85.49l-8.521,16.8L239.421,86.483c1.277-.139,2.179-.256,3.083-.333,3.12-.268,3.856-1.77,2.09-4.44A27.91,27.91,0,0,0,231.162,71a4.248,4.248,0,0,1-2.321-2.075c-.621-1.747,1.331-2.949,3.432-2.2A30.084,30.084,0,0,1,249.768,81.8c1.493,2.968,3.172,4.336,6.41,3.708a13.218,13.218,0,0,1,2.085-.015" transform="translate(-118.994 -34.596)" fill="#da0000"/>
        <path id="Trazado_717329" data-name="Trazado 717329" d="M50.341,86.354l-10.335,15.82L31.72,85.82c.25-.223.374-.414.46-.4,4.319.805,6.571-1.09,8.574-5,3.419-6.681,9.26-11.025,16.3-13.707,1.605-.612,3.112-.845,3.8,1.006.719,1.925-.784,2.655-2.3,3.228A27.14,27.14,0,0,0,45.132,81.631c-1.745,2.664-1,4.135,2.159,4.4.861.072,1.719.18,3.05.322" transform="translate(-16.502 -34.476)" fill="#da0000"/>
        <path id="Trazado_717330" data-name="Trazado 717330" d="M249.17,275l7.261-12.614,7.3,12.614Z" transform="translate(-129.631 -136.506)" fill="#147d4c"/>
        <path id="Trazado_717331" data-name="Trazado 717331" d="M44.915,274.8a11.279,11.279,0,1,1,11.341-11.183A11.324,11.324,0,0,1,44.915,274.8m-.037-4.56a6.9,6.9,0,0,0,6.908-6.776,7.1,7.1,0,0,0-6.729-6.8,7.014,7.014,0,0,0-6.865,6.865,6.808,6.808,0,0,0,6.687,6.71" transform="translate(-17.522 -131.23)" fill="#161615"/>
        <path id="Trazado_717332" data-name="Trazado 717332" d="M149.3,253.954c1.915,0,3.833-.067,5.744.018a4.572,4.572,0,0,1,4.744,4.656q.168,5.74,0,11.49a4.638,4.638,0,0,1-4.715,4.731c-3.907.11-7.822.115-11.727-.009a4.643,4.643,0,0,1-4.633-4.809q-.136-5.623,0-11.251a4.631,4.631,0,0,1,4.844-4.813c1.912-.078,3.83-.015,5.745-.012m-5.895,16.292h11.7V258.475h-11.7Z" transform="translate(-72.133 -132.106)" fill="#161615"/>
        <path id="Trazado_717333" data-name="Trazado 717333" d="M49.77,275.037a6.808,6.808,0,0,1-6.687-6.71,7.014,7.014,0,0,1,6.865-6.865,7.1,7.1,0,0,1,6.729,6.8,6.9,6.9,0,0,1-6.908,6.776" transform="translate(-22.414 -136.025)" fill="#b20d0d"/>
        <rect id="Rect치ngulo_354405" data-name="Rect치ngulo 354405" width="11.703" height="11.771" transform="translate(71.277 126.37)" fill="#c39500"/>
      </g>
    </g>
  </g>
</svg>
